TitilliumWeb-SemiBold.ufo
<glyph name="exclam" format="2">
  <advance width="265.44117647058823"/>
  <unicode hex="0021"/>
  <outline>
    <contour>
      <point x="84.70588235294117" y="240.47058823529412" type="line"/>
      <point x="180.73529411764707" y="240.47058823529412" type="line"/>
      <point x="191.02941176470588" y="685.2941176470588" type="line"/>
      <point x="75.1470588235294" y="685.2941176470588" type="line"/>
    </contour>
    <contour>
      <point x="74.61764705882354" y="0.0" type="line"/>
      <point x="191.08823529411765" y="0.0" type="line"/>
      <point x="191.08823529411765" y="139.55882352941177" type="line"/>
      <point x="74.61764705882354" y="139.55882352941177" type="line"/>
    </contour>
  </outline>
</glyph>
<glyph name="quotedbl" format="2">
  <advance width="394.3235294117647"/>
  <unicode hex="0022"/>
  <outline>
    <contour>
      <point x="233.58823529411765" y="453.2352941176471" type="line"/>
      <point x="329.0882352941176" y="453.2352941176471" type="line"/>
      <point x="335.02941176470586" y="685.2941176470588" type="line"/>
      <point x="229.85294117647058" y="685.2941176470588" type="line"/>
    </contour>
    <contour>
      <point x="64.5" y="453.2352941176471" type="line"/>
      <point x="160.0" y="453.2352941176471" type="line"/>
      <point x="165.2058823529412" y="685.2941176470588" type="line"/>
      <point x="60.029411764705884" y="685.2941176470588" type="line"/>
    </contour>
  </outline>
</glyph>
<glyph name="numbersign" format="2">
  <advance width="560.0"/>
  <unicode hex="0023"/>
  <outline>
    <contour>
      <point x="122.05882352941177" y="0.0" type="line"/>
      <point x="216.88235294117646" y="0.0" type="line"/>
      <point x="216.88235294117646" y="159.85294117647058" type="line"/>
      <point x="343.11764705882354" y="159.85294117647058" type="line"/>
      <point x="343.11764705882354" y="0.0" type="line"/>
      <point x="437.94117647058823" y="0.0" type="line"/>
      <point x="437.94117647058823" y="159.85294117647058" type="line"/>
      <point x="540.2941176470588" y="159.85294117647058" type="line"/>
      <point x="540.2941176470588" y="250.6764705882353" type="line"/>
      <point x="437.94117647058823" y="250.6764705882353" type="line"/>
      <point x="437.94117647058823" y="403.1470588235294" type="line"/>
      <point x="540.2941176470588" y="403.1470588235294" type="line"/>
      <point x="540.2941176470588" y="493.97058823529414" type="line"/>
      <point x="437.94117647058823" y="493.97058823529414" type="line"/>
      <point x="437.94117647058823" y="662.6470588235294" type="line"/>
      <point x="343.11764705882354" y="662.6470588235294" type="line"/>
      <point x="343.11764705882354" y="493.97058823529414" type="line"/>
      <point x="216.88235294117646" y="493.97058823529414" type="line"/>
      <point x="216.88235294117646" y="662.6470588235294" type="line"/>
      <point x="122.05882352941177" y="662.6470588235294" type="line"/>
      <point x="122.05882352941177" y="493.97058823529414" type="line"/>
      <point x="19.705882352941178" y="493.97058823529414" type="line"/>
      <point x="19.705882352941178" y="403.1470588235294" type="line"/>
      <point x="122.05882352941177" y="403.1470588235294" type="line"/>
      <point x="122.05882352941177" y="250.6764705882353" type="line"/>
      <point x="19.705882352941178" y="250.6764705882353" type="line"/>
      <point x="19.705882352941178" y="159.85294117647058" type="line"/>
      <point x="122.05882352941177" y="159.85294117647058" type="line"/>
    </contour>
    <contour>
      <point x="216.88235294117646" y="250.6764705882353" type="line"/>
      <point x="216.88235294117646" y="403.1470588235294" type="line"/>
      <point x="343.11764705882354" y="403.1470588235294" type="line"/>
      <point x="343.11764705882354" y="250.6764705882353" type="line"/>
    </contour>
  </outline>
</glyph>
<glyph name="dollar" format="2">
  <advance width="560.0"/>
  <unicode hex="0024"/>
  <outline>
    <contour>
      <point x="195.8235294117647" y="-120.3529411764706" type="line"/>
      <point x="259.5" y="-127.3529411764706" type="line"/>
      <point x="314.29411764705884" y="305.3529411764706" type="line"/>
      <point x="251.61764705882354" y="316.02941176470586" type="line"/>
    </contour>
    <contour>
      <point x="259.02941176470586" y="377.7352941176471" type="line"/>
      <point x="322.44117647058823" y="368.05882352941177" type="line"/>
      <point x="377.5" y="804.7058823529412" type="line"/>
      <point x="313.8235294117647" y="804.7058823529412" type="line"/>
    </contour>
    <contour>
      <point x="281.3235294117647" y="-10.676470588235293" type="curve" smooth="yes"/>
      <point x="411.3235294117647" y="-10.676470588235293"/>
      <point x="501.6470588235294" y="52.088235294117645"/>
      <point x="501.6470588235294" y="196.88235294117646" type="curve" smooth="yes"/>
      <point x="501.6470588235294" y="309.2647058823529"/>
      <point x="452.29411764705884" y="346.0882352941176"/>
      <point x="314.05882352941177" y="384.47058823529414" type="curve" smooth="yes"/>
      <point x="201.2058823529412" y="414.97058823529414"/>
      <point x="166.47058823529412" y="429.97058823529414"/>
      <point x="166.47058823529412" y="491.02941176470586" type="curve" smooth="yes"/>
      <point x="166.47058823529412" y="547.5294117647059"/>
      <point x="207.61764705882354" y="576.7058823529412"/>
      <point x="288.88235294117646" y="576.7058823529412" type="curve" smooth="yes"/>
      <point x="329.3529411764706" y="576.7058823529412"/>
      <point x="421.29411764705884" y="568.4411764705883"/>
      <point x="479.2352941176471" y="561.4411764705883" type="curve"/>
      <point x="488.38235294117646" y="648.1176470588235" type="line"/>
      <point x="434.2352941176471" y="658.0588235294117"/>
      <point x="339.6764705882353" y="671.2058823529412"/>
      <point x="278.5882352941176" y="671.2058823529412" type="curve" smooth="yes"/>
      <point x="146.97058823529412" y="671.2058823529412"/>
      <point x="59.411764705882355" y="616.1764705882352"/>
      <point x="59.411764705882355" y="483.1470588235294" type="curve" smooth="yes"/>
      <point x="59.411764705882355" y="368.6764705882353"/>
      <point x="120.44117647058823" y="325.3529411764706"/>
      <point x="264.1470588235294" y="289.44117647058823" type="curve" smooth="yes"/>
      <point x="364.70588235294116" y="264.8235294117647"/>
      <point x="394.5882352941176" y="245.02941176470588"/>
      <point x="394.5882352941176" y="189.47058823529412" type="curve" smooth="yes"/>
      <point x="394.5882352941176" y="121.0"/>
      <point x="356.44117647058823" y="83.82352941176471"/>
      <point x="275.1764705882353" y="83.82352941176471" type="curve" smooth="yes"/>
      <point x="225.44117647058823" y="83.82352941176471"/>
      <point x="133.44117647058823" y="93.82352941176471"/>
      <point x="76.70588235294117" y="100.55882352941177" type="curve"/>
      <point x="66.08823529411765" y="15.352941176470589" type="line"/>
      <point x="122.3529411764706" y="4.9411764705882355"/>
      <point x="219.02941176470588" y="-10.676470588235293"/>
    </contour>
  </outline>
</glyph>
<glyph name="percent" format="2">
  <advance width="560.0"/>
  <unicode hex="0025"/>
  <outline>
    <contour>
      <point x="200.11764705882354" y="-25.911764705882355" type="line"/>
      <point x="422.1470588235294" y="669.5588235294117" type="line"/>
      <point x="360.0" y="691.0588235294117" type="line"/>
      <point x="138.23529411764707" y="-6.147058823529411" type="line"/>
    </contour>
    <contour>
      <point x="135.85294117647058" y="385.2352941176471" type="curve" smooth="yes"/>
      <point x="208.35294117647058" y="385.2352941176471"/>
      <point x="251.35294117647058" y="432.38235294117646"/>
      <point x="251.35294117647058" y="529.1176470588235" type="curve" smooth="yes"/>
      <point x="251.35294117647058" y="625.8529411764706"/>
      <point x="208.61764705882354" y="671.2058823529412"/>
      <point x="135.85294117647058" y="671.2058823529412" type="curve" smooth="yes"/>
      <point x="62.8235294117647" y="671.2058823529412"/>
      <point x="20.352941176470587" y="625.8529411764706"/>
      <point x="20.352941176470587" y="529.3823529411765" type="curve" smooth="yes"/>
      <point x="20.352941176470587" y="432.38235294117646"/>
      <point x="63.088235294117645" y="385.2352941176471"/>
    </contour>
    <contour>
      <point x="135.85294117647058" y="452.52941176470586" type="curve" smooth="yes"/>
      <point x="109.6470588235294" y="452.52941176470586"/>
      <point x="101.67647058823529" y="477.55882352941177"/>
      <point x="101.67647058823529" y="529.3823529411765" type="curve" smooth="yes"/>
      <point x="101.67647058823529" y="580.9411764705883"/>
      <point x="109.6470588235294" y="603.9117647058823"/>
      <point x="135.85294117647058" y="603.9117647058823" type="curve" smooth="yes"/>
      <point x="162.3235294117647" y="603.9117647058823"/>
      <point x="170.02941176470588" y="580.9411764705883"/>
      <point x="170.02941176470588" y="529.1176470588235" type="curve" smooth="yes"/>
      <point x="170.02941176470588" y="477.29411764705884"/>
      <point x="162.3235294117647" y="452.52941176470586"/>
    </contour>
    <contour>
      <point x="424.4117647058824" y="-11.205882352941176" type="curve" smooth="yes"/>
      <point x="496.9117647058824" y="-11.205882352941176"/>
      <point x="539.9117647058823" y="35.94117647058823"/>
      <point x="539.9117647058823" y="132.6764705882353" type="curve" smooth="yes"/>
      <point x="539.9117647058823" y="229.41176470588235"/>
      <point x="497.1764705882353" y="274.7647058823529"/>
      <point x="424.4117647058824" y="274.7647058823529" type="curve" smooth="yes"/>
      <point x="351.38235294117646" y="274.7647058823529"/>
      <point x="308.9117647058824" y="229.41176470588235"/>
      <point x="308.9117647058824" y="132.94117647058823" type="curve" smooth="yes"/>
      <point x="308.9117647058824" y="35.94117647058823"/>
      <point x="351.6470588235294" y="-11.205882352941176"/>
    </contour>
    <contour>
      <point x="424.4117647058824" y="56.088235294117645" type="curve" smooth="yes"/>
      <point x="398.20588235294116" y="56.088235294117645"/>
      <point x="390.2352941176471" y="81.11764705882354"/>
      <point x="390.2352941176471" y="132.94117647058823" type="curve" smooth="yes"/>
      <point x="390.2352941176471" y="184.5"/>
      <point x="398.20588235294116" y="207.47058823529412"/>
      <point x="424.4117647058824" y="207.47058823529412" type="curve" smooth="yes"/>
      <point x="450.88235294117646" y="207.47058823529412"/>
      <point x="458.5882352941176" y="184.5"/>
      <point x="458.5882352941176" y="132.6764705882353" type="curve" smooth="yes"/>
      <point x="458.5882352941176" y="80.8529411764706"/>
      <point x="450.88235294117646" y="56.088235294117645"/>
    </contour>
  </outline>
</glyph>
<glyph name="ampersand" format="2">
  <advance width="695.4411764705883"/>
  <unicode hex="0026"/>
  <outline>
    <contour>
      <point x="296.8529411764706" y="-11.205882352941176" type="curve" smooth="yes"/>
      <point x="386.3529411764706" y="-11.205882352941176"/>
      <point x="461.55882352941177" y="26.794117647058822"/>
      <point x="506.3529411764706" y="87.70588235294117" type="curve"/>
      <point x="618.9705882352941" y="-10.676470588235293" type="line"/>
      <point x="681.2058823529412" y="60.17647058823529" type="line"/>
      <point x="561.7941176470588" y="168.5" type="line"/>
      <point x="581.2647058823529" y="215.97058823529412"/>
      <point x="602.4705882352941" y="303.1470588235294"/>
      <point x="610.6764705882352" y="373.61764705882354" type="curve"/>
      <point x="505.8235294117647" y="375.8235294117647" type="line"/>
      <point x="504.02941176470586" y="335.0"/>
      <point x="492.1764705882353" y="258.7647058823529"/>
      <point x="482.5882352941176" y="232.73529411764707" type="curve"/>
      <point x="361.02941176470586" y="353.7647058823529" type="line"/>
      <point x="463.52941176470586" y="413.8235294117647"/>
      <point x="505.44117647058823" y="457.3529411764706"/>
      <point x="505.44117647058823" y="549.7352941176471" type="curve" smooth="yes"/>
      <point x="505.44117647058823" y="649.4411764705883"/>
      <point x="440.11764705882354" y="707.2352941176471"/>
      <point x="314.94117647058823" y="707.2352941176471" type="curve" smooth="yes"/>
      <point x="197.23529411764707" y="707.2352941176471"/>
      <point x="123.70588235294117" y="649.4411764705883"/>
      <point x="123.70588235294117" y="558.0882352941177" type="curve" smooth="yes"/>
      <point x="123.70588235294117" y="494.79411764705884"/>
      <point x="132.85294117647058" y="464.4117647058824"/>
      <point x="185.73529411764707" y="401.6470588235294" type="curve"/>
      <point x="85.76470588235294" y="365.2352941176471"/>
      <point x="38.1764705882353" y="313.61764705882354"/>
      <point x="38.1764705882353" y="199.1764705882353" type="curve" smooth="yes"/>
      <point x="38.1764705882353" y="68.11764705882354"/>
      <point x="100.26470588235294" y="-11.205882352941176"/>
    </contour>
    <contour>
      <point x="284.88235294117646" y="85.76470588235294" type="curve" smooth="yes"/>
      <point x="188.41176470588235" y="85.76470588235294"/>
      <point x="147.44117647058823" y="127.5"/>
      <point x="147.44117647058823" y="207.52941176470588" type="curve" smooth="yes"/>
      <point x="147.44117647058823" y="275.7647058823529"/>
      <point x="178.14705882352942" y="312.55882352941177"/>
      <point x="242.61764705882354" y="337.4117647058824" type="curve"/>
      <point x="432.55882352941177" y="148.0" type="line"/>
      <point x="406.52941176470586" y="107.32352941176471"/>
      <point x="346.94117647058823" y="85.76470588235294"/>
    </contour>
    <contour>
      <point x="300.0" y="416.0" type="curve"/>
      <point x="245.73529411764707" y="472.47058823529414"/>
      <point x="232.97058823529412" y="493.47058823529414"/>
      <point x="232.97058823529412" y="536.0294117647059" type="curve" smooth="yes"/>
      <point x="232.97058823529412" y="590.1764705882352"/>
      <point x="263.6764705882353" y="614.9411764705883"/>
      <point x="314.94117647058823" y="614.9411764705883" type="curve" smooth="yes"/>
      <point x="370.05882352941177" y="614.9411764705883"/>
      <point x="396.1764705882353" y="591.0588235294117"/>
      <point x="396.1764705882353" y="538.9705882352941" type="curve" smooth="yes"/>
      <point x="396.1764705882353" y="482.11764705882354"/>
      <point x="367.88235294117646" y="454.0"/>
    </contour>
  </outline>
</glyph>
<glyph name="quotesingle" format="2">
  <advance width="225.23529411764707"/>
  <unicode hex="0027"/>
  <outline>
    <contour>
      <point x="64.23529411764706" y="453.2352941176471" type="line"/>
      <point x="159.73529411764707" y="453.2352941176471" type="line"/>
      <point x="166.2058823529412" y="685.2941176470588" type="line"/>
      <point x="60.76470588235294" y="685.2941176470588" type="line"/>
    </contour>
  </outline>
</glyph>
<glyph name="parenleft" format="2">
  <advance width="288.4117647058824"/>
  <unicode hex="0028"/>
  <outline>
    <contour>
      <point x="154.52941176470588" y="-125.0" type="curve"/>
      <point x="257.1764705882353" y="-125.0" type="line"/>
      <point x="216.1764705882353" y="-25.676470588235293"/>
      <point x="162.1764705882353" y="158.38235294117646"/>
      <point x="162.1764705882353" y="301.0" type="curve" smooth="yes"/>
      <point x="162.1764705882353" y="444.1470588235294"/>
      <point x="216.1764705882353" y="641.6764705882352"/>
      <point x="257.1764705882353" y="750.0" type="curve"/>
      <point x="154.52941176470588" y="750.0" type="line"/>
      <point x="106.6470588235294" y="655.5"/>
      <point x="43.55882352941177" y="467.5882352941176"/>
      <point x="43.55882352941177" y="301.0" type="curve" smooth="yes"/>
      <point x="43.55882352941177" y="134.41176470588235"/>
      <point x="106.6470588235294" y="-40.5"/>
    </contour>
  </outline>
</glyph>
<glyph name="parenright" format="2">
  <advance width="288.4117647058824"/>
  <unicode hex="0029"/>
  <outline>
    <contour>
      <point x="134.14705882352942" y="-125.0" type="line"/>
      <point x="182.02941176470588" y="-40.5"/>
      <point x="245.11764705882354" y="134.41176470588235"/>
      <point x="245.11764705882354" y="301.0" type="curve" smooth="yes"/>
      <point x="245.11764705882354" y="467.5882352941176"/>
      <point x="182.02941176470588" y="655.5"/>
      <point x="134.14705882352942" y="750.0" type="curve"/>
      <point x="31.5" y="750.0" type="line"/>
      <point x="72.5" y="641.6764705882352"/>
      <point x="126.5" y="444.1470588235294"/>
      <point x="126.5" y="301.0" type="curve" smooth="yes"/>
      <point x="126.5" y="158.38235294117646"/>
      <point x="72.5" y="-25.676470588235293"/>
      <point x="31.5" y="-125.0" type="curve"/>
    </contour>
  </outline>
</glyph>
<glyph name="asterisk" format="2">
  <advance width="422.88235294117646"/>
  <unicode hex="002A"/>
  <outline>
    <contour>
      <point x="232.05882352941177" y="363.0882352941176" type="line"/>
      <point x="294.20588235294116" y="381.9117647058824" type="line"/>
      <point x="255.14705882352942" y="504.29411764705884" type="line"/>
      <point x="381.8529411764706" y="504.29411764705884" type="line"/>
      <point x="381.8529411764706" y="567.7058823529412" type="line"/>
      <point x="255.6764705882353" y="567.7058823529412" type="line"/>
      <point x="294.7352941176471" y="691.8235294117648" type="line"/>
      <point x="231.11764705882354" y="712.8529411764706" type="line"/>
      <point x="191.3235294117647" y="589.7352941176471" type="line"/>
      <point x="87.94117647058823" y="664.8529411764706" type="line"/>
      <point x="48.8235294117647" y="611.3823529411765" type="line"/>
      <point x="152.6764705882353" y="536.5294117647059" type="line"/>
      <point x="46.35294117647059" y="458.0" type="line"/>
      <point x="85.94117647058823" y="407.47058823529414" type="line"/>
      <point x="190.7941176470588" y="486.47058823529414" type="line"/>
    </contour>
  </outline>
</glyph>
<glyph name="plus" format="2">
  <advance width="560.0"/>
  <unicode hex="002B"/>
  <outline>
    <contour>
      <point x="230.11764705882354" y="20.735294117647058" type="line"/>
      <point x="327.88235294117646" y="20.735294117647058" type="line"/>
      <point x="327.88235294117646" y="202.38235294117646" type="line"/>
      <point x="507.61764705882354" y="202.38235294117646" type="line"/>
      <point x="507.61764705882354" y="299.61764705882354" type="line"/>
      <point x="327.88235294117646" y="299.61764705882354" type="line"/>
      <point x="327.88235294117646" y="479.2647058823529" type="line"/>
      <point x="230.11764705882354" y="479.2647058823529" type="line"/>
      <point x="230.11764705882354" y="299.61764705882354" type="line"/>
      <point x="52.38235294117647" y="299.61764705882354" type="line"/>
      <point x="52.38235294117647" y="202.38235294117646" type="line"/>
      <point x="230.11764705882354" y="202.38235294117646" type="line"/>
    </contour>
  </outline>
</glyph>
<glyph name="comma" format="2">
  <advance width="245.52941176470588"/>
  <unicode hex="002C"/>
  <outline>
    <contour>
      <point x="26.352941176470587" y="-123.0" type="line"/>
      <point x="113.97058823529412" y="-123.0" type="line"/>
      <point x="193.64705882352942" y="123.76470588235294" type="line"/>
      <point x="74.23529411764706" y="123.76470588235294" type="line"/>
    </contour>
  </outline>
</glyph>
<glyph name="hyphen" format="2">
  <advance width="421.2352941176471"/>
  <unicode hex="002D"/>
  <outline>
    <contour>
      <point x="61.294117647058826" y="220.61764705882354" type="line"/>
      <point x="360.20588235294116" y="220.61764705882354" type="line"/>
      <point x="360.20588235294116" y="319.3235294117647" type="line"/>
      <point x="61.294117647058826" y="319.3235294117647" type="line"/>
    </contour>
  </outline>
</glyph>
<glyph name="period" format="2">
  <advance width="238.52941176470588"/>
  <unicode hex="002E"/>
  <outline>
    <contour>
      <point x="61.029411764705884" y="0.0" type="line"/>
      <point x="177.5" y="0.0" type="line"/>
      <point x="177.5" y="143.23529411764707" type="line"/>
      <point x="61.029411764705884" y="143.23529411764707" type="line"/>
    </contour>
  </outline>
</glyph>
<glyph name="zero" format="2">
  <advance width="560.0"/>
  <unicode hex="0030"/>
  <outline>
    <contour>
      <point x="280.0" y="-11.205882352941176" type="curve" smooth="yes"/>
      <point x="438.1764705882353" y="-11.205882352941176"/>
      <point x="529.1176470588235" y="72.02941176470588"/>
      <point x="529.1176470588235" y="323.3529411764706" type="curve" smooth="yes"/>
      <point x="529.1176470588235" y="582.8823529411765"/>
      <point x="440.02941176470586" y="671.4705882352941"/>
      <point x="279.7352941176471" y="671.4705882352941" type="curve" smooth="yes"/>
      <point x="121.02941176470588" y="671.4705882352941"/>
      <point x="30.61764705882353" y="582.6176470588235"/>
      <point x="30.61764705882353" y="323.0882352941176" type="curve" smooth="yes"/>
      <point x="30.61764705882353" y="71.23529411764706"/>
      <point x="121.82352941176471" y="-11.205882352941176"/>
    </contour>
    <contour>
      <point x="280.7352941176471" y="86.02941176470588" type="curve" smooth="yes"/>
      <point x="190.14705882352942" y="86.02941176470588"/>
      <point x="145.08823529411765" y="141.23529411764707"/>
      <point x="145.08823529411765" y="322.8235294117647" type="curve" smooth="yes"/>
      <point x="145.08823529411765" y="518.3823529411765"/>
      <point x="188.02941176470588" y="574.2352941176471"/>
      <point x="280.47058823529414" y="574.2352941176471" type="curve" smooth="yes"/>
      <point x="373.70588235294116" y="574.2352941176471"/>
      <point x="414.6470588235294" y="517.5882352941177"/>
      <point x="414.6470588235294" y="323.3529411764706" type="curve" smooth="yes"/>
      <point x="414.6470588235294" y="141.5"/>
      <point x="371.3235294117647" y="86.02941176470588"/>
    </contour>
  </outline>
</glyph>
<glyph name="one" format="2">
  <advance width="560.0"/>
  <unicode hex="0031"/>
  <outline>
    <contour>
      <point x="294.02941176470586" y="0.0" type="line"/>
      <point x="405.02941176470586" y="0.0" type="line"/>
      <point x="405.02941176470586" y="660.0" type="line"/>
      <point x="302.8529411764706" y="660.0" type="line"/>
      <point x="88.55882352941177" y="517.3823529411765" type="line"/>
      <point x="139.38235294117646" y="433.97058823529414" type="line"/>
      <point x="294.02941176470586" y="534.9705882352941" type="line"/>
    </contour>
  </outline>
</glyph>
<glyph name="two" format="2">
  <advance width="560.0"/>
  <unicode hex="0032"/>
  <outline>
    <contour>
      <point x="66.8529411764706" y="0.0" type="line"/>
      <point x="492.20588235294116" y="0.0" type="line"/>
      <point x="492.20588235294116" y="96.70588235294117" type="line"/>
      <point x="193.05882352941177" y="96.70588235294117" type="line"/>
      <point x="335.05882352941177" y="233.7941176470588" type="line" smooth="yes"/>
      <point x="436.6470588235294" y="328.8235294117647"/>
      <point x="478.55882352941177" y="386.8235294117647"/>
      <point x="478.55882352941177" y="487.5" type="curve" smooth="yes"/>
      <point x="478.55882352941177" y="611.0294117647059"/>
      <point x="411.9117647058824" y="671.2058823529412"/>
      <point x="266.20588235294116" y="671.2058823529412" type="curve" smooth="yes"/>
      <point x="194.52941176470588" y="671.2058823529412"/>
      <point x="112.8529411764706" y="654.7352941176471"/>
      <point x="71.38235294117646" y="642.2647058823529" type="curve"/>
      <point x="77.8529411764706" y="554.5882352941177" type="line"/>
      <point x="117.70588235294117" y="561.9117647058823"/>
      <point x="188.88235294117646" y="572.5"/>
      <point x="240.2058823529412" y="572.5" type="curve" smooth="yes"/>
      <point x="325.4117647058824" y="572.5"/>
      <point x="364.0882352941176" y="548.7941176470588"/>
      <point x="364.0882352941176" y="472.79411764705884" type="curve" smooth="yes"/>
      <point x="364.0882352941176" y="402.70588235294116"/>
      <point x="315.02941176470586" y="350.38235294117646"/>
      <point x="230.61764705882354" y="263.44117647058823" type="curve" smooth="yes"/>
      <point x="66.8529411764706" y="94.23529411764706" type="line"/>
    </contour>
  </outline>
</glyph>
<glyph name="three" format="2">
  <advance width="560.0"/>
  <unicode hex="0033"/>
  <outline>
    <contour>
      <point x="274.9117647058824" y="-11.205882352941176" type="curve" smooth="yes"/>
      <point x="430.61764705882354" y="-11.205882352941176"/>
      <point x="495.4117647058824" y="58.14705882352941"/>
      <point x="495.4117647058824" y="194.5" type="curve" smooth="yes"/>
      <point x="495.4117647058824" y="291.44117647058823"/>
      <point x="455.3235294117647" y="317.55882352941177"/>
      <point x="395.02941176470586" y="344.9117647058824" type="curve"/>
      <point x="430.5882352941176" y="368.44117647058823"/>
      <point x="481.55882352941177" y="408.20588235294116"/>
      <point x="481.55882352941177" y="493.97058823529414" type="curve" smooth="yes"/>
      <point x="481.55882352941177" y="614.3235294117648"/>
      <point x="425.3529411764706" y="671.4705882352941"/>
      <point x="259.29411764705884" y="671.4705882352941" type="curve" smooth="yes"/>
      <point x="186.2941176470588" y="671.4705882352941"/>
      <point x="106.76470588235294" y="652.5882352941177"/>
      <point x="66.5" y="639.1764705882352" type="curve"/>
      <point x="74.70588235294117" y="555.1764705882352" type="line"/>
      <point x="115.17647058823529" y="563.4411764705883"/>
      <point x="191.23529411764707" y="574.2352941176471"/>
      <point x="252.2058823529412" y="574.2352941176471" type="curve" smooth="yes"/>
      <point x="333.44117647058823" y="574.2352941176471"/>
      <point x="367.0882352941176" y="547.0588235294117"/>
      <point x="367.0882352941176" y="487.61764705882354" type="curve" smooth="yes"/>
      <point x="367.0882352941176" y="428.8529411764706"/>
      <point x="314.5882352941176" y="384.38235294117646"/>
      <point x="267.20588235294116" y="384.38235294117646" type="curve" smooth="yes"/>
      <point x="134.2058823529412" y="384.38235294117646" type="line"/>
      <point x="134.2058823529412" y="291.55882352941177" type="line"/>
      <point x="267.47058823529414" y="291.55882352941177" type="line" smooth="yes"/>
      <point x="332.4117647058824" y="290.2352941176471"/>
      <point x="380.94117647058823" y="259.02941176470586"/>
      <point x="380.94117647058823" y="191.5" type="curve" smooth="yes"/>
      <point x="380.94117647058823" y="119.91176470588235"/>
      <point x="341.44117647058823" y="86.29411764705883"/>
      <point x="260.20588235294116" y="86.02941176470588" type="curve" smooth="yes"/>
      <point x="199.38235294117646" y="86.02941176470588"/>
      <point x="113.32352941176471" y="97.55882352941177"/>
      <point x="66.11764705882354" y="106.08823529411765" type="curve"/>
      <point x="59.38235294117647" y="19.88235294117647" type="line"/>
      <point x="108.58823529411765" y="6.205882352941177"/>
      <point x="201.05882352941177" y="-11.205882352941176"/>
    </contour>
  </outline>
</glyph>
<glyph name="four" format="2">
  <advance width="560.0"/>
  <unicode hex="0034"/>
  <outline>
    <contour>
      <point x="337.7352941176471" y="0.0" type="line"/>
      <point x="448.7352941176471" y="0.0" type="line"/>
      <point x="448.7352941176471" y="117.73529411764706" type="line"/>
      <point x="521.0" y="117.73529411764706" type="line"/>
      <point x="521.0" y="214.97058823529412" type="line"/>
      <point x="448.7352941176471" y="214.97058823529412" type="line"/>
      <point x="448.7352941176471" y="408.97058823529414" type="line"/>
      <point x="337.7352941176471" y="408.97058823529414" type="line"/>
      <point x="337.7352941176471" y="214.97058823529412" type="line"/>
      <point x="152.85294117647058" y="214.97058823529412" type="line"/>
      <point x="336.20588235294116" y="660.0" type="line"/>
      <point x="214.11764705882354" y="660.0" type="line"/>
      <point x="40.0" y="202.88235294117646" type="line"/>
      <point x="40.0" y="117.73529411764706" type="line"/>
      <point x="337.7352941176471" y="117.73529411764706" type="line"/>
    </contour>
  </outline>
</glyph>
<glyph name="five" format="2">
  <advance width="560.0"/>
  <unicode hex="0035"/>
  <outline>
    <contour>
      <point x="283.20588235294116" y="-10.676470588235293" type="curve" smooth="yes"/>
      <point x="424.55882352941177" y="-10.676470588235293"/>
      <point x="507.0882352941176" y="71.1470588235294"/>
      <point x="507.0882352941176" y="221.47058823529412" type="curve" smooth="yes"/>
      <point x="507.0882352941176" y="361.52941176470586"/>
      <point x="427.02941176470586" y="418.61764705882354"/>
      <point x="294.6764705882353" y="418.61764705882354" type="curve" smooth="yes"/>
      <point x="246.52941176470588" y="418.61764705882354"/>
      <point x="190.1764705882353" y="400.6470588235294"/>
      <point x="160.52941176470588" y="387.47058823529414" type="curve"/>
      <point x="177.7941176470588" y="562.2352941176471" type="line"/>
      <point x="484.1764705882353" y="562.2352941176471" type="line"/>
      <point x="484.1764705882353" y="660.0" type="line"/>
      <point x="89.38235294117646" y="660.0" type="line"/>
      <point x="71.11764705882354" y="309.3529411764706" type="line"/>
      <point x="140.41176470588235" y="294.3235294117647" type="line"/>
      <point x="168.11764705882354" y="305.8235294117647"/>
      <point x="224.73529411764707" y="321.38235294117646"/>
      <point x="279.70588235294116" y="321.38235294117646" type="curve" smooth="yes"/>
      <point x="351.70588235294116" y="321.38235294117646"/>
      <point x="392.61764705882354" y="292.2647058823529"/>
      <point x="392.61764705882354" y="210.44117647058823" type="curve" smooth="yes"/>
      <point x="392.61764705882354" y="130.5"/>
      <point x="346.8235294117647" y="86.55882352941177"/>
      <point x="270.44117647058823" y="86.55882352941177" type="curve" smooth="yes"/>
      <point x="209.05882352941177" y="86.55882352941177"/>
      <point x="118.8529411764706" y="98.35294117647058"/>
      <point x="68.17647058823529" y="106.88235294117646" type="curve"/>
      <point x="55.8235294117647" y="22.88235294117647" type="line"/>
      <point x="109.44117647058823" y="8.470588235294118"/>
      <point x="208.73529411764707" y="-10.676470588235293"/>
    </contour>
  </outline>
</glyph>
<glyph name="six" format="2">
  <advance width="560.0"/>
  <unicode hex="0036"/>
  <outline>
    <contour>
      <point x="286.94117647058823" y="-11.205882352941176" type="curve" smooth="yes"/>
      <point x="435.4117647058824" y="-11.205882352941176"/>
      <point x="524.1764705882352" y="63.44117647058823"/>
      <point x="524.1764705882352" y="208.73529411764707" type="curve" smooth="yes"/>
      <point x="524.1764705882352" y="353.2352941176471"/>
      <point x="446.97058823529414" y="418.5"/>
      <point x="299.55882352941177" y="418.5" type="curve" smooth="yes"/>
      <point x="256.4117647058824" y="418.5"/>
      <point x="195.05882352941177" y="398.1764705882353"/>
      <point x="156.08823529411765" y="387.4117647058824" type="curve"/>
      <point x="156.35294117647058" y="502.7647058823529"/>
      <point x="207.61764705882354" y="573.9705882352941"/>
      <point x="308.94117647058823" y="573.9705882352941" type="curve" smooth="yes"/>
      <point x="369.94117647058823" y="573.9705882352941"/>
      <point x="448.02941176470586" y="566.0294117647059"/>
      <point x="489.6470588235294" y="560.5588235294117" type="curve"/>
      <point x="499.52941176470586" y="647.2352941176471" type="line" name="hr00"/>
      <point x="453.70588235294116" y="657.1176470588235"/>
      <point x="369.94117647058823" y="671.2058823529412"/>
      <point x="308.94117647058823" y="671.2058823529412" type="curve" smooth="yes"/>
      <point x="145.23529411764707" y="671.2058823529412"/>
      <point x="41.61764705882353" y="576.0882352941177"/>
      <point x="41.61764705882353" y="329.6470588235294" type="curve" smooth="yes"/>
      <point x="41.61764705882353" y="118.05882352941177"/>
      <point x="116.23529411764706" y="-11.205882352941176"/>
    </contour>
    <contour>
      <point x="286.94117647058823" y="86.02941176470588" type="curve" smooth="yes"/>
      <point x="189.7058823529412" y="86.02941176470588"/>
      <point x="155.88235294117646" y="176.0"/>
      <point x="155.08823529411765" y="292.11764705882354" type="curve"/>
      <point x="185.58823529411765" y="304.29411764705884"/>
      <point x="244.05882352941177" y="321.2647058823529"/>
      <point x="290.47058823529414" y="321.2647058823529" type="curve" smooth="yes"/>
      <point x="365.70588235294116" y="321.2647058823529"/>
      <point x="409.70588235294116" y="283.97058823529414"/>
      <point x="409.70588235294116" y="208.73529411764707" type="curve" smooth="yes"/>
      <point x="409.70588235294116" y="130.1764705882353"/>
      <point x="366.02941176470586" y="86.02941176470588"/>
    </contour>
  </outline>
</glyph>
<glyph name="seven" format="2">
  <advance width="560.0"/>
  <unicode hex="0037"/>
  <outline>
    <contour>
      <point x="245.6764705882353" y="-11.205882352941176" type="line"/>
      <point x="489.4117647058824" y="528.0882352941177" type="line"/>
      <point x="489.4117647058824" y="660.0" type="line"/>
      <point x="72.70588235294117" y="660.0" type="line"/>
      <point x="72.70588235294117" y="560.5588235294117" type="line"/>
      <point x="377.88235294117646" y="560.5588235294117" type="line"/>
      <point x="377.88235294117646" y="530.9411764705883" type="line"/>
      <point x="142.2941176470588" y="18.970588235294116" type="line"/>
    </contour>
  </outline>
</glyph>
<glyph name="eight" format="2">
  <advance width="560.0"/>
  <unicode hex="0038"/>
  <outline>
    <contour>
      <point x="278.0" y="-11.205882352941176" type="curve" smooth="yes"/>
      <point x="416.20588235294116" y="-11.205882352941176"/>
      <point x="529.4117647058823" y="37.35294117647059"/>
      <point x="529.4117647058823" y="179.0" type="curve" smooth="yes"/>
      <point x="529.4117647058823" y="267.29411764705884"/>
      <point x="491.4117647058824" y="303.4117647058824"/>
      <point x="430.47058823529414" y="342.11764705882354" type="curve"/>
      <point x="496.20588235294116" y="382.8235294117647"/>
      <point x="519.4117647058823" y="413.05882352941177"/>
      <point x="519.4117647058823" y="494.70588235294116" type="curve" smooth="yes"/>
      <point x="519.4117647058823" y="610.7058823529412"/>
      <point x="420.0" y="671.4705882352941"/>
      <point x="278.0" y="671.4705882352941" type="curve" smooth="yes"/>
      <point x="134.0" y="671.4705882352941"/>
      <point x="40.588235294117645" y="609.7058823529412"/>
      <point x="40.588235294117645" y="495.70588235294116" type="curve" smooth="yes"/>
      <point x="40.588235294117645" y="420.4117647058824"/>
      <point x="64.05882352941177" y="383.0882352941176"/>
      <point x="126.3529411764706" y="342.11764705882354" type="curve"/>
      <point x="66.73529411764706" y="301.29411764705884"/>
      <point x="29.58823529411765" y="264.29411764705884"/>
      <point x="29.58823529411765" y="168.0" type="curve" smooth="yes"/>
      <point x="29.58823529411765" y="30.058823529411764"/>
      <point x="141.64705882352942" y="-11.205882352941176"/>
    </contour>
    <contour>
      <point x="278.0" y="88.97058823529412" type="curve" smooth="yes"/>
      <point x="198.61764705882354" y="88.97058823529412"/>
      <point x="148.73529411764707" y="117.55882352941177"/>
      <point x="148.73529411764707" y="191.7941176470588" type="curve" smooth="yes"/>
      <point x="148.73529411764707" y="242.05882352941177"/>
      <point x="177.0" y="272.2352941176471"/>
      <point x="230.1764705882353" y="289.55882352941177" type="curve"/>
      <point x="325.8529411764706" y="289.55882352941177" type="line"/>
      <point x="376.7647058823529" y="272.97058823529414"/>
      <point x="410.52941176470586" y="246.02941176470588"/>
      <point x="410.52941176470586" y="194.1764705882353" type="curve" smooth="yes"/>
      <point x="410.52941176470586" y="117.29411764705883"/>
      <point x="359.2352941176471" y="88.97058823529412"/>
    </contour>
    <contour>
      <point x="230.1764705882353" y="384.3235294117647" type="line"/>
      <point x="183.61764705882354" y="406.8529411764706"/>
      <point x="159.47058823529412" y="434.29411764705884"/>
      <point x="159.47058823529412" y="479.2647058823529" type="curve" smooth="yes"/>
      <point x="159.47058823529412" y="542.2352941176471"/>
      <point x="203.58823529411765" y="571.2941176470588"/>
      <point x="279.47058823529414" y="571.2941176470588" type="curve" smooth="yes"/>
      <point x="356.61764705882354" y="571.2941176470588"/>
      <point x="400.2647058823529" y="541.7058823529412"/>
      <point x="400.2647058823529" y="479.0" type="curve" smooth="yes"/>
      <point x="400.2647058823529" y="434.02941176470586"/>
      <point x="373.7352941176471" y="406.3235294117647"/>
      <point x="325.8529411764706" y="384.3235294117647" type="curve"/>
    </contour>
  </outline>
</glyph>
<glyph name="nine" format="2">
  <advance width="560.0"/>
  <unicode hex="0039"/>
  <outline>
    <contour>
      <point x="247.73529411764707" y="-11.205882352941176" type="curve" smooth="yes"/>
      <point x="414.0882352941176" y="-11.205882352941176"/>
      <point x="516.6470588235294" y="72.0"/>
      <point x="516.6470588235294" y="331.3529411764706" type="curve" smooth="yes"/>
      <point x="516.6470588235294" y="540.6176470588235"/>
      <point x="440.55882352941177" y="671.2058823529412"/>
      <point x="270.0" y="671.2058823529412" type="curve" smooth="yes"/>
      <point x="125.23529411764706" y="671.2058823529412"/>
      <point x="33.8235294117647" y="588.4117647058823"/>
      <point x="33.8235294117647" y="451.0" type="curve" smooth="yes"/>
      <point x="33.8235294117647" y="309.8529411764706"/>
      <point x="114.91176470588235" y="244.23529411764707"/>
      <point x="256.05882352941177" y="244.23529411764707" type="curve" smooth="yes"/>
      <point x="293.5882352941176" y="244.23529411764707"/>
      <point x="350.97058823529414" y="259.6764705882353"/>
      <point x="402.1764705882353" y="277.94117647058823" type="curve"/>
      <point x="401.6470588235294" y="152.58823529411765"/>
      <point x="351.70588235294116" y="86.02941176470588"/>
      <point x="247.73529411764707" y="86.02941176470588" type="curve" smooth="yes"/>
      <point x="186.73529411764707" y="86.02941176470588"/>
      <point x="108.6470588235294" y="94.23529411764706"/>
      <point x="67.02941176470588" y="99.70588235294117" type="curve"/>
      <point x="57.14705882352941" y="13.029411764705882" type="line" name="hr00"/>
      <point x="102.97058823529412" y="2.8823529411764706"/>
      <point x="186.73529411764707" y="-11.205882352941176"/>
    </contour>
    <contour>
      <point x="265.4117647058824" y="341.47058823529414" type="curve" smooth="yes"/>
      <point x="190.38235294117646" y="341.47058823529414"/>
      <point x="148.2941176470588" y="375.97058823529414"/>
      <point x="148.2941176470588" y="451.0" type="curve" smooth="yes"/>
      <point x="148.2941176470588" y="527.7058823529412"/>
      <point x="193.2941176470588" y="573.9705882352941"/>
      <point x="270.0" y="573.9705882352941" type="curve" smooth="yes"/>
      <point x="368.02941176470586" y="573.9705882352941"/>
      <point x="402.11764705882354" y="485.79411764705884"/>
      <point x="403.1764705882353" y="370.29411764705884" type="curve"/>
      <point x="370.29411764705884" y="357.9117647058824"/>
      <point x="309.44117647058823" y="341.47058823529414"/>
    </contour>
  </outline>
</glyph>
<glyph name="colon" format="2">
  <advance width="238.7941176470588"/>
  <unicode hex="003A"/>
  <outline>
    <contour>
      <point x="61.029411764705884" y="303.55882352941177" type="line"/>
      <point x="177.5" y="303.55882352941177" type="line"/>
      <point x="177.5" y="446.79411764705884" type="line"/>
      <point x="61.029411764705884" y="446.79411764705884" type="line"/>
    </contour>
    <contour>
      <point x="61.029411764705884" y="0.0" type="line"/>
      <point x="177.5" y="0.0" type="line"/>
      <point x="177.5" y="143.23529411764707" type="line"/>
      <point x="61.029411764705884" y="143.23529411764707" type="line"/>
    </contour>
  </outline>
</glyph>
<glyph name="semicolon" format="2">
  <advance width="265.5"/>
  <unicode hex="003B"/>
  <outline>
    <contour>
      <point x="36.26470588235294" y="-123.0" type="line"/>
      <point x="123.88235294117646" y="-123.0" type="line"/>
      <point x="203.8235294117647" y="123.76470588235294" type="line"/>
      <point x="83.88235294117646" y="123.76470588235294" type="line"/>
    </contour>
    <contour>
      <point x="77.20588235294117" y="303.55882352941177" type="line"/>
      <point x="193.6764705882353" y="303.55882352941177" type="line"/>
      <point x="193.6764705882353" y="446.79411764705884" type="line"/>
      <point x="77.20588235294117" y="446.79411764705884" type="line"/>
    </contour>
  </outline>
</glyph>
<glyph name="less" format="2">
  <advance width="560.0"/>
  <unicode hex="003C"/>
  <outline>
    <contour>
      <point x="474.38235294117646" y="11.323529411764707" type="line"/>
      <point x="474.38235294117646" y="122.17647058823529" type="line"/>
      <point x="178.97058823529412" y="253.2058823529412" type="line"/>
      <point x="474.38235294117646" y="377.61764705882354" type="line"/>
      <point x="474.38235294117646" y="487.94117647058823" type="line"/>
      <point x="63.61764705882353" y="296.20588235294116" type="line"/>
      <point x="63.61764705882353" y="205.7941176470588" type="line"/>
    </contour>
  </outline>
</glyph>
<glyph name="equal" format="2">
  <advance width="560.0"/>
  <unicode hex="003D"/>
  <outline>
    <contour>
      <point x="60.64705882352941" y="301.0882352941176" type="line"/>
      <point x="499.3529411764706" y="301.0882352941176" type="line"/>
      <point x="499.3529411764706" y="399.05882352941177" type="line"/>
      <point x="60.64705882352941" y="399.05882352941177" type="line"/>
    </contour>
    <contour>
      <point x="60.64705882352941" y="103.41176470588235" type="line"/>
      <point x="499.3529411764706" y="103.41176470588235" type="line"/>
      <point x="499.3529411764706" y="201.38235294117646" type="line"/>
      <point x="60.64705882352941" y="201.38235294117646" type="line"/>
    </contour>
  </outline>
</glyph>
<glyph name="greater" format="2">
  <advance width="560.0"/>
  <unicode hex="003E"/>
  <outline>
    <contour>
      <point x="85.3529411764706" y="11.323529411764707" type="line"/>
      <point x="496.11764705882354" y="205.7941176470588" type="line"/>
      <point x="496.11764705882354" y="296.20588235294116" type="line"/>
      <point x="85.3529411764706" y="487.94117647058823" type="line"/>
      <point x="85.3529411764706" y="377.61764705882354" type="line"/>
      <point x="380.7647058823529" y="253.2058823529412" type="line"/>
      <point x="85.3529411764706" y="122.17647058823529" type="line"/>
    </contour>
  </outline>
</glyph>
<glyph name="question" format="2">
  <advance width="441.2352941176471"/>
  <unicode hex="003F"/>
  <outline>
    <contour>
      <point x="149.73529411764707" y="209.85294117647058" type="curve"/>
      <point x="237.41176470588235" y="209.85294117647058" type="line"/>
      <point x="237.41176470588235" y="242.7058823529412" type="line" smooth="yes"/>
      <point x="237.41176470588235" y="278.11764705882354"/>
      <point x="252.7941176470588" y="302.6764705882353"/>
      <point x="318.5" y="354.29411764705884" type="curve" smooth="yes"/>
      <point x="391.47058823529414" y="412.11764705882354"/>
      <point x="405.52941176470586" y="445.47058823529414"/>
      <point x="405.52941176470586" y="534.0882352941177" type="curve" smooth="yes"/>
      <point x="405.52941176470586" y="649.6176470588235"/>
      <point x="341.3529411764706" y="696.5"/>
      <point x="201.85294117647058" y="696.5" type="curve" smooth="yes"/>
      <point x="146.6764705882353" y="696.5"/>
      <point x="72.82352941176471" y="677.8235294117648"/>
      <point x="32.911764705882355" y="663.6176470588235" type="curve"/>
      <point x="39.38235294117647" y="580.3529411764706" type="line"/>
      <point x="76.61764705882354" y="588.6764705882352"/>
      <point x="142.58823529411765" y="599.5294117647059"/>
      <point x="187.88235294117646" y="599.5294117647059" type="curve" smooth="yes"/>
      <point x="265.20588235294116" y="599.5294117647059"/>
      <point x="294.05882352941177" y="573.4705882352941"/>
      <point x="294.05882352941177" y="523.0588235294117" type="curve" smooth="yes"/>
      <point x="294.05882352941177" y="477.5882352941176"/>
      <point x="281.1470588235294" y="459.4117647058824"/>
      <point x="207.94117647058823" y="399.0882352941176" type="curve" smooth="yes"/>
      <point x="155.2058823529412" y="355.02941176470586"/>
      <point x="126.67647058823529" y="323.94117647058823"/>
      <point x="126.67647058823529" y="287.61764705882354" type="curve" smooth="yes"/>
      <point x="126.67647058823529" y="253.02941176470588"/>
      <point x="140.1764705882353" y="224.58823529411765"/>
    </contour>
    <contour>
      <point x="132.76470588235293" y="0.2647058823529412" type="line"/>
      <point x="249.23529411764707" y="0.2647058823529412" type="line"/>
      <point x="249.23529411764707" y="139.8235294117647" type="line"/>
      <point x="132.76470588235293" y="139.8235294117647" type="line"/>
    </contour>
  </outline>
</glyph>
<glyph name="at" format="2">
  <advance width="974.5882352941177"/>
  <unicode hex="0040"/>
  <outline>
    <contour>
      <point x="503.2647058823529" y="-206.35294117647058" type="curve" smooth="yes"/>
      <point x="543.4117647058823" y="-206.35294117647058"/>
      <point x="610.9411764705883" y="-200.61764705882354"/>
      <point x="650.7352941176471" y="-196.61764705882354" type="curve"/>
      <point x="646.2647058823529" y="-101.85294117647058" type="line"/>
      <point x="605.2058823529412" y="-105.85294117647058"/>
      <point x="538.1470588235294" y="-111.11764705882354"/>
      <point x="503.2647058823529" y="-111.11764705882354" type="curve" smooth="yes"/>
      <point x="252.0" y="-111.11764705882354"/>
      <point x="152.14705882352942" y="-4.8235294117647065"/>
      <point x="152.14705882352942" y="261.0" type="curve" smooth="yes"/>
      <point x="152.14705882352942" y="506.47058823529414"/>
      <point x="270.38235294117646" y="631.1176470588235"/>
      <point x="503.2647058823529" y="631.1176470588235" type="curve" smooth="yes"/>
      <point x="733.7941176470588" y="631.1176470588235"/>
      <point x="830.6470588235294" y="533.2352941176471"/>
      <point x="830.6470588235294" y="306.0" type="curve" smooth="yes"/>
      <point x="830.6470588235294" y="294.61764705882354" type="line" smooth="yes"/>
      <point x="830.6470588235294" y="116.5"/>
      <point x="802.2352941176471" y="87.64705882352942"/>
      <point x="753.7647058823529" y="87.64705882352942" type="curve" smooth="yes"/>
      <point x="696.8529411764706" y="87.64705882352942"/>
      <point x="691.8529411764706" y="106.08823529411765"/>
      <point x="691.8529411764706" y="306.61764705882354" type="curve" smooth="yes"/>
      <point x="691.8529411764706" y="491.1764705882353" type="line"/>
      <point x="584.0588235294117" y="491.1764705882353" type="line"/>
      <point x="584.0588235294117" y="476.8529411764706" type="line"/>
      <point x="558.6764705882352" y="488.11764705882354"/>
      <point x="513.1764705882352" y="502.38235294117646"/>
      <point x="482.20588235294116" y="502.38235294117646" type="curve" smooth="yes"/>
      <point x="332.9117647058824" y="502.38235294117646"/>
      <point x="286.1764705882353" y="413.52941176470586"/>
      <point x="286.1764705882353" y="248.88235294117646" type="curve" smooth="yes"/>
      <point x="286.1764705882353" y="50.0"/>
      <point x="362.29411764705884" y="-2.3823529411764706"/>
      <point x="468.4117647058824" y="-2.3823529411764706" type="curve" smooth="yes"/>
      <point x="520.7941176470588" y="-2.3823529411764706"/>
      <point x="590.3529411764706" y="30.41176470588235"/>
      <point x="627.7941176470588" y="55.205882352941174" type="curve"/>
      <point x="637.9411764705883" y="30.41176470588235"/>
      <point x="679.5" y="-2.6470588235294117"/>
      <point x="753.9117647058823" y="-2.6470588235294117" type="curve" smooth="yes"/>
      <point x="870.9705882352941" y="-2.6470588235294117"/>
      <point x="938.9705882352941" y="64.44117647058823"/>
      <point x="938.9705882352941" y="294.61764705882354" type="curve" smooth="yes"/>
      <point x="938.9705882352941" y="305.0" type="line" smooth="yes"/>
      <point x="938.9705882352941" y="581.6470588235294"/>
      <point x="800.9117647058823" y="726.3529411764706"/>
      <point x="503.2647058823529" y="726.3529411764706" type="curve" smooth="yes"/>
      <point x="221.97058823529412" y="726.3529411764706"/>
      <point x="43.8235294117647" y="584.2941176470588"/>
      <point x="43.8235294117647" y="261.0" type="curve" smooth="yes"/>
      <point x="43.8235294117647" y="-100.0"/>
      <point x="207.26470588235293" y="-206.35294117647058"/>
    </contour>
    <contour>
      <point x="476.5" y="92.85294117647058" type="curve" smooth="yes"/>
      <point x="430.05882352941177" y="92.85294117647058"/>
      <point x="395.44117647058823" y="129.97058823529412"/>
      <point x="395.44117647058823" y="248.08823529411765" type="curve" smooth="yes"/>
      <point x="395.44117647058823" y="355.97058823529414"/>
      <point x="413.7352941176471" y="407.1470588235294"/>
      <point x="504.2647058823529" y="407.1470588235294" type="curve" smooth="yes"/>
      <point x="525.9411764705883" y="407.1470588235294"/>
      <point x="562.6176470588235" y="398.7647058823529"/>
      <point x="584.0588235294117" y="392.6470588235294" type="curve"/>
      <point x="584.0588235294117" y="262.5" type="line" smooth="yes"/>
      <point x="584.0588235294117" y="214.7058823529412"/>
      <point x="586.3823529411765" y="162.14705882352942"/>
      <point x="591.3823529411765" y="127.11764705882354" type="curve"/>
      <point x="561.5" y="112.14705882352942"/>
      <point x="511.79411764705884" y="92.85294117647058"/>
    </contour>
  </outline>
</glyph>
<glyph name="A" format="2">
  <advance width="599.3529411764706"/>
  <unicode hex="0041"/>
  <outline>
    <contour>
      <point x="19.91176470588235" y="0.0" type="line"/>
      <point x="130.91176470588235" y="0.0" type="line"/>
      <point x="167.97058823529412" y="147.35294117647058" type="line"/>
      <point x="431.38235294117646" y="147.35294117647058" type="line"/>
      <point x="468.44117647058823" y="0.0" type="line"/>
      <point x="579.4411764705883" y="0.0" type="line"/>
      <point x="410.02941176470586" y="685.2941176470588" type="line"/>
      <point x="189.3235294117647" y="685.2941176470588" type="line"/>
    </contour>
    <contour>
      <point x="190.0" y="244.58823529411765" type="line"/>
      <point x="274.61764705882354" y="592.4705882352941" type="line"/>
      <point x="324.7352941176471" y="592.4705882352941" type="line"/>
      <point x="409.3529411764706" y="244.58823529411765" type="line"/>
    </contour>
  </outline>
</glyph>
<glyph name="B" format="2">
  <advance width="611.9117647058823"/>
  <unicode hex="0042"/>
  <outline>
    <contour>
      <point x="78.76470588235294" y="0.0" type="line"/>
      <point x="346.5882352941176" y="0.0" type="line" smooth="yes"/>
      <point x="479.94117647058823" y="0.0"/>
      <point x="564.6764705882352" y="54.23529411764706"/>
      <point x="564.6764705882352" y="194.47058823529412" type="curve" smooth="yes"/>
      <point x="564.6764705882352" y="287.7647058823529"/>
      <point x="526.2058823529412" y="330.02941176470586"/>
      <point x="467.1470588235294" y="352.9117647058824" type="curve"/>
      <point x="521.9411764705883" y="383.47058823529414"/>
      <point x="547.9705882352941" y="424.3235294117647"/>
      <point x="547.9705882352941" y="507.1470588235294" type="curve" smooth="yes"/>
      <point x="547.9705882352941" y="633.9705882352941"/>
      <point x="474.8235294117647" y="685.2941176470588"/>
      <point x="338.61764705882354" y="685.2941176470588" type="curve" smooth="yes"/>
      <point x="78.76470588235294" y="685.2941176470588" type="line"/>
    </contour>
    <contour>
      <point x="189.76470588235293" y="95.76470588235294" type="line"/>
      <point x="189.76470588235293" y="299.0882352941176" type="line"/>
      <point x="339.3235294117647" y="299.0882352941176" type="line" smooth="yes"/>
      <point x="393.2647058823529" y="299.0882352941176"/>
      <point x="451.94117647058823" y="278.38235294117646"/>
      <point x="451.94117647058823" y="199.61764705882354" type="curve" smooth="yes"/>
      <point x="451.94117647058823" y="117.52941176470588"/>
      <point x="410.3529411764706" y="95.76470588235294"/>
      <point x="341.44117647058823" y="95.76470588235294" type="curve" smooth="yes"/>
    </contour>
    <contour>
      <point x="189.76470588235293" y="393.38235294117646" type="line"/>
      <point x="189.76470588235293" y="589.5294117647059" type="line"/>
      <point x="333.47058823529414" y="589.5294117647059" type="line" smooth="yes"/>
      <point x="401.3529411764706" y="589.5294117647059"/>
      <point x="435.2352941176471" y="560.7647058823529"/>
      <point x="435.2352941176471" y="493.9117647058824" type="curve" smooth="yes"/>
      <point x="435.2352941176471" y="427.20588235294116"/>
      <point x="405.6764705882353" y="393.38235294117646"/>
      <point x="337.11764705882354" y="393.38235294117646" type="curve" smooth="yes"/>
    </contour>
  </outline>
</glyph>
<glyph name="C" format="2">
  <advance width="543.5294117647059"/>
  <unicode hex="0043"/>
  <outline>
    <contour>
      <point x="309.38235294117646" y="-11.205882352941176" type="curve" smooth="yes"/>
      <point x="372.97058823529414" y="-11.205882352941176"/>
      <point x="456.88235294117646" y="1.0"/>
      <point x="503.94117647058823" y="11.0" type="curve"/>
      <point x="500.94117647058823" y="103.08823529411765" type="line"/>
      <point x="457.7647058823529" y="96.02941176470588"/>
      <point x="377.52941176470586" y="87.5"/>
      <point x="327.02941176470586" y="87.5" type="curve" smooth="yes"/>
      <point x="191.55882352941177" y="87.5"/>
      <point x="166.76470588235293" y="154.35294117647058"/>
      <point x="166.76470588235293" y="341.8529411764706" type="curve" smooth="yes"/>
      <point x="166.76470588235293" y="536.4411764705883"/>
      <point x="197.11764705882354" y="597.7941176470588"/>
      <point x="324.0882352941176" y="597.7941176470588" type="curve" smooth="yes"/>
      <point x="373.05882352941177" y="597.7941176470588"/>
      <point x="455.7352941176471" y="589.0"/>
      <point x="500.94117647058823" y="581.4705882352941" type="curve"/>
      <point x="504.6764705882353" y="671.6176470588235" type="line"/>
      <point x="461.61764705882354" y="681.3529411764706"/>
      <point x="380.11764705882354" y="696.5"/>
      <point x="309.38235294117646" y="696.5" type="curve" smooth="yes"/>
      <point x="104.47058823529412" y="696.5"/>
      <point x="52.294117647058826" y="589.2647058823529"/>
      <point x="52.294117647058826" y="341.8529411764706" type="curve" smooth="yes"/>
      <point x="52.294117647058826" y="108.08823529411765"/>
      <point x="100.44117647058823" y="-11.205882352941176"/>
    </contour>
  </outline>
</glyph>
<glyph name="D" format="2">
  <advance width="640.9117647058823"/>
  <unicode hex="0044"/>
  <outline>
    <contour>
      <point x="78.76470588235294" y="0.0" type="line"/>
      <point x="315.97058823529414" y="0.0" type="line" smooth="yes"/>
      <point x="541.9705882352941" y="0.0"/>
      <point x="590.4117647058823" y="137.14705882352942"/>
      <point x="590.4117647058823" y="354.3235294117647" type="curve" smooth="yes"/>
      <point x="590.4117647058823" y="567.0882352941177"/>
      <point x="536.8235294117648" y="685.2941176470588"/>
      <point x="315.97058823529414" y="685.2941176470588" type="curve" smooth="yes"/>
      <point x="78.76470588235294" y="685.2941176470588" type="line"/>
    </contour>
    <contour>
      <point x="189.76470588235293" y="97.23529411764706" type="line"/>
      <point x="189.76470588235293" y="588.0588235294117" type="line"/>
      <point x="315.97058823529414" y="588.0588235294117" type="line" smooth="yes"/>
      <point x="454.20588235294116" y="588.0588235294117"/>
      <point x="475.94117647058823" y="503.5882352941176"/>
      <point x="475.94117647058823" y="354.3235294117647" type="curve" smooth="yes"/>
      <point x="475.94117647058823" y="203.58823529411765"/>
      <point x="454.20588235294116" y="97.23529411764706"/>
      <point x="315.97058823529414" y="97.23529411764706" type="curve" smooth="yes"/>
    </contour>
  </outline>
</glyph>
<glyph name="E" format="2">
  <advance width="553.4705882352941"/>
  <unicode hex="0045"/>
  <outline>
    <contour>
      <point x="78.76470588235294" y="0.0" type="line"/>
      <point x="510.55882352941177" y="0.0" type="line"/>
      <point x="510.55882352941177" y="97.23529411764706" type="line"/>
      <point x="189.76470588235293" y="97.23529411764706" type="line"/>
      <point x="189.76470588235293" y="298.3529411764706" type="line"/>
      <point x="450.55882352941177" y="298.3529411764706" type="line"/>
      <point x="450.55882352941177" y="394.11764705882354" type="line"/>
      <point x="189.76470588235293" y="394.11764705882354" type="line"/>
      <point x="189.76470588235293" y="588.0588235294117" type="line"/>
      <point x="510.55882352941177" y="588.0588235294117" type="line"/>
      <point x="510.55882352941177" y="685.2941176470588" type="line"/>
      <point x="78.76470588235294" y="685.2941176470588" type="line"/>
    </contour>
  </outline>
</glyph>
<glyph name="F" format="2">
  <advance width="528.8823529411765"/>
  <unicode hex="0046"/>
  <outline>
    <contour>
      <point x="78.76470588235294" y="0.0" type="line"/>
      <point x="189.76470588235293" y="0.0" type="line"/>
      <point x="189.76470588235293" y="260.11764705882354" type="line"/>
      <point x="450.8235294117647" y="260.11764705882354" type="line"/>
      <point x="450.8235294117647" y="357.3529411764706" type="line"/>
      <point x="189.76470588235293" y="357.3529411764706" type="line"/>
      <point x="189.76470588235293" y="588.0588235294117" type="line"/>
      <point x="504.02941176470586" y="588.0588235294117" type="line"/>
      <point x="504.02941176470586" y="685.2941176470588" type="line"/>
      <point x="78.76470588235294" y="685.2941176470588" type="line"/>
    </contour>
  </outline>
</glyph>
<glyph name="G" format="2">
  <advance width="613.1176470588235"/>
  <unicode hex="0047"/>
  <anchor x="326.2352941176471" y="0.0" name="bottom"/>
  <outline>
    <contour>
      <point x="324.05882352941177" y="-11.205882352941176" type="curve" smooth="yes"/>
      <point x="389.3235294117647" y="-11.205882352941176"/>
      <point x="498.5" y="3.1176470588235294"/>
      <point x="552.8823529411765" y="12.323529411764707" type="curve"/>
      <point x="552.8823529411765" y="359.5" type="line"/>
      <point x="358.05882352941177" y="359.5" type="line"/>
      <point x="358.05882352941177" y="262.2647058823529" type="line"/>
      <point x="443.3529411764706" y="262.2647058823529" type="line"/>
      <point x="443.3529411764706" y="94.26470588235294" type="line"/>
      <point x="418.47058823529414" y="90.67647058823529"/>
      <point x="370.5" y="86.02941176470588"/>
      <point x="333.61764705882354" y="86.02941176470588" type="curve" smooth="yes"/>
      <point x="193.73529411764707" y="86.02941176470588"/>
      <point x="164.76470588235293" y="155.8235294117647"/>
      <point x="164.76470588235293" y="341.8529411764706" type="curve" smooth="yes"/>
      <point x="164.76470588235293" y="534.9705882352941"/>
      <point x="200.02941176470588" y="597.7941176470588"/>
      <point x="336.55882352941177" y="597.7941176470588" type="curve" smooth="yes"/>
      <point x="402.55882352941177" y="597.7941176470588"/>
      <point x="496.61764705882354" y="588.6764705882352"/>
      <point x="549.1470588235294" y="581.3529411764706" type="curve"/>
      <point x="552.8823529411765" y="669.2941176470588" type="line"/>
      <point x="498.0" y="681.0294117647059"/>
      <point x="397.38235294117646" y="696.5"/>
      <point x="320.38235294117646" y="696.5" type="curve" smooth="yes"/>
      <point x="116.20588235294117" y="696.5"/>
      <point x="50.294117647058826" y="581.9117647058823"/>
      <point x="50.294117647058826" y="341.8529411764706" type="curve" smooth="yes"/>
      <point x="50.294117647058826" y="115.44117647058823"/>
      <point x="106.29411764705883" y="-11.205882352941176"/>
    </contour>
  </outline>
</glyph>
<glyph name="H" format="2">
  <advance width="676.2058823529412"/>
  <unicode hex="0048"/>
  <outline>
    <contour>
      <point x="78.76470588235294" y="0.0" type="line"/>
      <point x="189.76470588235293" y="0.0" type="line"/>
      <point x="189.76470588235293" y="295.7647058823529" type="line"/>
      <point x="486.44117647058823" y="295.7647058823529" type="line"/>
      <point x="486.44117647058823" y="0.0" type="line"/>
      <point x="597.4411764705883" y="0.0" type="line"/>
      <point x="597.4411764705883" y="685.2941176470588" type="line"/>
      <point x="486.44117647058823" y="685.2941176470588" type="line"/>
      <point x="486.44117647058823" y="393.0" type="line"/>
      <point x="189.76470588235293" y="393.0" type="line"/>
      <point x="189.76470588235293" y="685.2941176470588" type="line"/>
      <point x="78.76470588235294" y="685.2941176470588" type="line"/>
    </contour>
  </outline>
</glyph>
<glyph name="I" format="2">
  <advance width="268.52941176470586"/>
  <unicode hex="0049"/>
  <outline>
    <contour>
      <point x="78.76470588235294" y="0.0" type="line"/>
      <point x="189.76470588235293" y="0.0" type="line"/>
      <point x="189.76470588235293" y="685.2941176470588" type="line"/>
      <point x="78.76470588235294" y="685.2941176470588" type="line"/>
    </contour>
  </outline>
</glyph>
<glyph name="J" format="2">
  <advance width="296.1764705882353"/>
  <unicode hex="004A"/>
  <outline>
    <contour>
      <point x="18.735294117647058" y="-70.79411764705883" type="line"/>
      <point x="160.7941176470588" y="-70.79411764705883"/>
      <point x="221.88235294117646" y="-44.0"/>
      <point x="221.88235294117646" y="106.0" type="curve"/>
      <point x="221.14705882352942" y="685.2941176470588" type="line"/>
      <point x="110.88235294117646" y="685.2941176470588" type="line"/>
      <point x="110.88235294117646" y="114.38235294117646" type="line" smooth="yes"/>
      <point x="110.88235294117646" y="37.26470588235294"/>
      <point x="86.47058823529412" y="26.441176470588236"/>
      <point x="18.735294117647058" y="26.441176470588236" type="curve"/>
    </contour>
  </outline>
</glyph>
<glyph name="K" format="2">
  <advance width="582.4117647058823"/>
  <unicode hex="004B"/>
  <anchor x="298.0882352941176" y="0.0" name="bottom"/>
  <outline>
    <contour>
      <point x="78.76470588235294" y="0.0" type="line"/>
      <point x="189.76470588235293" y="0.0" type="line"/>
      <point x="189.76470588235293" y="279.0" type="line"/>
      <point x="292.0882352941176" y="286.3529411764706" type="line"/>
      <point x="437.05882352941177" y="0.0" type="line"/>
      <point x="566.1470588235294" y="0.0" type="line"/>
      <point x="389.0" y="341.38235294117646" type="line"/>
      <point x="558.9705882352941" y="685.2941176470588" type="line"/>
      <point x="432.1470588235294" y="685.2941176470588" type="line"/>
      <point x="291.55882352941177" y="383.5882352941176" type="line"/>
      <point x="189.76470588235293" y="376.2352941176471" type="line"/>
      <point x="189.76470588235293" y="685.2941176470588" type="line"/>
      <point x="78.76470588235294" y="685.2941176470588" type="line"/>
    </contour>
  </outline>
</glyph>
<glyph name="L" format="2">
  <advance width="474.9117647058824"/>
  <unicode hex="004C"/>
  <anchor x="264.02941176470586" y="0.0" name="bottom"/>
  <outline>
    <contour>
      <point x="78.76470588235294" y="0.0" type="line"/>
      <point x="463.11764705882354" y="0.0" type="line"/>
      <point x="463.11764705882354" y="98.70588235294117" type="line"/>
      <point x="189.76470588235293" y="98.70588235294117" type="line"/>
      <point x="189.76470588235293" y="685.2941176470588" type="line"/>
      <point x="78.76470588235294" y="685.2941176470588" type="line"/>
    </contour>
  </outline>
</glyph>
<glyph name="M" format="2">
  <advance width="850.0588235294117"/>
  <unicode hex="004D"/>
  <outline>
    <contour>
      <point x="78.76470588235294" y="0.0" type="line"/>
      <point x="189.76470588235293" y="0.0" type="line"/>
      <point x="189.76470588235293" y="563.0588235294117" type="line"/>
      <point x="204.5" y="563.0588235294117" type="line"/>
      <point x="367.4117647058824" y="27.61764705882353" type="line"/>
      <point x="482.6470588235294" y="27.61764705882353" type="line"/>
      <point x="645.5588235294117" y="563.0588235294117" type="line"/>
      <point x="660.2941176470588" y="563.0588235294117" type="line"/>
      <point x="660.2941176470588" y="0.0" type="line"/>
      <point x="771.2941176470588" y="0.0" type="line"/>
      <point x="771.2941176470588" y="685.2941176470588" type="line"/>
      <point x="578.3823529411765" y="685.2941176470588" type="line"/>
      <point x="425.02941176470586" y="149.85294117647058" type="line"/>
      <point x="271.6764705882353" y="685.2941176470588" type="line"/>
      <point x="78.76470588235294" y="685.2941176470588" type="line"/>
    </contour>
  </outline>
</glyph>
<glyph name="N" format="2">
  <advance width="685.5882352941177"/>
  <unicode hex="004E"/>
  <anchor x="353.7352941176471" y="0.0" name="bottom"/>
  <outline>
    <contour>
      <point x="78.76470588235294" y="0.0" type="line"/>
      <point x="189.76470588235293" y="0.0" type="line"/>
      <point x="189.76470588235293" y="588.0588235294117" type="line"/>
      <point x="204.0" y="588.0588235294117" type="line"/>
      <point x="417.4117647058824" y="0.0" type="line"/>
      <point x="606.8235294117648" y="0.0" type="line"/>
      <point x="606.8235294117648" y="685.2941176470588" type="line"/>
      <point x="495.8235294117647" y="685.2941176470588" type="line"/>
      <point x="495.8235294117647" y="97.23529411764706" type="line"/>
      <point x="481.3235294117647" y="97.23529411764706" type="line"/>
      <point x="272.5882352941176" y="685.2941176470588" type="line"/>
      <point x="78.76470588235294" y="685.2941176470588" type="line"/>
    </contour>
  </outline>
</glyph>
<glyph name="O" format="2">
  <advance width="655.7058823529412"/>
  <unicode hex="004F"/>
  <outline>
    <contour>
      <point x="327.8529411764706" y="-11.205882352941176" type="curve" smooth="yes"/>
      <point x="542.1176470588235" y="-11.205882352941176"/>
      <point x="606.1470588235294" y="105.73529411764706"/>
      <point x="606.1470588235294" y="338.9117647058824" type="curve" smooth="yes"/>
      <point x="606.1470588235294" y="568.9117647058823"/>
      <point x="541.8529411764706" y="696.5"/>
      <point x="327.8529411764706" y="696.5" type="curve" smooth="yes"/>
      <point x="113.8529411764706" y="696.5"/>
      <point x="49.55882352941177" y="568.3823529411765"/>
      <point x="49.55882352941177" y="338.9117647058824" type="curve" smooth="yes"/>
      <point x="49.55882352941177" y="108.38235294117646"/>
      <point x="113.32352941176471" y="-11.205882352941176"/>
    </contour>
    <contour>
      <point x="327.8529411764706" y="86.02941176470588" type="curve" smooth="yes"/>
      <point x="194.41176470588235" y="86.02941176470588"/>
      <point x="164.02941176470588" y="167.88235294117646"/>
      <point x="164.02941176470588" y="338.9117647058824" type="curve" smooth="yes"/>
      <point x="164.02941176470588" y="509.6764705882353"/>
      <point x="195.2058823529412" y="599.2647058823529"/>
      <point x="327.8529411764706" y="599.2647058823529" type="curve" smooth="yes"/>
      <point x="459.97058823529414" y="599.2647058823529"/>
      <point x="491.6764705882353" y="509.1470588235294"/>
      <point x="491.6764705882353" y="338.9117647058824" type="curve" smooth="yes"/>
      <point x="491.6764705882353" y="165.23529411764707"/>
      <point x="461.29411764705884" y="86.02941176470588"/>
    </contour>
  </outline>
</glyph>
<glyph name="P" format="2">
  <advance width="590.5882352941177"/>
  <unicode hex="0050"/>
  <outline>
    <contour>
      <point x="78.76470588235294" y="0.0" type="line"/>
      <point x="189.76470588235293" y="0.0" type="line"/>
      <point x="189.76470588235293" y="213.61764705882354" type="line"/>
      <point x="330.0882352941176" y="213.61764705882354" type="line" smooth="yes"/>
      <point x="486.11764705882354" y="213.61764705882354"/>
      <point x="562.8235294117648" y="300.29411764705884"/>
      <point x="562.8235294117648" y="454.8529411764706" type="curve" smooth="yes"/>
      <point x="562.8235294117648" y="609.4117647058823"/>
      <point x="486.11764705882354" y="685.2941176470588"/>
      <point x="330.0882352941176" y="685.2941176470588" type="curve" smooth="yes"/>
      <point x="78.76470588235294" y="685.2941176470588" type="line"/>
    </contour>
    <contour>
      <point x="189.76470588235293" y="309.38235294117646" type="line"/>
      <point x="189.76470588235293" y="589.5294117647059" type="line"/>
      <point x="329.3529411764706" y="589.5294117647059" type="line" smooth="yes"/>
      <point x="412.11764705882354" y="589.5294117647059"/>
      <point x="449.8235294117647" y="549.3823529411765"/>
      <point x="449.8235294117647" y="454.8529411764706" type="curve" smooth="yes"/>
      <point x="449.8235294117647" y="359.5882352941176"/>
      <point x="412.11764705882354" y="309.38235294117646"/>
      <point x="329.3529411764706" y="309.38235294117646" type="curve" smooth="yes"/>
    </contour>
  </outline>
</glyph>
<glyph name="Q" format="2">
  <advance width="655.7058823529412"/>
  <unicode hex="0051"/>
  <outline>
    <contour>
      <point x="478.52941176470586" y="-151.23529411764707" type="line"/>
      <point x="580.7058823529412" y="-103.3529411764706" type="line"/>
      <point x="496.9117647058824" y="32.23529411764706" type="line"/>
      <point x="576.9411764705883" y="85.38235294117646"/>
      <point x="606.1470588235294" y="184.2941176470588"/>
      <point x="606.1470588235294" y="338.9117647058824" type="curve" smooth="yes"/>
      <point x="606.1470588235294" y="568.9117647058823"/>
      <point x="541.8529411764706" y="696.5"/>
      <point x="327.8529411764706" y="696.5" type="curve" smooth="yes"/>
      <point x="113.8529411764706" y="696.5"/>
      <point x="49.55882352941177" y="568.3823529411765"/>
      <point x="49.55882352941177" y="338.9117647058824" type="curve" smooth="yes"/>
      <point x="49.55882352941177" y="106.91176470588235"/>
      <point x="113.32352941176471" y="-11.205882352941176"/>
      <point x="327.8529411764706" y="-11.205882352941176" type="curve" smooth="yes"/>
      <point x="350.2647058823529" y="-11.205882352941176"/>
      <point x="375.97058823529414" y="-9.147058823529411"/>
      <point x="389.3235294117647" y="-5.294117647058823" type="curve"/>
    </contour>
    <contour>
      <point x="327.8529411764706" y="86.02941176470588" type="curve" smooth="yes"/>
      <point x="194.41176470588235" y="86.02941176470588"/>
      <point x="164.02941176470588" y="166.41176470588235"/>
      <point x="164.02941176470588" y="338.9117647058824" type="curve" smooth="yes"/>
      <point x="164.02941176470588" y="509.6764705882353"/>
      <point x="195.2058823529412" y="599.2647058823529"/>
      <point x="327.8529411764706" y="599.2647058823529" type="curve" smooth="yes"/>
      <point x="459.97058823529414" y="599.2647058823529"/>
      <point x="491.6764705882353" y="509.1470588235294"/>
      <point x="491.6764705882353" y="338.9117647058824" type="curve" smooth="yes"/>
      <point x="491.6764705882353" y="163.76470588235293"/>
      <point x="461.29411764705884" y="86.02941176470588"/>
    </contour>
  </outline>
</glyph>
<glyph name="R" format="2">
  <advance width="618.1470588235294"/>
  <unicode hex="0052"/>
  <anchor x="314.5882352941176" y="0.0" name="bottom"/>
  <outline>
    <contour>
      <point x="78.76470588235294" y="0.0" type="line"/>
      <point x="189.76470588235293" y="0.0" type="line"/>
      <point x="189.76470588235293" y="244.41176470588235" type="line"/>
      <point x="350.8235294117647" y="244.41176470588235" type="line"/>
      <point x="450.20588235294116" y="0.0" type="line"/>
      <point x="572.0882352941177" y="0.0" type="line"/>
      <point x="458.94117647058823" y="269.2647058823529" type="line"/>
      <point x="532.0588235294117" y="303.2352941176471"/>
      <point x="570.8529411764706" y="369.94117647058823"/>
      <point x="570.8529411764706" y="467.6470588235294" type="curve" smooth="yes"/>
      <point x="570.8529411764706" y="618.6764705882352"/>
      <point x="490.0882352941176" y="685.2941176470588"/>
      <point x="339.3235294117647" y="685.2941176470588" type="curve" smooth="yes"/>
      <point x="78.76470588235294" y="685.2941176470588" type="line"/>
    </contour>
    <contour>
      <point x="189.76470588235293" y="340.1764705882353" type="line"/>
      <point x="189.76470588235293" y="589.5294117647059" type="line"/>
      <point x="339.3235294117647" y="589.5294117647059" type="line" smooth="yes"/>
      <point x="418.8235294117647" y="589.5294117647059"/>
      <point x="457.11764705882354" y="544.6764705882352"/>
      <point x="457.11764705882354" y="466.1764705882353" type="curve" smooth="yes"/>
      <point x="457.11764705882354" y="394.52941176470586"/>
      <point x="425.1470588235294" y="340.1764705882353"/>
      <point x="340.79411764705884" y="340.1764705882353" type="curve" smooth="yes"/>
    </contour>
  </outline>
</glyph>
<glyph name="S" format="2">
  <advance width="542.9411764705883"/>
  <unicode hex="0053"/>
  <anchor x="273.97058823529414" y="0.0" name="bottom"/>
  <outline>
    <contour>
      <point x="272.52941176470586" y="-10.676470588235293" type="curve" smooth="yes"/>
      <point x="407.5882352941176" y="-10.676470588235293"/>
      <point x="501.44117647058823" y="54.35294117647059"/>
      <point x="501.44117647058823" y="204.47058823529412" type="curve" smooth="yes"/>
      <point x="501.44117647058823" y="320.9117647058824"/>
      <point x="449.29411764705884" y="359.0"/>
      <point x="306.2647058823529" y="399.11764705882354" type="curve" smooth="yes"/>
      <point x="189.08823529411765" y="430.88235294117646"/>
      <point x="152.8235294117647" y="445.88235294117646"/>
      <point x="152.8235294117647" y="509.79411764705884" type="curve" smooth="yes"/>
      <point x="152.8235294117647" y="569.3529411764706"/>
      <point x="195.5" y="599.7941176470588"/>
      <point x="280.0882352941176" y="599.7941176470588" type="curve" smooth="yes"/>
      <point x="322.0882352941176" y="599.7941176470588"/>
      <point x="417.55882352941177" y="590.5294117647059"/>
      <point x="478.02941176470586" y="583.5294117647059" type="curve"/>
      <point x="487.1764705882353" y="672.9411764705883" type="line"/>
      <point x="431.5" y="683.6176470588235"/>
      <point x="333.1470588235294" y="697.0294117647059"/>
      <point x="269.79411764705884" y="697.0294117647059" type="curve" smooth="yes"/>
      <point x="133.11764705882354" y="697.0294117647059"/>
      <point x="42.029411764705884" y="639.7352941176471"/>
      <point x="42.029411764705884" y="501.9117647058824" type="curve" smooth="yes"/>
      <point x="42.029411764705884" y="382.8529411764706"/>
      <point x="105.8529411764706" y="338.52941176470586"/>
      <point x="254.61764705882354" y="300.61764705882354" type="curve" smooth="yes"/>
      <point x="359.2352941176471" y="275.0"/>
      <point x="390.6470588235294" y="254.94117647058823"/>
      <point x="390.6470588235294" y="197.05882352941177" type="curve" smooth="yes"/>
      <point x="390.6470588235294" y="125.0"/>
      <point x="350.97058823529414" y="86.55882352941177"/>
      <point x="266.38235294117646" y="86.55882352941177" type="curve" smooth="yes"/>
      <point x="214.38235294117646" y="86.55882352941177"/>
      <point x="118.58823529411765" y="96.55882352941177"/>
      <point x="60.3235294117647" y="104.29411764705883" type="curve"/>
      <point x="48.970588235294116" y="16.352941176470587" type="line"/>
      <point x="107.5" y="4.9411764705882355"/>
      <point x="207.97058823529412" y="-10.676470588235293"/>
    </contour>
  </outline>
</glyph>
<glyph name="T" format="2">
  <advance width="526.0"/>
  <unicode hex="0054"/>
  <anchor x="264.0" y="0.0" name="bottom"/>
  <outline>
    <contour>
      <point x="208.5" y="0.0" type="line"/>
      <point x="319.5" y="0.0" type="line"/>
      <point x="319.5" y="586.5882352941177" type="line"/>
      <point x="513.0" y="586.5882352941177" type="line"/>
      <point x="513.0" y="685.2941176470588" type="line"/>
      <point x="13.0" y="685.2941176470588" type="line"/>
      <point x="13.0" y="586.5882352941177" type="line"/>
      <point x="208.5" y="586.5882352941177" type="line"/>
    </contour>
  </outline>
</glyph>
<glyph name="U" format="2">
  <advance width="649.7647058823529"/>
  <unicode hex="0055"/>
  <outline>
    <contour>
      <point x="323.55882352941177" y="-11.205882352941176" type="curve" smooth="yes"/>
      <point x="488.2647058823529" y="-11.205882352941176"/>
      <point x="576.4705882352941" y="56.294117647058826"/>
      <point x="576.4705882352941" y="221.0" type="curve" smooth="yes"/>
      <point x="576.4705882352941" y="685.2941176470588" type="line"/>
      <point x="465.47058823529414" y="685.2941176470588" type="line"/>
      <point x="465.47058823529414" y="218.7941176470588" type="line" smooth="yes"/>
      <point x="465.47058823529414" y="126.35294117647058"/>
      <point x="416.47058823529414" y="86.02941176470588"/>
      <point x="323.55882352941177" y="86.02941176470588" type="curve" smooth="yes"/>
      <point x="233.02941176470588" y="86.02941176470588"/>
      <point x="184.2941176470588" y="125.88235294117646"/>
      <point x="184.2941176470588" y="218.7941176470588" type="curve" smooth="yes"/>
      <point x="184.2941176470588" y="685.2941176470588" type="line"/>
      <point x="73.29411764705883" y="685.2941176470588" type="line"/>
      <point x="73.29411764705883" y="221.0" type="line" smooth="yes"/>
      <point x="73.29411764705883" y="56.029411764705884"/>
      <point x="161.5" y="-11.205882352941176"/>
    </contour>
  </outline>
</glyph>
<glyph name="V" format="2">
  <advance width="593.7352941176471"/>
  <unicode hex="0056"/>
  <outline>
    <contour>
      <point x="187.76470588235293" y="0.0" type="line"/>
      <point x="405.97058823529414" y="0.0" type="line"/>
      <point x="574.0294117647059" y="685.2941176470588" type="line"/>
      <point x="457.88235294117646" y="685.2941176470588" type="line"/>
      <point x="321.88235294117646" y="97.23529411764706" type="line"/>
      <point x="271.8529411764706" y="97.23529411764706" type="line"/>
      <point x="135.85294117647058" y="685.2941176470588" type="line"/>
      <point x="19.705882352941178" y="685.2941176470588" type="line"/>
    </contour>
  </outline>
</glyph>
<glyph name="W" format="2">
  <advance width="910.4117647058823"/>
  <unicode hex="0057"/>
  <outline>
    <contour>
      <point x="158.52941176470588" y="0.0" type="line"/>
      <point x="337.61764705882354" y="0.0" type="line"/>
      <point x="465.0882352941176" y="597.9117647058823" type="line"/>
      <point x="445.3235294117647" y="597.9117647058823" type="line"/>
      <point x="572.7941176470588" y="0.0" type="line"/>
      <point x="751.8823529411765" y="0.0" type="line"/>
      <point x="886.3823529411765" y="685.2941176470588" type="line"/>
      <point x="770.2352941176471" y="685.2941176470588" type="line"/>
      <point x="671.4117647058823" y="95.76470588235294" type="line"/>
      <point x="650.0588235294117" y="95.76470588235294" type="line"/>
      <point x="519.8529411764706" y="682.6470588235294" type="line"/>
      <point x="390.55882352941177" y="682.6470588235294" type="line"/>
      <point x="260.3529411764706" y="95.76470588235294" type="line"/>
      <point x="239.0" y="95.76470588235294" type="line"/>
      <point x="140.1764705882353" y="685.2941176470588" type="line"/>
      <point x="24.029411764705884" y="685.2941176470588" type="line"/>
    </contour>
  </outline>
</glyph>
<glyph name="X" format="2">
  <advance width="564.2352941176471"/>
  <unicode hex="0058"/>
  <outline>
    <contour>
      <point x="13.235294117647058" y="0.0" type="line"/>
      <point x="129.76470588235293" y="0.0" type="line"/>
      <point x="279.94117647058823" y="258.02941176470586" type="line"/>
      <point x="427.11764705882354" y="0.0" type="line"/>
      <point x="551.0" y="0.0" type="line"/>
      <point x="347.8529411764706" y="336.70588235294116" type="line"/>
      <point x="551.0" y="685.2941176470588" type="line"/>
      <point x="434.47058823529414" y="685.2941176470588" type="line"/>
      <point x="284.8235294117647" y="415.1764705882353" type="line"/>
      <point x="137.11764705882354" y="685.2941176470588" type="line"/>
      <point x="13.235294117647058" y="685.2941176470588" type="line"/>
      <point x="217.1764705882353" y="331.55882352941177" type="line"/>
    </contour>
  </outline>
</glyph>
<glyph name="Y" format="2">
  <advance width="548.7941176470588"/>
  <unicode hex="0059"/>
  <outline>
    <contour>
      <point x="219.26470588235293" y="0.0" type="line"/>
      <point x="330.2647058823529" y="0.0" type="line"/>
      <point x="330.2647058823529" y="281.88235294117646" type="line"/>
      <point x="543.5588235294117" y="685.2941176470588" type="line"/>
      <point x="419.94117647058823" y="685.2941176470588" type="line"/>
      <point x="274.02941176470586" y="391.0" type="line"/>
      <point x="128.11764705882354" y="685.2941176470588" type="line"/>
      <point x="4.5" y="685.2941176470588" type="line"/>
      <point x="219.26470588235293" y="281.88235294117646" type="line"/>
    </contour>
  </outline>
</glyph>
<glyph name="Z" format="2">
  <advance width="533.8529411764706"/>
  <unicode hex="005A"/>
  <outline>
    <contour>
      <point x="41.794117647058826" y="-0.2647058823529412" type="line"/>
      <point x="491.79411764705884" y="-0.2647058823529412" type="line"/>
      <point x="491.79411764705884" y="96.97058823529412" type="line"/>
      <point x="173.64705882352942" y="96.97058823529412" type="line"/>
      <point x="173.64705882352942" y="116.02941176470588" type="line"/>
      <point x="491.79411764705884" y="578.5294117647059" type="line"/>
      <point x="491.79411764705884" y="685.2941176470588" type="line"/>
      <point x="41.794117647058826" y="685.2941176470588" type="line"/>
      <point x="41.794117647058826" y="588.0588235294117" type="line"/>
      <point x="359.94117647058823" y="588.0588235294117" type="line"/>
      <point x="359.94117647058823" y="568.4705882352941" type="line"/>
      <point x="41.794117647058826" y="105.5" type="line"/>
    </contour>
  </outline>
</glyph>
<glyph name="bracketleft" format="2">
  <advance width="343.3529411764706"/>
  <unicode hex="005B"/>
  <outline>
    <contour>
      <point x="72.76470588235294" y="-123.0" type="line"/>
      <point x="306.2352941176471" y="-123.0" type="line"/>
      <point x="306.2352941176471" y="-26.294117647058822" type="line"/>
      <point x="182.76470588235293" y="-26.294117647058822" type="line"/>
      <point x="182.76470588235293" y="652.2941176470588" type="line"/>
      <point x="306.2352941176471" y="652.2941176470588" type="line"/>
      <point x="306.2352941176471" y="749.0" type="line"/>
      <point x="72.76470588235294" y="749.0" type="line"/>
    </contour>
  </outline>
</glyph>
<glyph name="backslash" format="2">
  <advance width="470.7352941176471"/>
  <unicode hex="005C"/>
  <outline>
    <contour>
      <point x="344.70588235294116" y="-26.470588235294116" type="line"/>
      <point x="439.2647058823529" y="13.264705882352942" type="line"/>
      <point x="124.29411764705883" y="712.0294117647059" type="line"/>
      <point x="31.205882352941178" y="670.0882352941177" type="line"/>
    </contour>
  </outline>
</glyph>
<glyph name="bracketright" format="2">
  <advance width="343.3529411764706"/>
  <unicode hex="005D"/>
  <outline>
    <contour>
      <point x="270.5882352941176" y="-123.0" type="line"/>
      <point x="270.5882352941176" y="749.0" type="line"/>
      <point x="37.11764705882353" y="749.0" type="line"/>
      <point x="37.11764705882353" y="652.2941176470588" type="line"/>
      <point x="160.58823529411765" y="652.2941176470588" type="line"/>
      <point x="160.58823529411765" y="-26.294117647058822" type="line"/>
      <point x="37.11764705882353" y="-26.294117647058822" type="line"/>
      <point x="37.11764705882353" y="-123.0" type="line"/>
    </contour>
  </outline>
</glyph>
<glyph name="asciicircum" format="2">
  <advance width="560.0"/>
  <unicode hex="005E"/>
  <outline>
    <contour>
      <point x="37.14705882352941" y="315.6470588235294" type="line"/>
      <point x="150.6764705882353" y="315.6470588235294" type="line"/>
      <point x="275.5882352941176" y="554.8823529411765" type="line"/>
      <point x="399.94117647058823" y="315.6470588235294" type="line"/>
      <point x="513.4705882352941" y="315.6470588235294" type="line"/>
      <point x="320.79411764705884" y="660.0" type="line"/>
      <point x="227.44117647058823" y="660.0" type="line"/>
    </contour>
  </outline>
</glyph>
<glyph name="underscore" format="2">
  <advance width="625.2941176470588"/>
  <unicode hex="005F"/>
  <outline>
    <contour>
      <point x="98.6470588235294" y="-174.02941176470588" type="line"/>
      <point x="526.6470588235294" y="-174.02941176470588" type="line"/>
      <point x="526.6470588235294" y="-81.20588235294117" type="line"/>
      <point x="98.6470588235294" y="-81.20588235294117" type="line"/>
    </contour>
  </outline>
</glyph>
<glyph name="grave" format="2">
  <advance width="253.97058823529412"/>
  <unicode hex="0060"/>
  <outline>
    <contour>
      <point x="-9.852941176470587" y="654.6764705882352" type="line"/>
      <point x="233.88235294117646" y="575.9117647058823" type="line"/>
      <point x="259.9117647058824" y="647.0294117647059" type="line"/>
      <point x="23.794117647058822" y="747.4411764705883" type="line"/>
    </contour>
  </outline>
</glyph>
<glyph name="a" format="2">
  <advance width="506.7647058823529"/>
  <unicode hex="0061"/>
  <outline>
    <contour>
      <point x="182.6764705882353" y="-11.205882352941176" type="curve" smooth="yes"/>
      <point x="242.44117647058823" y="-11.205882352941176"/>
      <point x="309.79411764705884" y="10.117647058823529"/>
      <point x="344.2352941176471" y="25.91176470588235" type="curve"/>
      <point x="360.8529411764706" y="12.647058823529411"/>
      <point x="377.05882352941177" y="4.117647058823529"/>
      <point x="396.0" y="-1.4117647058823528" type="curve"/>
      <point x="418.4117647058824" y="-8.676470588235293"/>
      <point x="443.3529411764706" y="-10.941176470588236"/>
      <point x="476.6470588235294" y="-10.941176470588236" type="curve"/>
      <point x="480.11764705882354" y="71.52941176470588" type="line"/>
      <point x="451.0" y="76.0"/>
      <point x="438.2647058823529" y="87.47058823529412"/>
      <point x="436.0" y="117.20588235294117" type="curve"/>
      <point x="436.0" y="346.38235294117646" type="line" smooth="yes"/>
      <point x="436.0" y="459.6764705882353"/>
      <point x="385.8529411764706" y="511.20588235294116"/>
      <point x="263.52941176470586" y="511.20588235294116" type="curve" smooth="yes"/>
      <point x="196.7058823529412" y="511.20588235294116"/>
      <point x="109.97058823529412" y="496.05882352941177"/>
      <point x="63.44117647058823" y="485.11764705882354" type="curve"/>
      <point x="67.17647058823529" y="408.0" type="line"/>
      <point x="118.6470588235294" y="412.05882352941177"/>
      <point x="206.11764705882354" y="418.38235294117646"/>
      <point x="255.44117647058823" y="418.38235294117646" type="curve" smooth="yes"/>
      <point x="304.1764705882353" y="418.38235294117646"/>
      <point x="328.20588235294116" y="401.02941176470586"/>
      <point x="328.20588235294116" y="346.38235294117646" type="curve" smooth="yes"/>
      <point x="328.20588235294116" y="309.8235294117647" type="line"/>
      <point x="199.23529411764707" y="298.6470588235294" type="line" smooth="yes"/>
      <point x="92.41176470588235" y="290.11764705882354"/>
      <point x="34.029411764705884" y="253.61764705882354"/>
      <point x="34.029411764705884" y="148.02941176470588" type="curve" smooth="yes"/>
      <point x="34.029411764705884" y="44.411764705882355"/>
      <point x="83.76470588235294" y="-11.205882352941176"/>
    </contour>
    <contour>
      <point x="204.26470588235293" y="77.41176470588235" type="curve" smooth="yes"/>
      <point x="161.64705882352942" y="77.41176470588235"/>
      <point x="143.08823529411765" y="105.91176470588235"/>
      <point x="143.08823529411765" y="150.97058823529412" type="curve" smooth="yes"/>
      <point x="143.08823529411765" y="195.7058823529412"/>
      <point x="165.6764705882353" y="217.73529411764707"/>
      <point x="212.05882352941177" y="222.05882352941177" type="curve" smooth="yes"/>
      <point x="328.20588235294116" y="232.97058823529412" type="line"/>
      <point x="328.20588235294116" y="100.02941176470588" type="line"/>
      <point x="298.9117647058824" y="90.11764705882354"/>
      <point x="245.3235294117647" y="77.41176470588235"/>
    </contour>
  </outline>
</glyph>
<glyph name="b" format="2">
  <advance width="536.0588235294117"/>
  <unicode hex="0062"/>
  <outline>
    <contour>
      <point x="249.05882352941177" y="-11.205882352941176" type="curve" smooth="yes"/>
      <point x="427.70588235294116" y="-11.205882352941176"/>
      <point x="492.5" y="49.6764705882353"/>
      <point x="492.5" y="257.2647058823529" type="curve" smooth="yes"/>
      <point x="492.5" y="443.97058823529414"/>
      <point x="434.97058823529414" y="511.20588235294116"/>
      <point x="298.97058823529414" y="511.20588235294116" type="curve" smooth="yes"/>
      <point x="258.2352941176471" y="511.20588235294116"/>
      <point x="204.14705882352942" y="494.0882352941176"/>
      <point x="174.02941176470588" y="480.7647058823529" type="curve"/>
      <point x="174.02941176470588" y="707.9411764705883" type="line"/>
      <point x="66.23529411764706" y="707.9411764705883" type="line"/>
      <point x="66.23529411764706" y="1.4705882352941178" type="line"/>
      <point x="121.82352941176471" y="-4.0"/>
      <point x="210.08823529411765" y="-11.205882352941176"/>
    </contour>
    <contour>
      <point x="248.7941176470588" y="85.5" type="curve" smooth="yes"/>
      <point x="233.8235294117647" y="85.5"/>
      <point x="197.73529411764707" y="87.76470588235294"/>
      <point x="174.02941176470588" y="90.02941176470588" type="curve"/>
      <point x="174.02941176470588" y="394.3529411764706" type="line"/>
      <point x="199.73529411764707" y="403.2647058823529"/>
      <point x="247.2058823529412" y="414.5"/>
      <point x="285.7352941176471" y="414.5" type="curve" smooth="yes"/>
      <point x="353.3529411764706" y="414.5"/>
      <point x="382.70588235294116" y="370.70588235294116"/>
      <point x="382.70588235294116" y="257.2647058823529" type="curve" smooth="yes"/>
      <point x="382.70588235294116" y="135.23529411764707"/>
      <point x="360.6470588235294" y="85.5"/>
    </contour>
  </outline>
</glyph>
<glyph name="c" format="2">
  <advance width="441.5"/>
  <unicode hex="0063"/>
  <outline>
    <contour>
      <point x="251.02941176470588" y="-11.205882352941176" type="curve" smooth="yes"/>
      <point x="288.5882352941176" y="-11.205882352941176"/>
      <point x="359.8235294117647" y="-1.0588235294117647"/>
      <point x="403.1764705882353" y="6.617647058823529" type="curve"/>
      <point x="399.70588235294116" y="93.76470588235294" type="line"/>
      <point x="365.44117647058823" y="90.5"/>
      <point x="310.6470588235294" y="85.5"/>
      <point x="282.6470588235294" y="85.5" type="curve" smooth="yes"/>
      <point x="174.47058823529412" y="85.5"/>
      <point x="153.61764705882354" y="128.7058823529412"/>
      <point x="153.61764705882354" y="256.5882352941176" type="curve" smooth="yes"/>
      <point x="153.61764705882354" y="371.94117647058823"/>
      <point x="177.44117647058823" y="414.5"/>
      <point x="281.9117647058824" y="414.5" type="curve" smooth="yes"/>
      <point x="309.9117647058824" y="414.5"/>
      <point x="365.1764705882353" y="409.2352941176471"/>
      <point x="399.1764705882353" y="405.97058823529414" type="curve"/>
      <point x="402.6470588235294" y="492.38235294117646" type="line"/>
      <point x="361.02941176470586" y="500.05882352941177"/>
      <point x="291.52941176470586" y="511.20588235294116"/>
      <point x="253.23529411764707" y="511.20588235294116" type="curve" smooth="yes"/>
      <point x="104.23529411764706" y="511.20588235294116"/>
      <point x="43.8235294117647" y="435.70588235294116"/>
      <point x="43.8235294117647" y="256.5882352941176" type="curve" smooth="yes"/>
      <point x="43.8235294117647" y="65.1470588235294"/>
      <point x="97.26470588235294" y="-11.205882352941176"/>
    </contour>
  </outline>
</glyph>
<glyph name="d" format="2">
  <advance width="540.0"/>
  <unicode hex="0064"/>
  <outline>
    <contour>
      <point x="231.6764705882353" y="-11.205882352941176" type="curve" smooth="yes"/>
      <point x="276.3529411764706" y="-11.205882352941176"/>
      <point x="335.11764705882354" y="10.441176470588236"/>
      <point x="366.44117647058823" y="26.558823529411764" type="curve"/>
      <point x="366.44117647058823" y="0.0" type="line"/>
      <point x="473.5" y="0.0" type="line"/>
      <point x="473.5" y="707.9411764705883" type="line"/>
      <point x="365.70588235294116" y="707.9411764705883" type="line"/>
      <point x="365.70588235294116" y="497.7352941176471" type="line"/>
      <point x="336.29411764705884" y="503.20588235294116"/>
      <point x="283.6470588235294" y="511.20588235294116"/>
      <point x="251.35294117647058" y="511.20588235294116" type="curve" smooth="yes"/>
      <point x="107.94117647058823" y="511.20588235294116"/>
      <point x="43.294117647058826" y="429.44117647058823"/>
      <point x="43.294117647058826" y="249.35294117647058" type="curve" smooth="yes"/>
      <point x="43.294117647058826" y="55.61764705882353"/>
      <point x="104.23529411764706" y="-11.205882352941176"/>
    </contour>
    <contour>
      <point x="248.58823529411765" y="85.5" type="curve" smooth="yes"/>
      <point x="187.44117647058823" y="85.5"/>
      <point x="153.08823529411765" y="120.88235294117646"/>
      <point x="153.08823529411765" y="249.35294117647058" type="curve" smooth="yes"/>
      <point x="153.08823529411765" y="363.05882352941177"/>
      <point x="184.35294117647058" y="417.44117647058823"/>
      <point x="258.70588235294116" y="417.44117647058823" type="curve" smooth="yes"/>
      <point x="291.8235294117647" y="417.44117647058823"/>
      <point x="341.1764705882353" y="410.9117647058824"/>
      <point x="365.70588235294116" y="406.9117647058824" type="curve"/>
      <point x="365.70588235294116" y="110.29411764705883" type="line"/>
      <point x="340.47058823529414" y="100.05882352941177"/>
      <point x="290.2647058823529" y="85.5"/>
    </contour>
  </outline>
</glyph>
<glyph name="e" format="2">
  <advance width="507.88235294117646"/>
  <unicode hex="0065"/>
  <outline>
    <contour>
      <point x="250.41176470588235" y="-11.205882352941176" type="curve" smooth="yes"/>
      <point x="314.44117647058823" y="-11.205882352941176"/>
      <point x="403.5882352941176" y="1.8823529411764706"/>
      <point x="452.3235294117647" y="11.764705882352942" type="curve"/>
      <point x="450.3235294117647" y="93.02941176470588" type="line"/>
      <point x="405.2647058823529" y="89.02941176470588"/>
      <point x="323.7352941176471" y="84.02941176470588"/>
      <point x="266.11764705882354" y="84.02941176470588" type="curve" smooth="yes"/>
      <point x="182.47058823529412" y="84.02941176470588"/>
      <point x="152.35294117647058" y="123.73529411764706"/>
      <point x="151.61764705882354" y="204.38235294117646" type="curve"/>
      <point x="461.7647058823529" y="204.38235294117646" type="line"/>
      <point x="469.11764705882354" y="281.5" type="line"/>
      <point x="469.11764705882354" y="438.3235294117647"/>
      <point x="399.1764705882353" y="511.20588235294116"/>
      <point x="258.52941176470586" y="511.20588235294116" type="curve" smooth="yes"/>
      <point x="121.0" y="511.20588235294116"/>
      <point x="42.55882352941177" y="428.1470588235294"/>
      <point x="42.55882352941177" y="244.85294117647058" type="curve" smooth="yes"/>
      <point x="42.55882352941177" y="69.3529411764706"/>
      <point x="99.94117647058823" y="-10.941176470588236"/>
    </contour>
    <contour>
      <point x="150.88235294117646" y="287.8529411764706" type="line"/>
      <point x="151.61764705882354" y="383.97058823529414"/>
      <point x="185.0" y="421.8529411764706"/>
      <point x="258.52941176470586" y="421.8529411764706" type="curve" smooth="yes"/>
      <point x="332.38235294117646" y="421.8529411764706"/>
      <point x="362.2647058823529" y="387.9117647058824"/>
      <point x="362.2647058823529" y="287.8529411764706" type="curve"/>
    </contour>
  </outline>
</glyph>
<glyph name="f" format="2">
  <advance width="345.3529411764706"/>
  <unicode hex="0066"/>
  <outline>
    <contour>
      <point x="89.17647058823529" y="0.0" type="line"/>
      <point x="196.97058823529412" y="0.0" type="line"/>
      <point x="196.97058823529412" y="407.70588235294116" type="line"/>
      <point x="328.8235294117647" y="407.70588235294116" type="line"/>
      <point x="328.8235294117647" y="500.0" type="line"/>
      <point x="196.97058823529412" y="500.0" type="line"/>
      <point x="196.97058823529412" y="531.3235294117648" type="line" smooth="yes"/>
      <point x="196.97058823529412" y="600.5882352941177"/>
      <point x="210.6764705882353" y="622.4411764705883"/>
      <point x="256.61764705882354" y="622.4411764705883" type="curve" smooth="yes"/>
      <point x="278.8235294117647" y="622.4411764705883"/>
      <point x="315.47058823529414" y="621.4411764705883"/>
      <point x="336.8529411764706" y="620.4411764705883" type="curve"/>
      <point x="338.3235294117647" y="708.7941176470588" type="line"/>
      <point x="312.5882352941176" y="713.2058823529412"/>
      <point x="254.14705882352942" y="719.1470588235294"/>
      <point x="230.14705882352942" y="719.1470588235294" type="curve" smooth="yes"/>
      <point x="125.91176470588235" y="719.1470588235294"/>
      <point x="89.17647058823529" y="676.3235294117648"/>
      <point x="89.17647058823529" y="532.3235294117648" type="curve" smooth="yes"/>
      <point x="89.17647058823529" y="500.0" type="line"/>
      <point x="31.205882352941178" y="500.0" type="line"/>
      <point x="31.205882352941178" y="407.70588235294116" type="line"/>
      <point x="89.17647058823529" y="407.70588235294116" type="line"/>
    </contour>
  </outline>
</glyph>
<glyph name="g" format="2">
  <advance width="525.2647058823529"/>
  <unicode hex="0067"/>
  <outline>
    <contour>
      <point x="272.1764705882353" y="-232.38235294117646" type="curve" smooth="yes"/>
      <point x="406.47058823529414" y="-232.38235294117646"/>
      <point x="502.8235294117647" y="-186.38235294117646"/>
      <point x="502.8235294117647" y="-68.08823529411765" type="curve" smooth="yes"/>
      <point x="502.8235294117647" y="47.088235294117645"/>
      <point x="453.5" y="80.32352941176471"/>
      <point x="295.6764705882353" y="81.05882352941177" type="curve" smooth="yes"/>
      <point x="198.5" y="81.79411764705883"/>
      <point x="188.08823529411765" y="87.52941176470588"/>
      <point x="188.08823529411765" y="119.61764705882354" type="curve" smooth="yes"/>
      <point x="188.08823529411765" y="128.61764705882354"/>
      <point x="195.94117647058823" y="152.11764705882354"/>
      <point x="201.52941176470588" y="166.8235294117647" type="curve"/>
      <point x="211.3235294117647" y="164.8235294117647"/>
      <point x="235.76470588235293" y="162.8235294117647"/>
      <point x="245.97058823529412" y="162.8235294117647" type="curve" smooth="yes"/>
      <point x="379.2647058823529" y="162.8235294117647"/>
      <point x="449.29411764705884" y="200.14705882352942"/>
      <point x="449.29411764705884" y="335.6470588235294" type="curve" smooth="yes"/>
      <point x="449.29411764705884" y="375.2352941176471"/>
      <point x="435.7647058823529" y="401.55882352941177"/>
      <point x="422.52941176470586" y="417.94117647058823" type="curve"/>
      <point x="506.2647058823529" y="413.52941176470586" type="line"/>
      <point x="506.2647058823529" y="501.47058823529414" type="line"/>
      <point x="350.8235294117647" y="497.0" type="line"/>
      <point x="326.61764705882354" y="503.0"/>
      <point x="282.3529411764706" y="510.0"/>
      <point x="248.5" y="510.0" type="curve" smooth="yes"/>
      <point x="134.14705882352942" y="510.0"/>
      <point x="48.8235294117647" y="462.0"/>
      <point x="48.8235294117647" y="335.6470588235294" type="curve" smooth="yes"/>
      <point x="48.8235294117647" y="246.26470588235293"/>
      <point x="83.67647058823529" y="208.2058823529412"/>
      <point x="121.58823529411765" y="185.85294117647058" type="curve"/>
      <point x="105.6470588235294" y="161.05882352941177"/>
      <point x="84.97058823529412" y="122.52941176470588"/>
      <point x="84.97058823529412" y="106.38235294117646" type="curve" smooth="yes"/>
      <point x="84.97058823529412" y="75.38235294117646"/>
      <point x="97.58823529411765" y="46.970588235294116"/>
      <point x="118.0" y="33.294117647058826" type="curve"/>
      <point x="66.94117647058823" y="-5.705882352941177"/>
      <point x="42.55882352941177" y="-36.794117647058826"/>
      <point x="42.55882352941177" y="-88.08823529411765" type="curve" smooth="yes"/>
      <point x="42.55882352941177" y="-201.6764705882353"/>
      <point x="120.88235294117646" y="-232.38235294117646"/>
    </contour>
    <contour>
      <point x="273.1764705882353" y="-143.02941176470588" type="curve" smooth="yes"/>
      <point x="181.5" y="-143.02941176470588"/>
      <point x="149.14705882352942" y="-124.0"/>
      <point x="149.14705882352942" y="-77.52941176470588" type="curve" smooth="yes"/>
      <point x="149.14705882352942" y="-46.44117647058823"/>
      <point x="161.0" y="-29.852941176470587"/>
      <point x="188.85294117647058" y="-6.76470588235294" type="curve"/>
      <point x="209.23529411764707" y="-8.970588235294118"/>
      <point x="265.20588235294116" y="-12.705882352941176"/>
      <point x="287.05882352941177" y="-12.705882352941176" type="curve" smooth="yes"/>
      <point x="368.20588235294116" y="-13.441176470588236"/>
      <point x="393.7647058823529" y="-19.294117647058822"/>
      <point x="393.7647058823529" y="-73.97058823529412" type="curve" smooth="yes"/>
      <point x="393.7647058823529" y="-123.20588235294117"/>
      <point x="353.79411764705884" y="-143.02941176470588"/>
    </contour>
    <contour>
      <point x="248.97058823529412" y="246.2941176470588" type="curve" smooth="yes"/>
      <point x="184.38235294117646" y="246.2941176470588"/>
      <point x="156.88235294117646" y="274.61764705882354"/>
      <point x="156.88235294117646" y="335.6470588235294" type="curve" smooth="yes"/>
      <point x="156.88235294117646" y="396.6764705882353"/>
      <point x="184.38235294117646" y="425.05882352941177"/>
      <point x="248.97058823529412" y="425.05882352941177" type="curve" smooth="yes"/>
      <point x="316.47058823529414" y="425.05882352941177"/>
      <point x="342.44117647058823" y="396.6764705882353"/>
      <point x="342.44117647058823" y="335.6470588235294" type="curve" smooth="yes"/>
      <point x="342.44117647058823" y="274.61764705882354"/>
      <point x="316.47058823529414" y="246.2941176470588"/>
    </contour>
  </outline>
</glyph>
<glyph name="h" format="2">
  <advance width="545.8529411764706"/>
  <unicode hex="0068"/>
  <outline>
    <contour>
      <point x="66.5" y="0.0" type="line"/>
      <point x="174.2941176470588" y="0.0" type="line"/>
      <point x="174.2941176470588" y="392.1470588235294" type="line"/>
      <point x="198.7941176470588" y="401.79411764705884"/>
      <point x="246.52941176470588" y="414.5"/>
      <point x="287.2647058823529" y="414.5" type="curve" smooth="yes"/>
      <point x="364.44117647058823" y="414.5"/>
      <point x="376.55882352941177" y="365.5"/>
      <point x="376.55882352941177" y="265.3529411764706" type="curve" smooth="yes"/>
      <point x="376.55882352941177" y="0.0" type="line"/>
      <point x="484.3529411764706" y="0.0" type="line"/>
      <point x="484.3529411764706" y="268.0882352941176" type="line" smooth="yes"/>
      <point x="484.3529411764706" y="431.94117647058823"/>
      <point x="450.47058823529414" y="511.20588235294116"/>
      <point x="311.52941176470586" y="511.20588235294116" type="curve" smooth="yes"/>
      <point x="265.44117647058823" y="511.20588235294116"/>
      <point x="206.41176470588235" y="489.94117647058823"/>
      <point x="174.2941176470588" y="474.4117647058824" type="curve"/>
      <point x="174.2941176470588" y="707.9411764705883" type="line"/>
      <point x="66.5" y="707.9411764705883" type="line"/>
    </contour>
  </outline>
</glyph>
<glyph name="k" format="2">
  <advance width="499.11764705882354"/>
  <unicode hex="006B"/>
  <anchor x="252.41176470588235" y="0.0" name="bottom"/>
  <outline>
    <contour>
      <point x="66.5" y="0.0" type="line"/>
      <point x="174.2941176470588" y="0.0" type="line"/>
      <point x="174.2941176470588" y="204.7941176470588" type="line"/>
      <point x="240.14705882352942" y="211.41176470588235" type="line"/>
      <point x="362.05882352941177" y="0.0" type="line"/>
      <point x="484.20588235294116" y="0.0" type="line"/>
      <point x="332.6470588235294" y="265.9117647058824" type="line"/>
      <point x="476.94117647058823" y="500.0" type="line"/>
      <point x="355.52941176470586" y="500.0" type="line"/>
      <point x="237.2058823529412" y="305.1764705882353" type="line"/>
      <point x="174.2941176470588" y="298.55882352941177" type="line"/>
      <point x="174.2941176470588" y="707.9411764705883" type="line"/>
      <point x="66.5" y="707.9411764705883" type="line"/>
    </contour>
  </outline>
</glyph>
<glyph name="l" format="2">
  <advance width="252.7941176470588"/>
  <unicode hex="006C"/>
  <anchor x="126.52941176470588" y="0.0" name="bottom"/>
  <outline>
    <contour>
      <point x="72.5" y="0.0" type="line"/>
      <point x="180.2941176470588" y="0.0" type="line"/>
      <point x="180.2941176470588" y="707.9411764705883" type="line"/>
      <point x="72.5" y="707.9411764705883" type="line"/>
    </contour>
  </outline>
</glyph>
<glyph name="m" format="2">
  <advance width="837.6764705882352"/>
  <unicode hex="006D"/>
  <outline>
    <contour>
      <point x="66.5" y="0.0" type="line"/>
      <point x="174.2941176470588" y="0.0" type="line"/>
      <point x="174.2941176470588" y="388.02941176470586" type="line"/>
      <point x="196.73529411764707" y="399.7352941176471"/>
      <point x="242.41176470588235" y="414.5"/>
      <point x="283.1470588235294" y="414.5" type="curve" smooth="yes"/>
      <point x="358.11764705882354" y="414.5"/>
      <point x="368.7647058823529" y="368.44117647058823"/>
      <point x="368.7647058823529" y="257.2647058823529" type="curve" smooth="yes"/>
      <point x="368.7647058823529" y="0.0" type="line"/>
      <point x="476.55882352941177" y="0.0" type="line"/>
      <point x="476.55882352941177" y="259.2647058823529" type="line" smooth="yes"/>
      <point x="476.55882352941177" y="299.70588235294116"/>
      <point x="474.02941176470586" y="353.97058823529414"/>
      <point x="468.8529411764706" y="387.55882352941177" type="curve"/>
      <point x="494.2352941176471" y="399.0"/>
      <point x="542.6470588235294" y="414.5"/>
      <point x="582.7647058823529" y="414.5" type="curve" smooth="yes"/>
      <point x="656.2647058823529" y="414.5"/>
      <point x="668.3823529411765" y="365.5"/>
      <point x="668.3823529411765" y="264.61764705882354" type="curve" smooth="yes"/>
      <point x="668.3823529411765" y="0.0" type="line"/>
      <point x="776.1764705882352" y="0.0" type="line"/>
      <point x="776.1764705882352" y="268.0882352941176" type="line" smooth="yes"/>
      <point x="776.1764705882352" y="437.8235294117647"/>
      <point x="739.3529411764706" y="511.20588235294116"/>
      <point x="603.3529411764706" y="511.20588235294116" type="curve" smooth="yes"/>
      <point x="543.8529411764706" y="511.20588235294116"/>
      <point x="470.3235294117647" y="483.1470588235294"/>
      <point x="431.11764705882354" y="462.3529411764706" type="curve"/>
      <point x="402.70588235294116" y="495.94117647058823"/>
      <point x="364.5" y="511.20588235294116"/>
      <point x="303.7352941176471" y="511.20588235294116" type="curve" smooth="yes"/>
      <point x="260.5882352941176" y="511.20588235294116"/>
      <point x="204.61764705882354" y="486.88235294117646"/>
      <point x="173.55882352941177" y="468.8235294117647" type="curve"/>
      <point x="173.55882352941177" y="500.0" type="line"/>
      <point x="66.5" y="500.0" type="line"/>
    </contour>
  </outline>
</glyph>
<glyph name="n" format="2">
  <advance width="546.1176470588235"/>
  <unicode hex="006E"/>
  <anchor x="271.94117647058823" y="0.0" name="bottom"/>
  <outline>
    <contour>
      <point x="66.5" y="0.0" type="line"/>
      <point x="174.2941176470588" y="0.0" type="line"/>
      <point x="174.2941176470588" y="388.02941176470586" type="line"/>
      <point x="198.05882352941177" y="399.7352941176471"/>
      <point x="245.3235294117647" y="414.5"/>
      <point x="287.52941176470586" y="414.5" type="curve" smooth="yes"/>
      <point x="364.70588235294116" y="414.5"/>
      <point x="376.8235294117647" y="365.5"/>
      <point x="376.8235294117647" y="264.61764705882354" type="curve" smooth="yes"/>
      <point x="376.8235294117647" y="0.0" type="line"/>
      <point x="484.61764705882354" y="0.0" type="line"/>
      <point x="484.61764705882354" y="268.0882352941176" type="line" smooth="yes"/>
      <point x="484.61764705882354" y="431.94117647058823"/>
      <point x="450.7352941176471" y="511.20588235294116"/>
      <point x="311.79411764705884" y="511.20588235294116" type="curve" smooth="yes"/>
      <point x="264.2352941176471" y="511.20588235294116"/>
      <point x="204.94117647058823" y="486.88235294117646"/>
      <point x="173.55882352941177" y="468.8235294117647" type="curve"/>
      <point x="173.55882352941177" y="500.0" type="line"/>
      <point x="66.5" y="500.0" type="line"/>
    </contour>
  </outline>
</glyph>
<glyph name="o" format="2">
  <advance width="530.4117647058823"/>
  <unicode hex="006F"/>
  <outline>
    <contour>
      <point x="265.20588235294116" y="-11.205882352941176" type="curve" smooth="yes"/>
      <point x="436.8235294117647" y="-11.205882352941176"/>
      <point x="488.05882352941177" y="86.67647058823529"/>
      <point x="488.05882352941177" y="253.11764705882354" type="curve" smooth="yes"/>
      <point x="488.05882352941177" y="415.3235294117647"/>
      <point x="432.3235294117647" y="511.20588235294116"/>
      <point x="265.20588235294116" y="511.20588235294116" type="curve" smooth="yes"/>
      <point x="98.08823529411765" y="511.20588235294116"/>
      <point x="42.35294117647059" y="415.3235294117647"/>
      <point x="42.35294117647059" y="253.11764705882354" type="curve" smooth="yes"/>
      <point x="42.35294117647059" y="86.67647058823529"/>
      <point x="93.58823529411765" y="-11.205882352941176"/>
    </contour>
    <contour>
      <point x="265.20588235294116" y="81.08823529411765" type="curve" smooth="yes"/>
      <point x="171.61764705882354" y="81.08823529411765"/>
      <point x="152.14705882352942" y="136.26470588235293"/>
      <point x="152.14705882352942" y="253.11764705882354" type="curve" smooth="yes"/>
      <point x="152.14705882352942" y="368.9117647058824"/>
      <point x="176.91176470588235" y="418.9117647058824"/>
      <point x="265.20588235294116" y="418.9117647058824" type="curve" smooth="yes"/>
      <point x="353.5" y="418.9117647058824"/>
      <point x="378.2647058823529" y="368.9117647058824"/>
      <point x="378.2647058823529" y="253.11764705882354" type="curve" smooth="yes"/>
      <point x="378.2647058823529" y="136.26470588235293"/>
      <point x="358.79411764705884" y="81.08823529411765"/>
    </contour>
  </outline>
</glyph>
<glyph name="p" format="2">
  <advance width="536.5882352941177"/>
  <unicode hex="0070"/>
  <outline>
    <contour>
      <point x="66.5" y="-215.2941176470588" type="line"/>
      <point x="174.2941176470588" y="-215.2941176470588" type="line"/>
      <point x="174.2941176470588" y="-1.6176470588235294" type="line"/>
      <point x="195.08823529411765" y="-5.147058823529411"/>
      <point x="236.11764705882354" y="-11.205882352941176"/>
      <point x="270.2647058823529" y="-11.205882352941176" type="curve" smooth="yes"/>
      <point x="423.79411764705884" y="-11.205882352941176"/>
      <point x="493.29411764705884" y="49.205882352941174"/>
      <point x="493.29411764705884" y="255.05882352941177" type="curve" smooth="yes"/>
      <point x="493.29411764705884" y="436.8235294117647"/>
      <point x="432.52941176470586" y="511.20588235294116"/>
      <point x="303.1764705882353" y="511.20588235294116" type="curve" smooth="yes"/>
      <point x="259.2352941176471" y="511.20588235294116"/>
      <point x="203.41176470588235" y="487.3529411764706"/>
      <point x="173.55882352941177" y="469.02941176470586" type="curve"/>
      <point x="173.55882352941177" y="500.0" type="line"/>
      <point x="66.5" y="500.0" type="line"/>
    </contour>
    <contour>
      <point x="262.9117647058824" y="82.55882352941177" type="curve" smooth="yes"/>
      <point x="233.91176470588235" y="82.55882352941177"/>
      <point x="194.08823529411765" y="87.41176470588235"/>
      <point x="174.2941176470588" y="90.67647058823529" type="curve"/>
      <point x="174.2941176470588" y="385.7647058823529" type="line"/>
      <point x="198.7941176470588" y="398.47058823529414"/>
      <point x="245.3235294117647" y="414.5"/>
      <point x="284.05882352941177" y="414.5" type="curve" smooth="yes"/>
      <point x="345.79411764705884" y="414.5"/>
      <point x="383.5" y="371.94117647058823"/>
      <point x="383.5" y="255.05882352941177" type="curve" smooth="yes"/>
      <point x="383.5" y="132.11764705882354"/>
      <point x="355.88235294117646" y="82.55882352941177"/>
    </contour>
  </outline>
</glyph>
<glyph name="q" format="2">
  <advance width="535.3235294117648"/>
  <unicode hex="0071"/>
  <outline>
    <contour>
      <point x="361.02941176470586" y="-215.2941176470588" type="line"/>
      <point x="468.8235294117647" y="-215.2941176470588" type="line"/>
      <point x="468.8235294117647" y="499.2647058823529" type="line"/>
      <point x="414.05882352941177" y="504.7352941176471"/>
      <point x="326.1470588235294" y="511.20588235294116"/>
      <point x="286.0" y="511.20588235294116" type="curve" smooth="yes"/>
      <point x="110.0" y="511.20588235294116"/>
      <point x="43.294117647058826" y="449.52941176470586"/>
      <point x="43.294117647058826" y="242.73529411764707" type="curve" smooth="yes"/>
      <point x="43.294117647058826" y="57.35294117647059"/>
      <point x="102.73529411764706" y="-11.205882352941176"/>
      <point x="238.73529411764707" y="-11.205882352941176" type="curve" smooth="yes"/>
      <point x="279.47058823529414" y="-11.205882352941176"/>
      <point x="332.2352941176471" y="5.647058823529411"/>
      <point x="361.02941176470586" y="18.705882352941178" type="curve"/>
    </contour>
    <contour>
      <point x="251.97058823529412" y="85.5" type="curve" smooth="yes"/>
      <point x="184.35294117647058" y="85.5"/>
      <point x="151.61764705882354" y="131.14705882352942"/>
      <point x="151.61764705882354" y="242.73529411764707" type="curve" smooth="yes"/>
      <point x="151.61764705882354" y="363.97058823529414"/>
      <point x="177.05882352941177" y="417.44117647058823"/>
      <point x="286.2647058823529" y="417.44117647058823" type="curve" smooth="yes"/>
      <point x="306.38235294117646" y="417.44117647058823"/>
      <point x="340.2647058823529" y="415.1764705882353"/>
      <point x="361.02941176470586" y="412.9117647058824" type="curve"/>
      <point x="361.02941176470586" y="105.6470588235294" type="line"/>
      <point x="337.38235294117646" y="96.73529411764706"/>
      <point x="290.5" y="85.5"/>
    </contour>
  </outline>
</glyph>
<glyph name="r" format="2">
  <advance width="360.3529411764706"/>
  <unicode hex="0072"/>
  <anchor x="120.52941176470588" y="0.0" name="bottom"/>
  <outline>
    <contour>
      <point x="66.5" y="0.0" type="line"/>
      <point x="174.2941176470588" y="0.0" type="line"/>
      <point x="174.2941176470588" y="349.29411764705884" type="line"/>
      <point x="208.47058823529412" y="364.79411764705884"/>
      <point x="277.5" y="389.88235294117646"/>
      <point x="343.61764705882354" y="402.6764705882353" type="curve"/>
      <point x="343.61764705882354" y="511.47058823529414" type="line"/>
      <point x="282.0" y="499.4117647058824"/>
      <point x="210.08823529411765" y="464.2352941176471"/>
      <point x="173.55882352941177" y="440.38235294117646" type="curve"/>
      <point x="173.55882352941177" y="500.0" type="line"/>
      <point x="66.5" y="500.0" type="line"/>
    </contour>
  </outline>
</glyph>
<glyph name="s" format="2">
  <advance width="469.0882352941176"/>
  <unicode hex="0073"/>
  <anchor x="242.3235294117647" y="0.0" name="bottom"/>
  <outline>
    <contour>
      <point x="232.2941176470588" y="-11.205882352941176" type="curve" smooth="yes"/>
      <point x="355.44117647058823" y="-11.205882352941176"/>
      <point x="430.38235294117646" y="31.41176470588235"/>
      <point x="430.38235294117646" y="148.41176470588235" type="curve" smooth="yes"/>
      <point x="430.38235294117646" y="247.55882352941177"/>
      <point x="386.7352941176471" y="277.5882352941176"/>
      <point x="266.7647058823529" y="298.5882352941176" type="curve" smooth="yes"/>
      <point x="168.6764705882353" y="315.8529411764706"/>
      <point x="147.55882352941177" y="324.55882352941177"/>
      <point x="147.55882352941177" y="357.88235294117646" type="curve" smooth="yes"/>
      <point x="147.55882352941177" y="399.1764705882353"/>
      <point x="174.91176470588235" y="413.7647058823529"/>
      <point x="234.5" y="413.7647058823529" type="curve" smooth="yes"/>
      <point x="278.61764705882354" y="413.7647058823529"/>
      <point x="362.70588235294116" y="404.7647058823529"/>
      <point x="413.3235294117647" y="397.7647058823529" type="curve"/>
      <point x="415.3235294117647" y="488.11764705882354" type="line"/>
      <point x="366.2352941176471" y="497.79411764705884"/>
      <point x="280.94117647058823" y="510.47058823529414"/>
      <point x="227.14705882352942" y="510.47058823529414" type="curve" smooth="yes"/>
      <point x="128.5" y="510.47058823529414"/>
      <point x="39.970588235294116" y="468.5"/>
      <point x="39.970588235294116" y="355.1470588235294" type="curve" smooth="yes"/>
      <point x="39.970588235294116" y="249.64705882352942"/>
      <point x="95.6470588235294" y="225.5"/>
      <point x="206.02941176470588" y="207.5" type="curve" smooth="yes"/>
      <point x="305.1764705882353" y="191.7058823529412"/>
      <point x="322.79411764705884" y="180.64705882352942"/>
      <point x="322.79411764705884" y="145.41176470588235" type="curve" smooth="yes"/>
      <point x="322.79411764705884" y="100.88235294117646"/>
      <point x="294.1470588235294" y="85.5"/>
      <point x="222.2058823529412" y="85.5" type="curve" smooth="yes"/>
      <point x="185.2058823529412" y="85.5"/>
      <point x="102.58823529411765" y="94.76470588235294"/>
      <point x="51.44117647058823" y="101.76470588235294" type="curve"/>
      <point x="47.44117647058823" y="10.676470588235293" type="line"/>
      <point x="97.11764705882354" y="1.4705882352941178"/>
      <point x="181.47058823529412" y="-11.205882352941176"/>
    </contour>
  </outline>
</glyph>
<glyph name="t" format="2">
  <advance width="358.1764705882353"/>
  <unicode hex="0074"/>
  <anchor x="199.08823529411765" y="0.0" name="bottom"/>
  <outline>
    <contour>
      <point x="237.2058823529412" y="-11.470588235294118" type="curve" smooth="yes"/>
      <point x="263.20588235294116" y="-11.470588235294118"/>
      <point x="310.20588235294116" y="-3.5294117647058822"/>
      <point x="338.94117647058823" y="1.6764705882352942" type="curve"/>
      <point x="333.7352941176471" y="88.82352941176471" type="line"/>
      <point x="310.3529411764706" y="87.29411764705883"/>
      <point x="271.9117647058824" y="85.23529411764706"/>
      <point x="251.91176470588235" y="85.23529411764706" type="curve" smooth="yes"/>
      <point x="199.58823529411765" y="85.23529411764706"/>
      <point x="196.6764705882353" y="111.41176470588235"/>
      <point x="196.6764705882353" y="187.61764705882354" type="curve" smooth="yes"/>
      <point x="196.6764705882353" y="407.70588235294116" type="line"/>
      <point x="335.29411764705884" y="407.70588235294116" type="line"/>
      <point x="335.29411764705884" y="500.0" type="line"/>
      <point x="196.6764705882353" y="500.0" type="line"/>
      <point x="196.6764705882353" y="645.3529411764706" type="line"/>
      <point x="88.88235294117646" y="645.3529411764706" type="line"/>
      <point x="88.88235294117646" y="500.0" type="line"/>
      <point x="24.58823529411765" y="500.0" type="line"/>
      <point x="24.58823529411765" y="407.70588235294116" type="line"/>
      <point x="88.88235294117646" y="407.70588235294116" type="line"/>
      <point x="88.88235294117646" y="175.35294117647058" type="line" smooth="yes"/>
      <point x="88.88235294117646" y="31.352941176470587"/>
      <point x="124.1470588235294" y="-11.470588235294118"/>
    </contour>
  </outline>
</glyph>
<glyph name="u" format="2">
  <advance width="543.2058823529412"/>
  <unicode hex="0075"/>
  <outline>
    <contour>
      <point x="222.58823529411765" y="-11.205882352941176" type="curve" smooth="yes"/>
      <point x="280.38235294117646" y="-11.205882352941176"/>
      <point x="320.6764705882353" y="5.294117647058823"/>
      <point x="369.6470588235294" y="31.176470588235293" type="curve"/>
      <point x="369.6470588235294" y="0.0" type="line"/>
      <point x="476.70588235294116" y="0.0" type="line"/>
      <point x="476.70588235294116" y="500.0" type="line"/>
      <point x="368.9117647058824" y="500.0" type="line"/>
      <point x="368.9117647058824" y="111.97058823529412" type="line"/>
      <point x="344.94117647058823" y="100.26470588235294"/>
      <point x="299.6470588235294" y="85.5"/>
      <point x="254.05882352941177" y="85.5" type="curve" smooth="yes"/>
      <point x="177.0" y="85.5"/>
      <point x="169.2941176470588" y="127.73529411764706"/>
      <point x="169.2941176470588" y="237.58823529411765" type="curve" smooth="yes"/>
      <point x="169.2941176470588" y="500.0" type="line"/>
      <point x="61.5" y="500.0" type="line"/>
      <point x="61.5" y="238.52941176470588" type="line" smooth="yes"/>
      <point x="61.5" y="73.11764705882354"/>
      <point x="90.97058823529412" y="-11.205882352941176"/>
    </contour>
  </outline>
</glyph>
<glyph name="v" format="2">
  <advance width="490.5882352941176"/>
  <unicode hex="0076"/>
  <outline>
    <contour>
      <point x="148.5" y="0.0" type="line"/>
      <point x="342.0882352941176" y="0.0" type="line"/>
      <point x="471.3529411764706" y="500.0" type="line"/>
      <point x="361.55882352941177" y="500.0" type="line"/>
      <point x="261.4117647058824" y="92.29411764705883" type="line"/>
      <point x="229.1764705882353" y="92.29411764705883" type="line"/>
      <point x="133.02941176470588" y="500.0" type="line"/>
      <point x="19.235294117647058" y="500.0" type="line"/>
    </contour>
  </outline>
</glyph>
<glyph name="w" format="2">
  <advance width="767.7647058823529"/>
  <unicode hex="0077"/>
  <outline>
    <contour>
      <point x="132.76470588235293" y="0.0" type="line"/>
      <point x="305.1764705882353" y="0.0" type="line"/>
      <point x="383.88235294117646" y="343.5882352941176" type="line"/>
      <point x="462.5882352941176" y="0.0" type="line"/>
      <point x="635.0" y="0.0" type="line"/>
      <point x="740.5882352941177" y="500.0" type="line"/>
      <point x="633.7352941176471" y="500.0" type="line"/>
      <point x="555.2647058823529" y="92.29411764705883" type="line"/>
      <point x="534.7058823529412" y="92.29411764705883" type="line"/>
      <point x="439.6470588235294" y="490.0" type="line"/>
      <point x="328.11764705882354" y="490.0" type="line"/>
      <point x="233.05882352941177" y="92.29411764705883" type="line"/>
      <point x="212.5" y="92.29411764705883" type="line"/>
      <point x="134.02941176470588" y="500.0" type="line"/>
      <point x="27.176470588235293" y="500.0" type="line"/>
    </contour>
  </outline>
</glyph>
<glyph name="x" format="2">
  <advance width="464.20588235294116"/>
  <unicode hex="0078"/>
  <outline>
    <contour>
      <point x="17.705882352941178" y="0.0" type="line"/>
      <point x="133.7058823529412" y="0.0" type="line"/>
      <point x="231.97058823529412" y="171.52941176470588" type="line"/>
      <point x="330.97058823529414" y="0.0" type="line"/>
      <point x="446.97058823529414" y="0.0" type="line"/>
      <point x="297.8235294117647" y="253.6764705882353" type="line"/>
      <point x="447.2352941176471" y="500.0" type="line"/>
      <point x="331.2352941176471" y="500.0" type="line"/>
      <point x="231.97058823529412" y="327.0" type="line"/>
      <point x="133.7058823529412" y="500.0" type="line"/>
      <point x="17.705882352941178" y="500.0" type="line"/>
      <point x="163.1764705882353" y="250.73529411764707" type="line"/>
    </contour>
  </outline>
</glyph>
<glyph name="y" format="2">
  <advance width="492.3235294117647"/>
  <unicode hex="0079"/>
  <outline>
    <contour>
      <point x="177.2058823529412" y="-215.2941176470588" type="line"/>
      <point x="283.3235294117647" y="-215.2941176470588" type="line"/>
      <point x="473.3529411764706" y="500.0" type="line"/>
      <point x="366.5" y="500.0" type="line"/>
      <point x="260.4117647058824" y="92.29411764705883" type="line"/>
      <point x="232.64705882352942" y="92.29411764705883" type="line"/>
      <point x="126.82352941176471" y="500.0" type="line"/>
      <point x="19.970588235294116" y="500.0" type="line"/>
      <point x="151.44117647058823" y="0.0" type="line"/>
      <point x="236.7058823529412" y="0.0" type="line"/>
    </contour>
  </outline>
</glyph>
<glyph name="z" format="2">
  <advance width="454.2647058823529"/>
  <unicode hex="007A"/>
  <outline>
    <contour>
      <point x="41.26470588235294" y="0.0" type="line"/>
      <point x="412.2647058823529" y="0.0" type="line"/>
      <point x="412.2647058823529" y="96.70588235294117" type="line"/>
      <point x="171.55882352941177" y="96.70588235294117" type="line"/>
      <point x="412.2647058823529" y="403.29411764705884" type="line"/>
      <point x="412.2647058823529" y="500.0" type="line"/>
      <point x="41.26470588235294" y="500.0" type="line"/>
      <point x="41.26470588235294" y="403.29411764705884" type="line"/>
      <point x="282.2352941176471" y="403.29411764705884" type="line"/>
      <point x="41.26470588235294" y="96.70588235294117" type="line"/>
    </contour>
  </outline>
</glyph>
<glyph name="braceleft" format="2">
  <advance width="357.02941176470586"/>
  <unicode hex="007B"/>
  <outline>
    <contour>
      <point x="317.44117647058823" y="-131.35294117647058" type="curve"/>
      <point x="317.97058823529414" y="-39.05882352941177" type="line"/>
      <point x="242.94117647058823" y="-34.05882352941177"/>
      <point x="227.91176470588235" y="1.7647058823529402"/>
      <point x="227.91176470588235" y="54.470588235294116" type="curve" smooth="yes"/>
      <point x="227.91176470588235" y="73.32352941176471"/>
      <point x="229.91176470588235" y="96.58823529411765"/>
      <point x="231.91176470588235" y="119.11764705882354" type="curve"/>
      <point x="232.91176470588235" y="138.52941176470588"/>
      <point x="234.64705882352942" y="156.94117647058823"/>
      <point x="234.91176470588235" y="171.2058823529412" type="curve" smooth="yes"/>
      <point x="234.91176470588235" y="252.26470588235293"/>
      <point x="216.73529411764707" y="289.20588235294116"/>
      <point x="125.35294117647058" y="313.20588235294116" type="curve"/>
      <point x="216.73529411764707" y="337.20588235294116"/>
      <point x="234.1764705882353" y="367.7352941176471"/>
      <point x="234.1764705882353" y="449.8529411764706" type="curve" smooth="yes"/>
      <point x="234.1764705882353" y="463.8529411764706"/>
      <point x="232.1764705882353" y="486.3235294117647"/>
      <point x="231.1764705882353" y="508.79411764705884" type="curve"/>
      <point x="229.1764705882353" y="533.2647058823529"/>
      <point x="227.1764705882353" y="558.4705882352941"/>
      <point x="227.1764705882353" y="575.4705882352941" type="curve" smooth="yes"/>
      <point x="227.1764705882353" y="628.7058823529412"/>
      <point x="244.41176470588235" y="661.0588235294117"/>
      <point x="319.44117647058823" y="666.0588235294117" type="curve"/>
      <point x="318.9117647058824" y="758.3529411764706" type="line"/>
      <point x="176.2058823529412" y="753.3529411764706"/>
      <point x="122.32352941176471" y="709.1764705882352"/>
      <point x="122.32352941176471" y="582.8235294117648" type="curve" smooth="yes"/>
      <point x="122.32352941176471" y="562.8235294117648"/>
      <point x="124.32352941176471" y="535.8235294117648"/>
      <point x="126.32352941176471" y="510.8235294117647" type="curve" smooth="yes"/>
      <point x="127.32352941176471" y="488.8235294117647"/>
      <point x="129.3235294117647" y="468.55882352941177"/>
      <point x="129.3235294117647" y="455.55882352941177" type="curve" smooth="yes"/>
      <point x="129.3235294117647" y="404.52941176470586"/>
      <point x="96.44117647058823" y="372.94117647058823"/>
      <point x="19.441176470588236" y="354.6764705882353" type="curve"/>
      <point x="19.441176470588236" y="269.7352941176471" type="line"/>
      <point x="95.44117647058823" y="249.2058823529412"/>
      <point x="129.3235294117647" y="214.26470588235293"/>
      <point x="129.3235294117647" y="163.5" type="curve" smooth="yes"/>
      <point x="129.3235294117647" y="152.5"/>
      <point x="128.3235294117647" y="134.5"/>
      <point x="126.32352941176471" y="115.23529411764706" type="curve" smooth="yes"/>
      <point x="124.32352941176471" y="90.97058823529412"/>
      <point x="122.32352941176471" y="63.970588235294116"/>
      <point x="122.32352941176471" y="41.970588235294116" type="curve" smooth="yes"/>
      <point x="122.32352941176471" y="-77.02941176470588"/>
      <point x="174.73529411764707" y="-126.3529411764706"/>
    </contour>
  </outline>
</glyph>
<glyph name="bar" format="2">
  <advance width="251.3235294117647"/>
  <unicode hex="007C"/>
  <outline>
    <contour>
      <point x="71.76470588235294" y="-215.2941176470588" type="line"/>
      <point x="179.55882352941177" y="-215.2941176470588" type="line"/>
      <point x="179.55882352941177" y="707.9411764705883" type="line"/>
      <point x="71.76470588235294" y="707.9411764705883" type="line"/>
    </contour>
  </outline>
</glyph>
<glyph name="braceright" format="2">
  <advance width="357.02941176470586"/>
  <unicode hex="007D"/>
  <outline>
    <contour>
      <point x="39.588235294117645" y="-131.35294117647058" type="line"/>
      <point x="182.2941176470588" y="-126.3529411764706"/>
      <point x="234.7058823529412" y="-77.02941176470588"/>
      <point x="234.7058823529412" y="41.970588235294116" type="curve" smooth="yes"/>
      <point x="234.7058823529412" y="63.970588235294116"/>
      <point x="232.7058823529412" y="90.97058823529412"/>
      <point x="230.7058823529412" y="115.23529411764706" type="curve" smooth="yes"/>
      <point x="228.7058823529412" y="134.5"/>
      <point x="227.7058823529412" y="152.5"/>
      <point x="227.7058823529412" y="163.5" type="curve" smooth="yes"/>
      <point x="227.7058823529412" y="214.26470588235293"/>
      <point x="261.5882352941176" y="249.2058823529412"/>
      <point x="337.5882352941176" y="269.7352941176471" type="curve"/>
      <point x="337.5882352941176" y="354.6764705882353" type="line"/>
      <point x="260.5882352941176" y="372.94117647058823"/>
      <point x="227.7058823529412" y="404.52941176470586"/>
      <point x="227.7058823529412" y="455.55882352941177" type="curve" smooth="yes"/>
      <point x="227.7058823529412" y="468.55882352941177"/>
      <point x="229.7058823529412" y="488.8235294117647"/>
      <point x="230.7058823529412" y="510.8235294117647" type="curve" smooth="yes"/>
      <point x="232.7058823529412" y="535.8235294117648"/>
      <point x="234.7058823529412" y="562.8235294117648"/>
      <point x="234.7058823529412" y="582.8235294117648" type="curve" smooth="yes"/>
      <point x="234.7058823529412" y="709.1764705882352"/>
      <point x="180.8235294117647" y="753.3529411764706"/>
      <point x="38.11764705882353" y="758.3529411764706" type="curve"/>
      <point x="37.588235294117645" y="666.0588235294117" type="line"/>
      <point x="112.61764705882354" y="661.0588235294117"/>
      <point x="129.85294117647058" y="628.7058823529412"/>
      <point x="129.85294117647058" y="575.4705882352941" type="curve" smooth="yes"/>
      <point x="129.85294117647058" y="558.4705882352941"/>
      <point x="127.85294117647058" y="533.2647058823529"/>
      <point x="125.85294117647058" y="508.79411764705884" type="curve" smooth="yes"/>
      <point x="124.85294117647058" y="486.3235294117647"/>
      <point x="122.85294117647058" y="463.8529411764706"/>
      <point x="122.85294117647058" y="449.8529411764706" type="curve" smooth="yes"/>
      <point x="122.85294117647058" y="367.7352941176471"/>
      <point x="140.2941176470588" y="337.20588235294116"/>
      <point x="231.6764705882353" y="313.20588235294116" type="curve"/>
      <point x="140.2941176470588" y="289.20588235294116"/>
      <point x="122.11764705882354" y="252.26470588235293"/>
      <point x="122.11764705882354" y="171.2058823529412" type="curve" smooth="yes"/>
      <point x="122.38235294117646" y="156.94117647058823"/>
      <point x="124.11764705882354" y="138.52941176470588"/>
      <point x="125.11764705882354" y="119.11764705882354" type="curve" smooth="yes"/>
      <point x="127.11764705882354" y="96.58823529411765"/>
      <point x="129.11764705882354" y="73.32352941176471"/>
      <point x="129.11764705882354" y="54.470588235294116" type="curve" smooth="yes"/>
      <point x="129.11764705882354" y="1.7647058823529402"/>
      <point x="114.08823529411765" y="-34.05882352941177"/>
      <point x="39.05882352941177" y="-39.05882352941177" type="curve"/>
    </contour>
  </outline>
</glyph>
<glyph name="asciitilde" format="2">
  <advance width="560.0"/>
  <unicode hex="007E"/>
  <outline>
    <contour>
      <point x="383.20588235294116" y="181.11764705882354" type="curve" smooth="yes"/>
      <point x="425.3529411764706" y="181.11764705882354"/>
      <point x="471.88235294117646" y="210.64705882352942"/>
      <point x="495.94117647058823" y="233.1764705882353" type="curve"/>
      <point x="487.1470588235294" y="320.05882352941177" type="line"/>
      <point x="459.88235294117646" y="302.47058823529414"/>
      <point x="412.61764705882354" y="278.3529411764706"/>
      <point x="385.1470588235294" y="278.3529411764706" type="curve" smooth="yes"/>
      <point x="338.0" y="278.3529411764706"/>
      <point x="236.26470588235293" y="330.02941176470586"/>
      <point x="183.73529411764707" y="330.02941176470586" type="curve" smooth="yes"/>
      <point x="141.85294117647058" y="330.02941176470586"/>
      <point x="90.6470588235294" y="299.7647058823529"/>
      <point x="63.64705882352941" y="277.5" type="curve"/>
      <point x="73.91176470588235" y="190.35294117647058" type="line"/>
      <point x="100.44117647058823" y="208.6764705882353"/>
      <point x="148.44117647058823" y="232.7941176470588"/>
      <point x="181.05882352941177" y="232.7941176470588" type="curve" smooth="yes"/>
      <point x="216.44117647058823" y="232.7941176470588"/>
      <point x="332.88235294117646" y="181.11764705882354"/>
    </contour>
  </outline>
</glyph>
<glyph name="exclamdown" format="2">
  <advance width="248.11764705882354"/>
  <unicode hex="00A1"/>
  <outline>
    <contour>
      <point x="171.94117647058823" y="259.52941176470586" type="line"/>
      <point x="75.91176470588235" y="259.52941176470586" type="line"/>
      <point x="65.61764705882354" y="-185.2941176470588" type="line"/>
      <point x="181.5" y="-185.2941176470588" type="line"/>
    </contour>
    <contour>
      <point x="182.02941176470588" y="500.0" type="line"/>
      <point x="65.55882352941177" y="500.0" type="line"/>
      <point x="65.55882352941177" y="360.44117647058823" type="line"/>
      <point x="182.02941176470588" y="360.44117647058823" type="line"/>
    </contour>
  </outline>
</glyph>
<glyph name="sterling" format="2">
  <advance width="560.0"/>
  <unicode hex="00A3"/>
  <outline>
    <contour>
      <point x="77.11764705882354" y="0.0" type="line"/>
      <point x="407.9117647058824" y="0.0" type="line"/>
      <point x="489.1764705882353" y="18.0" type="line"/>
      <point x="471.88235294117646" y="108.82352941176471" type="line"/>
      <point x="399.44117647058823" y="92.82352941176471" type="line"/>
      <point x="262.20588235294116" y="92.82352941176471" type="line"/>
      <point x="262.20588235294116" y="333.55882352941177" type="line"/>
      <point x="422.88235294117646" y="333.55882352941177" type="line"/>
      <point x="422.88235294117646" y="425.8529411764706" type="line"/>
      <point x="262.20588235294116" y="425.8529411764706" type="line"/>
      <point x="262.20588235294116" y="477.52941176470586" type="line" smooth="yes"/>
      <point x="262.20588235294116" y="550.0588235294117"/>
      <point x="279.2647058823529" y="573.7647058823529"/>
      <point x="327.44117647058823" y="573.7647058823529" type="curve" smooth="yes"/>
      <point x="367.61764705882354" y="573.7647058823529"/>
      <point x="424.4117647058824" y="568.2352941176471"/>
      <point x="455.52941176470586" y="564.7058823529412" type="curve"/>
      <point x="458.47058823529414" y="649.6470588235294" type="line"/>
      <point x="424.20588235294116" y="658.3235294117648"/>
      <point x="362.05882352941177" y="670.4705882352941"/>
      <point x="314.20588235294116" y="670.4705882352941" type="curve" smooth="yes"/>
      <point x="208.7941176470588" y="670.4705882352941"/>
      <point x="155.88235294117646" y="636.1470588235294"/>
      <point x="155.88235294117646" y="483.0" type="curve" smooth="yes"/>
      <point x="155.88235294117646" y="425.8529411764706" type="line"/>
      <point x="90.55882352941177" y="425.8529411764706" type="line"/>
      <point x="90.55882352941177" y="333.55882352941177" type="line"/>
      <point x="155.88235294117646" y="333.55882352941177" type="line"/>
      <point x="155.88235294117646" y="92.82352941176471" type="line"/>
      <point x="77.11764705882354" y="92.82352941176471" type="line"/>
    </contour>
  </outline>
</glyph>
<glyph name="currency" format="2">
  <advance width="560.0"/>
  <unicode hex="00A4"/>
  <outline>
    <contour>
      <point x="280.0" y="62.14705882352941" type="curve" smooth="yes"/>
      <point x="384.29411764705884" y="62.88235294117647"/>
      <point x="469.8529411764706" y="147.7058823529412"/>
      <point x="469.8529411764706" y="252.0" type="curve" smooth="yes"/>
      <point x="469.8529411764706" y="356.29411764705884"/>
      <point x="384.29411764705884" y="441.8529411764706"/>
      <point x="280.0" y="441.8529411764706" type="curve" smooth="yes"/>
      <point x="175.7058823529412" y="441.8529411764706"/>
      <point x="90.1470588235294" y="356.29411764705884"/>
      <point x="90.1470588235294" y="252.0" type="curve" smooth="yes"/>
      <point x="90.1470588235294" y="147.7058823529412"/>
      <point x="175.7058823529412" y="62.88235294117647"/>
    </contour>
    <contour>
      <point x="116.97058823529412" y="14.441176470588236" type="line"/>
      <point x="222.0" y="119.73529411764706" type="line"/>
      <point x="147.73529411764707" y="194.0" type="line"/>
      <point x="42.44117647058823" y="88.97058823529412" type="line"/>
    </contour>
    <contour>
      <point x="280.0" y="153.2941176470588" type="curve" smooth="yes"/>
      <point x="226.11764705882354" y="153.2941176470588"/>
      <point x="181.2941176470588" y="198.11764705882354"/>
      <point x="181.2941176470588" y="252.0" type="curve" smooth="yes"/>
      <point x="181.2941176470588" y="305.88235294117646"/>
      <point x="226.11764705882354" y="350.70588235294116"/>
      <point x="280.0" y="350.70588235294116" type="curve" smooth="yes"/>
      <point x="333.88235294117646" y="350.70588235294116"/>
      <point x="378.70588235294116" y="305.88235294117646"/>
      <point x="378.70588235294116" y="252.0" type="curve" smooth="yes"/>
      <point x="378.70588235294116" y="198.11764705882354"/>
      <point x="333.88235294117646" y="153.2941176470588"/>
    </contour>
    <contour>
      <point x="147.73529411764707" y="310.0" type="line"/>
      <point x="222.0" y="384.2647058823529" type="line"/>
      <point x="116.97058823529412" y="489.55882352941177" type="line"/>
      <point x="42.44117647058823" y="415.02941176470586" type="line"/>
    </contour>
    <contour>
      <point x="443.02941176470586" y="14.441176470588236" type="line"/>
      <point x="517.5588235294117" y="88.97058823529412" type="line"/>
      <point x="412.2647058823529" y="194.0" type="line"/>
      <point x="338.0" y="119.73529411764706" type="line"/>
    </contour>
    <contour>
      <point x="412.2647058823529" y="310.0" type="line"/>
      <point x="517.5588235294117" y="415.02941176470586" type="line"/>
      <point x="443.02941176470586" y="489.55882352941177" type="line"/>
      <point x="338.0" y="384.2647058823529" type="line"/>
    </contour>
  </outline>
</glyph>
<glyph name="yen" format="2">
  <advance width="560.0"/>
  <unicode hex="00A5"/>
  <outline>
    <contour>
      <point x="226.23529411764707" y="0.0" type="line"/>
      <point x="337.2352941176471" y="0.0" type="line"/>
      <point x="337.2352941176471" y="146.7058823529412" type="line"/>
      <point x="502.2647058823529" y="146.7058823529412" type="line"/>
      <point x="502.2647058823529" y="238.05882352941177" type="line"/>
      <point x="337.2352941176471" y="238.05882352941177" type="line"/>
      <point x="337.2352941176471" y="283.05882352941177" type="line"/>
      <point x="340.6764705882353" y="301.5882352941176" type="line"/>
      <point x="502.0" y="301.5882352941176" type="line"/>
      <point x="502.0" y="392.94117647058823" type="line"/>
      <point x="392.0882352941176" y="392.94117647058823" type="line"/>
      <point x="547.7941176470588" y="660.0" type="line"/>
      <point x="424.1764705882353" y="660.0" type="line"/>
      <point x="281.0" y="423.05882352941177" type="line"/>
      <point x="136.2941176470588" y="660.0" type="line"/>
      <point x="12.941176470588236" y="660.0" type="line"/>
      <point x="170.64705882352942" y="392.94117647058823" type="line"/>
      <point x="57.73529411764706" y="392.94117647058823" type="line"/>
      <point x="57.73529411764706" y="301.5882352941176" type="line"/>
      <point x="222.7941176470588" y="301.5882352941176" type="line"/>
      <point x="226.23529411764707" y="283.05882352941177" type="line"/>
      <point x="226.23529411764707" y="238.05882352941177" type="line"/>
      <point x="58.0" y="238.05882352941177" type="line"/>
      <point x="58.0" y="146.7058823529412" type="line"/>
      <point x="226.23529411764707" y="146.7058823529412" type="line"/>
    </contour>
  </outline>
</glyph>
<glyph name="brokenbar" format="2">
  <advance width="255.3235294117647"/>
  <unicode hex="00A6"/>
  <outline>
    <contour>
      <point x="73.76470588235294" y="334.88235294117646" type="line"/>
      <point x="181.55882352941177" y="334.88235294117646" type="line"/>
      <point x="181.55882352941177" y="707.9411764705883" type="line"/>
      <point x="73.76470588235294" y="707.9411764705883" type="line"/>
    </contour>
    <contour>
      <point x="73.76470588235294" y="-215.2941176470588" type="line"/>
      <point x="181.55882352941177" y="-215.2941176470588" type="line"/>
      <point x="181.55882352941177" y="163.64705882352942" type="line"/>
      <point x="73.76470588235294" y="163.64705882352942" type="line"/>
    </contour>
  </outline>
</glyph>
<glyph name="section" format="2">
  <advance width="509.05882352941177"/>
  <unicode hex="00A7"/>
  <outline>
    <contour>
      <point x="245.73529411764707" y="-172.26470588235293" type="curve" smooth="yes"/>
      <point x="386.1470588235294" y="-172.26470588235293"/>
      <point x="451.0882352941176" y="-119.0"/>
      <point x="451.0882352941176" y="4.117647058823529" type="curve" smooth="yes"/>
      <point x="451.0882352941176" y="64.55882352941177"/>
      <point x="437.61764705882354" y="87.67647058823529"/>
      <point x="413.61764705882354" y="108.88235294117646" type="curve"/>
      <point x="438.70588235294116" y="145.44117647058823"/>
      <point x="460.70588235294116" y="199.1764705882353"/>
      <point x="460.70588235294116" y="244.7058823529412" type="curve" smooth="yes"/>
      <point x="460.70588235294116" y="342.97058823529414"/>
      <point x="416.8235294117647" y="367.97058823529414"/>
      <point x="305.0" y="392.79411764705884" type="curve" smooth="yes"/>
      <point x="206.73529411764707" y="414.4117647058824"/>
      <point x="165.8235294117647" y="425.7352941176471"/>
      <point x="165.8235294117647" y="473.1470588235294" type="curve" smooth="yes"/>
      <point x="165.8235294117647" y="528.2941176470588"/>
      <point x="191.8235294117647" y="550.0588235294117"/>
      <point x="273.47058823529414" y="550.0588235294117" type="curve" smooth="yes"/>
      <point x="308.47058823529414" y="550.0588235294117"/>
      <point x="384.4117647058824" y="541.5882352941177"/>
      <point x="432.61764705882354" y="534.8529411764706" type="curve"/>
      <point x="437.55882352941177" y="622.7352941176471" type="line" name="hr00"/>
      <point x="393.88235294117646" y="631.6764705882352"/>
      <point x="317.2647058823529" y="643.8235294117648"/>
      <point x="266.8529411764706" y="643.8235294117648" type="curve" smooth="yes"/>
      <point x="135.05882352941177" y="643.8235294117648"/>
      <point x="60.970588235294116" y="589.4705882352941"/>
      <point x="60.970588235294116" y="471.4117647058824" type="curve" smooth="yes"/>
      <point x="60.970588235294116" y="412.4117647058824"/>
      <point x="75.97058823529412" y="383.0882352941176"/>
      <point x="104.97058823529412" y="361.8235294117647" type="curve"/>
      <point x="76.08823529411765" y="337.61764705882354"/>
      <point x="43.61764705882353" y="280.05882352941177"/>
      <point x="43.61764705882353" y="231.52941176470588" type="curve" smooth="yes"/>
      <point x="43.61764705882353" y="133.52941176470588"/>
      <point x="93.38235294117646" y="103.52941176470588"/>
      <point x="204.91176470588235" y="78.70588235294117" type="curve" smooth="yes"/>
      <point x="310.6764705882353" y="54.67647058823529"/>
      <point x="347.70588235294116" y="47.14705882352941"/>
      <point x="347.70588235294116" y="-3.5" type="curve" smooth="yes"/>
      <point x="347.70588235294116" y="-56.14705882352941"/>
      <point x="311.6764705882353" y="-78.76470588235294"/>
      <point x="238.38235294117646" y="-78.76470588235294" type="curve" smooth="yes"/>
      <point x="198.38235294117646" y="-78.76470588235294"/>
      <point x="121.11764705882354" y="-70.02941176470588"/>
      <point x="74.8529411764706" y="-64.02941176470588" type="curve"/>
      <point x="64.5" y="-151.91176470588235" type="line"/>
      <point x="113.44117647058823" y="-160.85294117647058"/>
      <point x="196.58823529411765" y="-172.26470588235293"/>
    </contour>
    <contour>
      <point x="330.2647058823529" y="147.6764705882353" type="curve"/>
      <point x="306.20588235294116" y="157.0"/>
      <point x="274.0882352941176" y="166.2058823529412"/>
      <point x="235.44117647058823" y="175.41176470588235" type="curve" smooth="yes"/>
      <point x="173.94117647058823" y="188.6764705882353"/>
      <point x="152.14705882352942" y="201.1764705882353"/>
      <point x="152.14705882352942" y="250.44117647058823" type="curve" smooth="yes"/>
      <point x="152.14705882352942" y="275.6764705882353"/>
      <point x="165.38235294117646" y="310.11764705882354"/>
      <point x="176.2941176470588" y="325.02941176470586" type="curve"/>
      <point x="188.11764705882354" y="320.11764705882354"/>
      <point x="221.91176470588235" y="312.6470588235294"/>
      <point x="255.35294117647058" y="305.6470588235294" type="curve" smooth="yes"/>
      <point x="326.11764705882354" y="289.70588235294116"/>
      <point x="351.44117647058823" y="276.1764705882353"/>
      <point x="351.44117647058823" y="229.94117647058823" type="curve" smooth="yes"/>
      <point x="351.44117647058823" y="201.44117647058823"/>
      <point x="341.05882352941177" y="163.05882352941177"/>
    </contour>
  </outline>
</glyph>
<glyph name="dieresis" format="2">
  <advance width="253.97058823529412"/>
  <unicode hex="00A8"/>
  <outline>
    <contour>
      <point x="187.05882352941177" y="607.1176470588235" type="line"/>
      <point x="290.44117647058823" y="607.1176470588235" type="line"/>
      <point x="290.44117647058823" y="720.5882352941177" type="line"/>
      <point x="187.05882352941177" y="720.5882352941177" type="line"/>
    </contour>
    <contour>
      <point x="-22.058823529411764" y="607.1176470588235" type="line"/>
      <point x="81.32352941176471" y="607.1176470588235" type="line"/>
      <point x="81.32352941176471" y="720.5882352941177" type="line"/>
      <point x="-22.058823529411764" y="720.5882352941177" type="line"/>
    </contour>
  </outline>
</glyph>
<glyph name="copyright" format="2">
  <advance width="644.0588235294117"/>
  <unicode hex="00A9"/>
  <outline>
    <contour>
      <point x="320.79411764705884" y="155.02941176470588" type="curve" smooth="yes"/>
      <point x="484.70588235294116" y="155.02941176470588"/>
      <point x="592.2352941176471" y="276.70588235294116"/>
      <point x="592.2352941176471" y="434.0" type="curve" smooth="yes"/>
      <point x="592.2352941176471" y="586.1470588235294"/>
      <point x="484.70588235294116" y="713.2352941176471"/>
      <point x="322.2647058823529" y="713.2352941176471" type="curve" smooth="yes"/>
      <point x="165.7058823529412" y="713.2352941176471"/>
      <point x="51.8235294117647" y="593.5"/>
      <point x="51.8235294117647" y="434.0" type="curve" smooth="yes"/>
      <point x="51.8235294117647" y="277.44117647058823"/>
      <point x="166.44117647058823" y="155.02941176470588"/>
    </contour>
    <contour>
      <point x="328.1470588235294" y="272.1764705882353" type="curve" smooth="yes"/>
      <point x="364.38235294117646" y="272.1764705882353"/>
      <point x="395.9117647058824" y="280.8529411764706"/>
      <point x="409.5" y="287.52941176470586" type="curve"/>
      <point x="404.0882352941176" y="356.29411764705884" type="line"/>
      <point x="388.02941176470586" y="354.02941176470586"/>
      <point x="357.70588235294116" y="350.5"/>
      <point x="335.5" y="350.5" type="curve" smooth="yes"/>
      <point x="300.1764705882353" y="350.5"/>
      <point x="289.38235294117646" y="378.3235294117647"/>
      <point x="289.38235294117646" y="437.4117647058824" type="curve" smooth="yes"/>
      <point x="289.38235294117646" y="493.8235294117647"/>
      <point x="297.8529411764706" y="516.7647058823529"/>
      <point x="335.5" y="516.7647058823529" type="curve" smooth="yes"/>
      <point x="358.5" y="516.7647058823529"/>
      <point x="388.29411764705884" y="513.5"/>
      <point x="404.0882352941176" y="510.5" type="curve"/>
      <point x="409.5" y="582.2058823529412" type="line"/>
      <point x="395.2352941176471" y="587.4117647058823"/>
      <point x="364.2352941176471" y="595.0882352941177"/>
      <point x="331.0882352941176" y="595.0882352941177" type="curve" smooth="yes"/>
      <point x="239.61764705882354" y="595.0882352941177"/>
      <point x="205.1764705882353" y="551.2058823529412"/>
      <point x="205.1764705882353" y="437.4117647058824" type="curve" smooth="yes"/>
      <point x="205.1764705882353" y="313.3235294117647"/>
      <point x="240.14705882352942" y="272.1764705882353"/>
    </contour>
    <contour>
      <point x="320.79411764705884" y="207.61764705882354" type="curve" smooth="yes"/>
      <point x="196.94117647058823" y="207.61764705882354"/>
      <point x="105.88235294117646" y="310.1470588235294"/>
      <point x="105.88235294117646" y="434.0" type="curve" smooth="yes"/>
      <point x="105.88235294117646" y="557.8529411764706"/>
      <point x="197.6764705882353" y="660.6470588235294"/>
      <point x="321.52941176470586" y="660.6470588235294" type="curve" smooth="yes"/>
      <point x="445.38235294117646" y="660.6470588235294"/>
      <point x="538.1764705882352" y="557.8529411764706"/>
      <point x="538.1764705882352" y="434.0" type="curve" smooth="yes"/>
      <point x="538.1764705882352" y="309.4117647058824"/>
      <point x="446.8529411764706" y="207.61764705882354"/>
    </contour>
  </outline>
</glyph>
<glyph name="ordfeminine" format="2">
  <advance width="402.7647058823529"/>
  <unicode hex="00AA"/>
  <outline>
    <contour>
      <point x="349.52941176470586" y="332.05882352941177" type="curve"/>
      <point x="352.5882352941176" y="400.02941176470586" type="line"/>
      <point x="343.7352941176471" y="401.55882352941177"/>
      <point x="335.3529411764706" y="405.61764705882354"/>
      <point x="329.55882352941177" y="412.0" type="curve"/>
      <point x="329.55882352941177" y="551.1470588235294" type="line" smooth="yes"/>
      <point x="329.55882352941177" y="631.7941176470588"/>
      <point x="285.9117647058824" y="659.0"/>
      <point x="200.23529411764707" y="659.0" type="curve" smooth="yes"/>
      <point x="153.38235294117646" y="659.0"/>
      <point x="106.58823529411765" y="651.0588235294117"/>
      <point x="64.08823529411765" y="637.7647058823529" type="curve"/>
      <point x="67.3529411764706" y="574.6764705882352" type="line"/>
      <point x="105.91176470588235" y="577.6764705882352"/>
      <point x="166.14705882352942" y="581.2058823529412"/>
      <point x="190.6764705882353" y="581.9411764705883" type="curve" smooth="yes"/>
      <point x="222.58823529411765" y="582.6764705882352"/>
      <point x="236.7941176470588" y="574.8235294117648"/>
      <point x="236.7941176470588" y="555.5588235294117" type="curve" smooth="yes"/>
      <point x="236.7941176470588" y="385.4117647058824" type="line" smooth="yes"/>
      <point x="240.76470588235293" y="341.7647058823529"/>
      <point x="282.70588235294116" y="333.9117647058824"/>
    </contour>
    <contour>
      <point x="143.02941176470588" y="333.05882352941177" type="curve" smooth="yes"/>
      <point x="187.02941176470588" y="333.05882352941177"/>
      <point x="231.0" y="350.7352941176471"/>
      <point x="263.6764705882353" y="379.11764705882354" type="curve"/>
      <point x="268.38235294117646" y="429.9117647058824" type="line"/>
      <point x="240.64705882352942" y="417.2352941176471"/>
      <point x="201.41176470588235" y="405.70588235294116"/>
      <point x="173.1764705882353" y="405.70588235294116" type="curve" smooth="yes"/>
      <point x="151.38235294117646" y="405.70588235294116"/>
      <point x="140.05882352941177" y="417.0882352941176"/>
      <point x="140.05882352941177" y="437.3235294117647" type="curve" smooth="yes"/>
      <point x="140.05882352941177" y="458.29411764705884"/>
      <point x="151.05882352941177" y="468.0882352941176"/>
      <point x="175.76470588235293" y="470.0882352941176" type="curve" smooth="yes"/>
      <point x="270.4117647058824" y="476.3529411764706" type="line"/>
      <point x="269.88235294117646" y="535.0294117647059" type="line"/>
      <point x="160.52941176470588" y="529.5" type="line" smooth="yes"/>
      <point x="84.52941176470588" y="525.5"/>
      <point x="47.294117647058826" y="494.88235294117646"/>
      <point x="47.294117647058826" y="433.6470588235294" type="curve" smooth="yes"/>
      <point x="47.294117647058826" y="373.61764705882354"/>
      <point x="83.6470588235294" y="333.05882352941177"/>
    </contour>
  </outline>
</glyph>
<glyph name="guillemotleft" format="2">
  <advance width="573.4705882352941"/>
  <unicode hex="00AB"/>
  <outline>
    <contour>
      <point x="305.0" y="204.58823529411765" type="line"/>
      <point x="513.1764705882352" y="42.32352941176471" type="line"/>
      <point x="513.1764705882352" y="152.44117647058823" type="line"/>
      <point x="397.29411764705884" y="246.64705882352942" type="line"/>
      <point x="513.1764705882352" y="329.8529411764706" type="line"/>
      <point x="513.1764705882352" y="439.44117647058823" type="line"/>
      <point x="305.0" y="284.70588235294116" type="line"/>
    </contour>
    <contour>
      <point x="42.11764705882353" y="204.58823529411765" type="line"/>
      <point x="250.2941176470588" y="42.32352941176471" type="line"/>
      <point x="250.2941176470588" y="152.44117647058823" type="line"/>
      <point x="134.41176470588235" y="246.64705882352942" type="line"/>
      <point x="250.2941176470588" y="329.8529411764706" type="line"/>
      <point x="250.2941176470588" y="439.44117647058823" type="line"/>
      <point x="42.11764705882353" y="284.70588235294116" type="line"/>
    </contour>
  </outline>
</glyph>
<glyph name="logicalnot" format="2">
  <advance width="560.0"/>
  <unicode hex="00AC"/>
  <outline>
    <contour>
      <point x="395.2352941176471" y="109.82352941176471" type="line"/>
      <point x="493.0" y="109.82352941176471" type="line"/>
      <point x="493.0" y="351.11764705882354" type="line"/>
      <point x="60.705882352941174" y="351.11764705882354" type="line"/>
      <point x="60.705882352941174" y="253.88235294117646" type="line"/>
      <point x="395.2352941176471" y="253.88235294117646" type="line"/>
    </contour>
  </outline>
</glyph>
<glyph name="softhyphen" format="2">
  <advance width="421.5"/>
  <unicode hex="00AD"/>
  <outline>
    <contour>
      <point x="61.294117647058826" y="220.61764705882354" type="line"/>
      <point x="360.20588235294116" y="220.61764705882354" type="line"/>
      <point x="360.20588235294116" y="319.3235294117647" type="line"/>
      <point x="61.294117647058826" y="319.3235294117647" type="line"/>
    </contour>
  </outline>
</glyph>
<glyph name="registered" format="2">
  <advance width="644.0588235294117"/>
  <unicode hex="00AE"/>
  <outline>
    <contour>
      <point x="321.52941176470586" y="155.02941176470588" type="curve" smooth="yes"/>
      <point x="484.70588235294116" y="155.02941176470588"/>
      <point x="592.2352941176471" y="276.70588235294116"/>
      <point x="592.2352941176471" y="434.0" type="curve" smooth="yes"/>
      <point x="592.2352941176471" y="586.1470588235294"/>
      <point x="484.70588235294116" y="713.2352941176471"/>
      <point x="321.52941176470586" y="713.2352941176471" type="curve" smooth="yes"/>
      <point x="165.7058823529412" y="713.2352941176471"/>
      <point x="51.8235294117647" y="593.5"/>
      <point x="51.8235294117647" y="434.0" type="curve" smooth="yes"/>
      <point x="51.8235294117647" y="277.44117647058823"/>
      <point x="166.44117647058823" y="155.02941176470588"/>
    </contour>
    <contour>
      <point x="321.52941176470586" y="207.61764705882354" type="curve" smooth="yes"/>
      <point x="199.88235294117646" y="207.61764705882354"/>
      <point x="105.88235294117646" y="310.1470588235294"/>
      <point x="105.88235294117646" y="434.0" type="curve" smooth="yes"/>
      <point x="105.88235294117646" y="557.8529411764706"/>
      <point x="198.41176470588235" y="660.6470588235294"/>
      <point x="321.52941176470586" y="660.6470588235294" type="curve" smooth="yes"/>
      <point x="445.38235294117646" y="660.6470588235294"/>
      <point x="538.1764705882352" y="557.8529411764706"/>
      <point x="538.1764705882352" y="434.0" type="curve" smooth="yes"/>
      <point x="538.1764705882352" y="309.4117647058824"/>
      <point x="446.8529411764706" y="207.61764705882354"/>
    </contour>
    <contour>
      <point x="206.2941176470588" y="278.6470588235294" type="line"/>
      <point x="285.3529411764706" y="278.6470588235294" type="line"/>
      <point x="285.3529411764706" y="377.7352941176471" type="line"/>
      <point x="327.5882352941176" y="377.7352941176471" type="line"/>
      <point x="365.6470588235294" y="278.6470588235294" type="line"/>
      <point x="448.44117647058823" y="278.6470588235294" type="line"/>
      <point x="401.0882352941176" y="391.02941176470586" type="line"/>
      <point x="434.05882352941177" y="411.5882352941176"/>
      <point x="444.6470588235294" y="436.9117647058824"/>
      <point x="444.6470588235294" y="487.5882352941176" type="curve" smooth="yes"/>
      <point x="444.6470588235294" y="561.4705882352941"/>
      <point x="398.8235294117647" y="588.3529411764706"/>
      <point x="330.9117647058824" y="588.3529411764706" type="curve" smooth="yes"/>
      <point x="206.2941176470588" y="588.3529411764706" type="line"/>
    </contour>
    <contour>
      <point x="284.61764705882354" y="438.1470588235294" type="line"/>
      <point x="284.61764705882354" y="527.2058823529412" type="line"/>
      <point x="320.88235294117646" y="527.2058823529412" type="line" smooth="yes"/>
      <point x="352.8235294117647" y="527.2058823529412"/>
      <point x="367.79411764705884" y="512.0"/>
      <point x="367.79411764705884" y="482.44117647058823" type="curve" smooth="yes"/>
      <point x="367.79411764705884" y="453.61764705882354"/>
      <point x="354.20588235294116" y="438.1470588235294"/>
      <point x="326.38235294117646" y="438.1470588235294" type="curve" smooth="yes"/>
    </contour>
  </outline>
</glyph>
<glyph name="macron" format="2">
  <advance width="253.97058823529412"/>
  <unicode hex="00AF"/>
  <outline>
    <contour>
      <point x="-8.970588235294118" y="608.9117647058823" type="line"/>
      <point x="272.7352941176471" y="608.9117647058823" type="line"/>
      <point x="272.7352941176471" y="690.9117647058823" type="line"/>
      <point x="-8.970588235294118" y="690.9117647058823" type="line"/>
    </contour>
  </outline>
</glyph>
<glyph name="degree" format="2">
  <advance width="560.0"/>
  <unicode hex="00B0"/>
  <outline>
    <contour>
      <point x="280.0" y="404.9117647058824" type="curve" smooth="yes"/>
      <point x="366.88235294117646" y="404.9117647058824"/>
      <point x="426.29411764705884" y="463.3235294117647"/>
      <point x="426.29411764705884" y="550.2058823529412" type="curve" smooth="yes"/>
      <point x="426.29411764705884" y="637.0882352941177"/>
      <point x="366.88235294117646" y="696.5"/>
      <point x="280.0" y="696.5" type="curve" smooth="yes"/>
      <point x="193.11764705882354" y="696.5"/>
      <point x="133.7058823529412" y="637.0882352941177"/>
      <point x="133.7058823529412" y="550.2058823529412" type="curve" smooth="yes"/>
      <point x="133.7058823529412" y="463.3235294117647"/>
      <point x="193.11764705882354" y="404.9117647058824"/>
    </contour>
    <contour>
      <point x="280.0" y="467.05882352941177" type="curve" smooth="yes"/>
      <point x="230.5" y="467.05882352941177"/>
      <point x="197.85294117647058" y="500.70588235294116"/>
      <point x="197.85294117647058" y="550.2058823529412" type="curve" smooth="yes"/>
      <point x="197.85294117647058" y="599.7058823529412"/>
      <point x="230.5" y="634.3529411764706"/>
      <point x="280.0" y="634.3529411764706" type="curve" smooth="yes"/>
      <point x="329.5" y="634.3529411764706"/>
      <point x="364.1470588235294" y="599.7058823529412"/>
      <point x="364.1470588235294" y="550.2058823529412" type="curve" smooth="yes"/>
      <point x="364.1470588235294" y="500.70588235294116"/>
      <point x="329.5" y="467.05882352941177"/>
    </contour>
  </outline>
</glyph>
<glyph name="plusminus" format="2">
  <advance width="560.0"/>
  <unicode hex="00B1"/>
  <outline>
    <contour>
      <point x="230.11764705882354" y="168.41176470588235" type="line"/>
      <point x="327.88235294117646" y="168.41176470588235" type="line"/>
      <point x="327.88235294117646" y="280.05882352941177" type="line"/>
      <point x="507.61764705882354" y="280.05882352941177" type="line"/>
      <point x="507.61764705882354" y="377.29411764705884" type="line"/>
      <point x="327.88235294117646" y="377.29411764705884" type="line"/>
      <point x="327.88235294117646" y="493.2352941176471" type="line"/>
      <point x="230.11764705882354" y="493.2352941176471" type="line"/>
      <point x="230.11764705882354" y="377.29411764705884" type="line"/>
      <point x="52.38235294117647" y="377.29411764705884" type="line"/>
      <point x="52.38235294117647" y="280.05882352941177" type="line"/>
      <point x="230.11764705882354" y="280.05882352941177" type="line"/>
    </contour>
    <contour>
      <point x="52.38235294117647" y="27.205882352941174" type="line"/>
      <point x="507.61764705882354" y="27.205882352941174" type="line"/>
      <point x="507.61764705882354" y="124.44117647058823" type="line"/>
      <point x="52.38235294117647" y="124.44117647058823" type="line"/>
    </contour>
  </outline>
</glyph>
<glyph name="twosuperior" format="2">
  <advance width="280.0"/>
  <unicode hex="00B2"/>
  <outline>
    <contour>
      <point x="24.970588235294116" y="478.0" type="line"/>
      <point x="246.1764705882353" y="478.0" type="line"/>
      <point x="246.1764705882353" y="556.5882352941177" type="line"/>
      <point x="137.08823529411765" y="556.5882352941177" type="line"/>
      <point x="186.2058823529412" y="599.1470588235294" type="line" smooth="yes"/>
      <point x="227.26470588235293" y="632.3823529411765"/>
      <point x="244.3235294117647" y="658.9117647058823"/>
      <point x="244.3235294117647" y="704.4411764705883" type="curve" smooth="yes"/>
      <point x="244.3235294117647" y="771.7352941176471"/>
      <point x="215.52941176470588" y="800.4705882352941"/>
      <point x="138.61764705882354" y="800.4705882352941" type="curve" smooth="yes"/>
      <point x="106.1470588235294" y="800.4705882352941"/>
      <point x="55.85294117647059" y="794.9411764705883"/>
      <point x="27.235294117647058" y="790.4117647058823" type="curve"/>
      <point x="30.705882352941178" y="709.9411764705883" type="line"/>
      <point x="53.970588235294116" y="713.2058823529412"/>
      <point x="92.02941176470588" y="717.0"/>
      <point x="110.41176470588235" y="717.0" type="curve" smooth="yes"/>
      <point x="137.26470588235293" y="717.0"/>
      <point x="152.7058823529412" y="710.5588235294117"/>
      <point x="152.7058823529412" y="692.2058823529412" type="curve" smooth="yes"/>
      <point x="152.7058823529412" y="670.5882352941177"/>
      <point x="137.26470588235293" y="652.1470588235294"/>
      <point x="104.58823529411765" y="624.0882352941177" type="curve" smooth="yes"/>
      <point x="24.970588235294116" y="552.3823529411765" type="line"/>
    </contour>
  </outline>
</glyph>
<glyph name="threesuperior" format="2">
  <advance width="280.0"/>
  <unicode hex="00B3"/>
  <outline>
    <contour>
      <point x="138.05882352941177" y="467.52941176470586" type="curve" smooth="yes"/>
      <point x="215.14705882352942" y="467.52941176470586"/>
      <point x="254.5" y="499.7352941176471"/>
      <point x="254.5" y="570.4117647058823" type="curve" smooth="yes"/>
      <point x="254.5" y="613.1176470588235"/>
      <point x="240.38235294117646" y="632.2647058823529"/>
      <point x="214.2058823529412" y="642.2647058823529" type="curve"/>
      <point x="234.0" y="652.4705882352941"/>
      <point x="247.7058823529412" y="677.2058823529412"/>
      <point x="247.7058823529412" y="713.1764705882352" type="curve" smooth="yes"/>
      <point x="247.7058823529412" y="774.2647058823529"/>
      <point x="209.61764705882354" y="800.4705882352941"/>
      <point x="131.85294117647058" y="800.4705882352941" type="curve" smooth="yes"/>
      <point x="103.32352941176471" y="800.4705882352941"/>
      <point x="58.911764705882355" y="796.9411764705883"/>
      <point x="28.5" y="793.6764705882352" type="curve"/>
      <point x="33.705882352941174" y="715.8235294117648" type="line"/>
      <point x="54.23529411764706" y="718.3529411764706"/>
      <point x="94.02941176470588" y="721.8823529411765"/>
      <point x="116.61764705882354" y="721.8823529411765" type="curve" smooth="yes"/>
      <point x="143.7058823529412" y="721.8823529411765"/>
      <point x="156.08823529411765" y="716.2352941176471"/>
      <point x="156.08823529411765" y="699.2058823529412" type="curve" smooth="yes"/>
      <point x="156.08823529411765" y="681.5294117647059"/>
      <point x="143.26470588235293" y="671.4411764705883"/>
      <point x="127.88235294117646" y="671.4411764705883" type="curve" smooth="yes"/>
      <point x="63.61764705882353" y="671.4411764705883" type="line"/>
      <point x="63.61764705882353" y="600.2058823529412" type="line"/>
      <point x="129.35294117647058" y="600.2058823529412" type="line" smooth="yes"/>
      <point x="151.58823529411765" y="600.2058823529412"/>
      <point x="164.35294117647058" y="594.5"/>
      <point x="164.35294117647058" y="573.7647058823529" type="curve" smooth="yes"/>
      <point x="164.35294117647058" y="554.0882352941177"/>
      <point x="152.64705882352942" y="546.1176470588235"/>
      <point x="122.02941176470588" y="546.1176470588235" type="curve" smooth="yes"/>
      <point x="100.70588235294117" y="546.1176470588235"/>
      <point x="54.911764705882355" y="549.6470588235294"/>
      <point x="29.705882352941178" y="552.9117647058823" type="curve"/>
      <point x="24.5" y="476.3235294117647" type="line"/>
      <point x="53.911764705882355" y="472.79411764705884"/>
      <point x="106.79411764705883" y="467.52941176470586"/>
    </contour>
  </outline>
</glyph>
<glyph name="acute" format="2">
  <advance width="268.0"/>
  <unicode hex="00B4"/>
  <outline>
    <contour>
      <point x="250.38235294117646" y="747.4411764705883" type="line"/>
      <point x="14.264705882352942" y="647.0294117647059" type="line"/>
      <point x="40.294117647058826" y="575.9117647058823" type="line"/>
      <point x="284.02941176470586" y="654.6764705882352" type="line"/>
    </contour>
  </outline>
</glyph>
<glyph name="paragraph" format="2">
  <advance width="596.3529411764706"/>
  <unicode hex="00B6"/>
  <outline>
    <contour>
      <point x="224.1764705882353" y="0.0" type="line"/>
      <point x="317.52941176470586" y="0.0" type="line"/>
      <point x="317.52941176470586" y="592.7352941176471" type="line"/>
      <point x="403.3529411764706" y="592.7352941176471" type="line"/>
      <point x="403.3529411764706" y="0.0" type="line"/>
      <point x="496.70588235294116" y="0.0" type="line"/>
      <point x="496.70588235294116" y="592.7352941176471" type="line"/>
      <point x="548.8529411764706" y="592.7352941176471" type="line"/>
      <point x="548.8529411764706" y="685.2941176470588" type="line"/>
      <point x="218.64705882352942" y="685.2941176470588" type="line" smooth="yes"/>
      <point x="108.29411764705883" y="685.2941176470588"/>
      <point x="31.176470588235293" y="605.4705882352941"/>
      <point x="31.176470588235293" y="493.11764705882354" type="curve" smooth="yes"/>
      <point x="31.176470588235293" y="380.7647058823529"/>
      <point x="106.82352941176471" y="302.94117647058823"/>
      <point x="217.1764705882353" y="302.94117647058823" type="curve" smooth="yes"/>
      <point x="224.1764705882353" y="302.94117647058823" type="line"/>
    </contour>
  </outline>
</glyph>
<glyph name="cedilla" format="2">
  <advance width="263.7352941176471"/>
  <unicode hex="00B8"/>
  <outline>
    <contour>
      <point x="125.11764705882354" y="-230.41176470588235" type="curve" smooth="yes"/>
      <point x="187.8235294117647" y="-230.41176470588235"/>
      <point x="228.44117647058823" y="-198.38235294117646"/>
      <point x="228.44117647058823" y="-127.0" type="curve" smooth="yes" name="hr00"/>
      <point x="228.44117647058823" y="-57.029411764705884"/>
      <point x="186.61764705882354" y="-43.029411764705884"/>
      <point x="110.47058823529412" y="-42.294117647058826" type="curve"/>
      <point x="110.47058823529412" y="1.0" type="line"/>
      <point x="62.76470588235294" y="1.0" type="line"/>
      <point x="62.76470588235294" y="-99.70588235294117" type="line"/>
      <point x="94.70588235294117" y="-99.70588235294117" type="line" smooth="yes"/>
      <point x="122.23529411764706" y="-99.70588235294117"/>
      <point x="135.35294117647058" y="-106.29411764705883"/>
      <point x="135.35294117647058" y="-127.0" type="curve" smooth="yes"/>
      <point x="135.35294117647058" y="-148.76470588235293"/>
      <point x="122.23529411764706" y="-158.2941176470588"/>
      <point x="94.70588235294117" y="-158.2941176470588" type="curve" smooth="yes"/>
      <point x="84.41176470588235" y="-158.2941176470588"/>
      <point x="45.26470588235294" y="-157.02941176470588"/>
      <point x="38.76470588235294" y="-156.5" type="curve"/>
      <point x="35.294117647058826" y="-221.26470588235293" type="line"/>
      <point x="55.705882352941174" y="-225.47058823529412"/>
      <point x="93.8529411764706" y="-230.41176470588235"/>
    </contour>
  </outline>
</glyph>
<glyph name="onesuperior" format="2">
  <advance width="280.0"/>
  <unicode hex="00B9"/>
  <outline>
    <contour>
      <point x="116.32352941176471" y="478.0" type="line"/>
      <point x="203.52941176470588" y="478.0" type="line"/>
      <point x="203.52941176470588" y="790.0" type="line"/>
      <point x="123.67647058823529" y="790.0" type="line"/>
      <point x="19.529411764705884" y="717.1176470588235" type="line"/>
      <point x="60.05882352941177" y="655.2941176470588" type="line"/>
      <point x="116.32352941176471" y="693.6470588235294" type="line"/>
    </contour>
  </outline>
</glyph>
<glyph name="ordmasculine" format="2">
  <advance width="402.2647058823529"/>
  <unicode hex="00BA"/>
  <outline>
    <contour>
      <point x="202.0" y="333.05882352941177" type="curve" smooth="yes"/>
      <point x="303.7352941176471" y="333.05882352941177"/>
      <point x="356.1764705882353" y="385.88235294117646"/>
      <point x="356.1764705882353" y="498.2647058823529" type="curve" smooth="yes"/>
      <point x="356.1764705882353" y="609.9117647058823"/>
      <point x="303.7352941176471" y="659.0"/>
      <point x="202.0" y="659.0" type="curve" smooth="yes"/>
      <point x="99.52941176470588" y="659.0"/>
      <point x="45.8235294117647" y="609.9117647058823"/>
      <point x="45.8235294117647" y="498.2647058823529" type="curve" smooth="yes"/>
      <point x="45.8235294117647" y="385.88235294117646"/>
      <point x="99.52941176470588" y="333.05882352941177"/>
    </contour>
    <contour>
      <point x="202.0" y="418.7352941176471" type="curve" smooth="yes"/>
      <point x="157.5" y="418.7352941176471"/>
      <point x="143.05882352941177" y="443.5882352941176"/>
      <point x="143.05882352941177" y="497.52941176470586" type="curve" smooth="yes"/>
      <point x="143.05882352941177" y="551.4705882352941"/>
      <point x="157.5" y="574.0588235294117"/>
      <point x="202.0" y="574.0588235294117" type="curve" smooth="yes"/>
      <point x="246.5" y="574.0588235294117"/>
      <point x="258.20588235294116" y="551.4705882352941"/>
      <point x="258.20588235294116" y="497.52941176470586" type="curve" smooth="yes"/>
      <point x="258.20588235294116" y="443.5882352941176"/>
      <point x="246.5" y="418.7352941176471"/>
    </contour>
  </outline>
</glyph>
<glyph name="guillemotright" format="2">
  <advance width="574.9411764705883"/>
  <unicode hex="00BB"/>
  <outline>
    <contour>
      <point x="531.3529411764706" y="204.58823529411765" type="line"/>
      <point x="531.3529411764706" y="284.70588235294116" type="line"/>
      <point x="323.1764705882353" y="439.44117647058823" type="line"/>
      <point x="323.1764705882353" y="329.8529411764706" type="line"/>
      <point x="439.05882352941177" y="246.64705882352942" type="line"/>
      <point x="323.1764705882353" y="152.44117647058823" type="line"/>
      <point x="323.1764705882353" y="42.32352941176471" type="line"/>
    </contour>
    <contour>
      <point x="268.47058823529414" y="204.58823529411765" type="line"/>
      <point x="268.47058823529414" y="284.70588235294116" type="line"/>
      <point x="60.294117647058826" y="439.44117647058823" type="line"/>
      <point x="60.294117647058826" y="329.8529411764706" type="line"/>
      <point x="176.1764705882353" y="246.64705882352942" type="line"/>
      <point x="60.294117647058826" y="152.44117647058823" type="line"/>
      <point x="60.294117647058826" y="42.32352941176471" type="line"/>
    </contour>
  </outline>
</glyph>
<glyph name="questiondown" format="2">
  <advance width="436.70588235294116"/>
  <unicode hex="00BF"/>
  <outline>
    <contour>
      <point x="288.5" y="290.4117647058824" type="curve"/>
      <point x="200.8235294117647" y="290.4117647058824" type="line"/>
      <point x="200.8235294117647" y="257.55882352941177" type="line" smooth="yes"/>
      <point x="200.8235294117647" y="222.14705882352942"/>
      <point x="185.44117647058823" y="197.58823529411765"/>
      <point x="119.73529411764706" y="145.97058823529412" type="curve" smooth="yes"/>
      <point x="46.76470588235294" y="88.1470588235294"/>
      <point x="32.705882352941174" y="54.794117647058826"/>
      <point x="32.705882352941174" y="-33.8235294117647" type="curve" smooth="yes"/>
      <point x="32.705882352941174" y="-149.35294117647058"/>
      <point x="96.88235294117646" y="-196.23529411764707"/>
      <point x="236.38235294117646" y="-196.23529411764707" type="curve" smooth="yes"/>
      <point x="291.55882352941177" y="-196.23529411764707"/>
      <point x="365.4117647058824" y="-177.55882352941177"/>
      <point x="405.3235294117647" y="-163.35294117647058" type="curve"/>
      <point x="398.8529411764706" y="-80.08823529411765" type="line"/>
      <point x="361.61764705882354" y="-88.41176470588235"/>
      <point x="295.6470588235294" y="-99.26470588235294"/>
      <point x="250.35294117647058" y="-99.26470588235294" type="curve" smooth="yes"/>
      <point x="173.02941176470588" y="-99.26470588235294"/>
      <point x="144.1764705882353" y="-73.20588235294117"/>
      <point x="144.1764705882353" y="-22.794117647058826" type="curve" smooth="yes"/>
      <point x="144.1764705882353" y="22.676470588235293"/>
      <point x="157.08823529411765" y="40.85294117647059"/>
      <point x="230.2941176470588" y="101.17647058823529" type="curve" smooth="yes"/>
      <point x="283.02941176470586" y="145.23529411764707"/>
      <point x="311.55882352941177" y="176.3235294117647"/>
      <point x="311.55882352941177" y="212.64705882352942" type="curve" smooth="yes"/>
      <point x="311.55882352941177" y="247.23529411764707"/>
      <point x="298.05882352941177" y="275.6764705882353"/>
    </contour>
    <contour>
      <point x="305.47058823529414" y="500.0" type="line"/>
      <point x="189.0" y="500.0" type="line"/>
      <point x="189.0" y="360.44117647058823" type="line"/>
      <point x="305.47058823529414" y="360.44117647058823" type="line"/>
    </contour>
  </outline>
</glyph>
<glyph name="AE" format="2">
  <advance width="873.1176470588235"/>
  <unicode hex="00C6"/>
  <outline>
    <contour>
      <point x="15.441176470588236" y="0.0" type="line"/>
      <point x="127.5" y="0.0" type="line"/>
      <point x="169.47058823529412" y="142.2058823529412" type="line"/>
      <point x="399.1470588235294" y="142.2058823529412" type="line"/>
      <point x="399.1470588235294" y="0.0" type="line"/>
      <point x="829.4705882352941" y="0.0" type="line"/>
      <point x="829.4705882352941" y="106.05882352941177" type="line"/>
      <point x="508.6764705882353" y="106.05882352941177" type="line"/>
      <point x="508.6764705882353" y="299.88235294117646" type="line"/>
      <point x="769.4705882352941" y="299.88235294117646" type="line"/>
      <point x="769.4705882352941" y="405.20588235294116" type="line"/>
      <point x="508.6764705882353" y="405.20588235294116" type="line"/>
      <point x="508.6764705882353" y="586.5882352941177" type="line"/>
      <point x="829.4705882352941" y="586.5882352941177" type="line"/>
      <point x="829.4705882352941" y="692.6470588235294" type="line"/>
      <point x="217.1764705882353" y="692.6470588235294" type="line"/>
    </contour>
    <contour>
      <point x="197.64705882352942" y="249.0" type="line"/>
      <point x="295.9117647058824" y="586.5882352941177" type="line"/>
      <point x="399.88235294117646" y="586.5882352941177" type="line"/>
      <point x="399.1470588235294" y="249.0" type="line"/>
    </contour>
  </outline>
</glyph>
<glyph name="multiply" format="2">
  <advance width="560.0"/>
  <unicode hex="00D7"/>
  <outline>
    <contour>
      <point x="428.52941176470586" y="32.88235294117647" type="line"/>
      <point x="497.38235294117646" y="101.73529411764706" type="line"/>
      <point x="345.6470588235294" y="250.26470588235293" type="line"/>
      <point x="497.38235294117646" y="399.52941176470586" type="line"/>
      <point x="429.2647058823529" y="468.38235294117646" type="line"/>
      <point x="280.0" y="316.6470588235294" type="line"/>
      <point x="132.2058823529412" y="466.9117647058824" type="line"/>
      <point x="63.35294117647059" y="398.05882352941177" type="line"/>
      <point x="213.61764705882354" y="250.26470588235293" type="line"/>
      <point x="62.61764705882353" y="101.73529411764706" type="line"/>
      <point x="131.47058823529412" y="33.61764705882353" type="line"/>
      <point x="280.0" y="183.88235294117646" type="line"/>
    </contour>
  </outline>
</glyph>
<glyph name="Oslash" format="2">
  <advance width="655.7058823529412"/>
  <unicode hex="00D8"/>
  <outline>
    <contour>
      <point x="163.7941176470588" y="-122.23529411764706" type="line"/>
      <point x="409.6764705882353" y="404.20588235294116" type="line"/>
      <point x="331.4117647058824" y="446.88235294117646" type="line"/>
      <point x="83.79411764705883" y="-83.29411764705883" type="line"/>
    </contour>
    <contour>
      <point x="498.5882352941176" y="805.2352941176471" type="line"/>
      <point x="263.6470588235294" y="302.1470588235294" type="line"/>
      <point x="343.1764705882353" y="261.7352941176471" type="line"/>
      <point x="580.0588235294117" y="770.4411764705883" type="line"/>
    </contour>
    <component base="O"/>
  </outline>
</glyph>
<glyph name="Thorn" format="2">
  <advance width="597.3235294117648"/>
  <unicode hex="00DE"/>
  <outline>
    <contour>
      <point x="78.76470588235294" y="0.0" type="line"/>
      <point x="189.76470588235293" y="0.0" type="line"/>
      <point x="189.76470588235293" y="108.52941176470588" type="line"/>
      <point x="330.0882352941176" y="108.52941176470588" type="line" smooth="yes"/>
      <point x="486.11764705882354" y="108.52941176470588"/>
      <point x="564.2941176470588" y="200.6764705882353"/>
      <point x="564.2941176470588" y="356.70588235294116" type="curve" smooth="yes"/>
      <point x="564.2941176470588" y="512.7352941176471"/>
      <point x="486.11764705882354" y="588.2941176470588"/>
      <point x="330.0882352941176" y="588.2941176470588" type="curve" smooth="yes"/>
      <point x="189.76470588235293" y="588.2941176470588" type="line"/>
      <point x="189.76470588235293" y="692.6470588235294" type="line"/>
      <point x="78.76470588235294" y="692.6470588235294" type="line"/>
    </contour>
    <contour>
      <point x="189.76470588235293" y="216.05882352941177" type="line"/>
      <point x="189.76470588235293" y="482.2352941176471" type="line"/>
      <point x="329.3529411764706" y="482.2352941176471" type="line" smooth="yes"/>
      <point x="412.11764705882354" y="482.2352941176471"/>
      <point x="451.29411764705884" y="443.1470588235294"/>
      <point x="451.29411764705884" y="356.70588235294116" type="curve" smooth="yes"/>
      <point x="451.29411764705884" y="269.52941176470586"/>
      <point x="412.11764705882354" y="216.05882352941177"/>
      <point x="329.3529411764706" y="216.05882352941177" type="curve" smooth="yes"/>
    </contour>
  </outline>
</glyph>
<glyph name="germandbls" format="2">
  <advance width="594.5882352941177"/>
  <unicode hex="00DF"/>
  <outline>
    <contour>
      <point x="364.8235294117647" y="-11.205882352941176" type="curve" smooth="yes"/>
      <point x="510.0882352941176" y="-11.205882352941176"/>
      <point x="566.2941176470588" y="33.35294117647059"/>
      <point x="566.2941176470588" y="169.8235294117647" type="curve" smooth="yes"/>
      <point x="566.2941176470588" y="251.35294117647058"/>
      <point x="530.5588235294117" y="280.6764705882353"/>
      <point x="439.6470588235294" y="324.3235294117647" type="curve" smooth="yes"/>
      <point x="360.20588235294116" y="361.7352941176471"/>
      <point x="348.29411764705884" y="372.05882352941177"/>
      <point x="348.29411764705884" y="391.8529411764706" type="curve" smooth="yes"/>
      <point x="348.29411764705884" y="410.1764705882353"/>
      <point x="358.61764705882354" y="418.1764705882353"/>
      <point x="407.55882352941177" y="439.9117647058824" type="curve" smooth="yes"/>
      <point x="466.44117647058823" y="466.11764705882354"/>
      <point x="496.0" y="492.8235294117647"/>
      <point x="496.0" y="567.7058823529412" type="curve" smooth="yes"/>
      <point x="496.0" y="676.4117647058823"/>
      <point x="426.3235294117647" y="719.1470588235294"/>
      <point x="281.88235294117646" y="719.1470588235294" type="curve" smooth="yes"/>
      <point x="129.26470588235293" y="719.1470588235294"/>
      <point x="66.5" y="669.3235294117648"/>
      <point x="66.5" y="532.3235294117648" type="curve" smooth="yes"/>
      <point x="66.5" y="0.0" type="line"/>
      <point x="174.2941176470588" y="0.0" type="line"/>
      <point x="174.2941176470588" y="526.6764705882352" type="line" smooth="yes"/>
      <point x="174.2941176470588" y="599.5882352941177"/>
      <point x="200.85294117647058" y="623.3823529411765"/>
      <point x="281.88235294117646" y="623.3823529411765" type="curve" smooth="yes"/>
      <point x="359.8235294117647" y="623.3823529411765"/>
      <point x="384.47058823529414" y="605.9411764705883"/>
      <point x="384.47058823529414" y="560.3529411764706" type="curve" smooth="yes"/>
      <point x="384.47058823529414" y="531.0882352941177"/>
      <point x="372.47058823529414" y="516.0588235294117"/>
      <point x="314.02941176470586" y="491.6470588235294" type="curve" smooth="yes"/>
      <point x="261.61764705882354" y="469.6470588235294"/>
      <point x="237.02941176470588" y="440.6764705882353"/>
      <point x="237.02941176470588" y="382.29411764705884" type="curve" smooth="yes"/>
      <point x="237.02941176470588" y="318.7647058823529"/>
      <point x="266.5882352941176" y="285.8529411764706"/>
      <point x="355.8235294117647" y="246.11764705882354" type="curve" smooth="yes"/>
      <point x="440.47058823529414" y="207.94117647058823"/>
      <point x="454.7647058823529" y="195.1764705882353"/>
      <point x="454.7647058823529" y="153.7941176470588" type="curve" smooth="yes"/>
      <point x="454.7647058823529" y="110.82352941176471"/>
      <point x="433.6764705882353" y="84.55882352941177"/>
      <point x="353.05882352941177" y="84.55882352941177" type="curve" smooth="yes"/>
      <point x="326.3235294117647" y="84.55882352941177"/>
      <point x="264.2352941176471" y="91.02941176470588"/>
      <point x="224.61764705882354" y="95.76470588235294" type="curve"/>
      <point x="221.14705882352942" y="8.352941176470589" type="line"/>
      <point x="257.55882352941177" y="-0.05882352941176472"/>
      <point x="321.8529411764706" y="-11.205882352941176"/>
    </contour>
  </outline>
</glyph>
<glyph name="ae" format="2">
  <advance width="793.0"/>
  <unicode hex="00E6"/>
  <outline>
    <contour>
      <point x="177.2058823529412" y="-11.205882352941176" type="curve" smooth="yes"/>
      <point x="259.3235294117647" y="-11.205882352941176"/>
      <point x="319.0882352941176" y="10.058823529411764"/>
      <point x="384.44117647058823" y="39.44117647058823" type="curve"/>
      <point x="417.5882352941176" y="5.647058823529411"/>
      <point x="466.52941176470586" y="-11.205882352941176"/>
      <point x="534.7941176470588" y="-11.205882352941176" type="curve" smooth="yes"/>
      <point x="598.8235294117648" y="-11.205882352941176"/>
      <point x="687.9705882352941" y="1.8823529411764706"/>
      <point x="736.7058823529412" y="11.764705882352942" type="curve"/>
      <point x="734.7058823529412" y="96.70588235294117" type="line"/>
      <point x="689.6470588235294" y="92.70588235294117"/>
      <point x="608.1176470588235" y="87.70588235294117"/>
      <point x="550.5" y="87.70588235294117" type="curve" smooth="yes" name="hr00"/>
      <point x="466.8529411764706" y="87.70588235294117"/>
      <point x="436.7352941176471" y="125.20588235294117"/>
      <point x="436.0" y="203.64705882352942" type="curve"/>
      <point x="746.1470588235294" y="203.64705882352942" type="line"/>
      <point x="753.5" y="281.5" type="line"/>
      <point x="753.5" y="438.3235294117647"/>
      <point x="683.5588235294117" y="510.47058823529414"/>
      <point x="542.9117647058823" y="510.47058823529414" type="curve" smooth="yes"/>
      <point x="483.61764705882354" y="510.47058823529414"/>
      <point x="434.11764705882354" y="494.29411764705884"/>
      <point x="399.5882352941176" y="457.8529411764706" type="curve"/>
      <point x="373.29411764705884" y="493.9117647058824"/>
      <point x="329.02941176470586" y="510.47058823529414"/>
      <point x="267.94117647058823" y="510.47058823529414" type="curve" smooth="yes"/>
      <point x="213.61764705882354" y="510.47058823529414"/>
      <point x="120.52941176470588" y="499.3235294117647"/>
      <point x="66.17647058823529" y="491.6470588235294" type="curve"/>
      <point x="69.6470588235294" y="396.88235294117646" type="line"/>
      <point x="120.8529411764706" y="401.61764705882354"/>
      <point x="208.05882352941177" y="407.3529411764706"/>
      <point x="262.05882352941177" y="407.3529411764706" type="curve" smooth="yes"/>
      <point x="302.44117647058823" y="407.3529411764706"/>
      <point x="328.20588235294116" y="385.11764705882354"/>
      <point x="328.20588235294116" y="341.97058823529414" type="curve" smooth="yes"/>
      <point x="328.20588235294116" y="309.8235294117647" type="line"/>
      <point x="210.94117647058823" y="300.70588235294116" type="line" smooth="yes"/>
      <point x="96.32352941176471" y="291.79411764705884"/>
      <point x="34.029411764705884" y="260.02941176470586"/>
      <point x="34.029411764705884" y="148.02941176470588" type="curve" smooth="yes"/>
      <point x="34.029411764705884" y="48.55882352941177"/>
      <point x="82.70588235294117" y="-11.205882352941176"/>
    </contour>
    <contour>
      <point x="197.3235294117647" y="81.82352941176471" type="curve" smooth="yes"/>
      <point x="161.91176470588235" y="81.82352941176471"/>
      <point x="143.08823529411765" y="105.6470588235294"/>
      <point x="143.08823529411765" y="150.97058823529412" type="curve" smooth="yes"/>
      <point x="143.08823529411765" y="196.5"/>
      <point x="166.73529411764707" y="215.05882352941177"/>
      <point x="212.05882352941177" y="218.38235294117646" type="curve" smooth="yes"/>
      <point x="326.94117647058823" y="226.08823529411765" type="line"/>
      <point x="326.94117647058823" y="197.02941176470588"/>
      <point x="329.2647058823529" y="132.76470588235293"/>
      <point x="335.61764705882354" y="106.3529411764706" type="curve"/>
      <point x="310.52941176470586" y="100.08823529411765"/>
      <point x="244.0" y="81.82352941176471"/>
    </contour>
    <contour>
      <point x="436.0" y="287.8529411764706" type="line"/>
      <point x="436.0" y="376.3529411764706"/>
      <point x="468.6470588235294" y="414.5"/>
      <point x="542.9117647058823" y="414.5" type="curve" smooth="yes"/>
      <point x="616.7647058823529" y="414.5"/>
      <point x="646.6470588235294" y="380.55882352941177"/>
      <point x="646.6470588235294" y="287.8529411764706" type="curve"/>
    </contour>
  </outline>
</glyph>
<glyph name="eth" format="2">
  <advance width="558.5294117647059"/>
  <unicode hex="00F0"/>
  <outline>
    <contour>
      <point x="269.55882352941177" y="-9.0" type="curve" smooth="yes"/>
      <point x="443.61764705882354" y="-9.0"/>
      <point x="513.9705882352941" y="100.17647058823529"/>
      <point x="513.9705882352941" y="349.11764705882354" type="curve" smooth="yes"/>
      <point x="513.9705882352941" y="582.9117647058823"/>
      <point x="369.6470588235294" y="685.1764705882352"/>
      <point x="104.76470588235294" y="719.1470588235294" type="curve"/>
      <point x="88.08823529411765" y="641.8235294117648" type="line"/>
      <point x="324.0882352941176" y="591.6764705882352"/>
      <point x="391.3529411764706" y="515.8823529411765"/>
      <point x="399.7647058823529" y="405.2647058823529" type="curve"/>
      <point x="367.94117647058823" y="417.6470588235294"/>
      <point x="306.0" y="434.55882352941177"/>
      <point x="254.14705882352942" y="434.55882352941177" type="curve" smooth="yes"/>
      <point x="111.23529411764706" y="434.55882352941177"/>
      <point x="39.85294117647059" y="347.3529411764706"/>
      <point x="39.85294117647059" y="215.47058823529412" type="curve" smooth="yes"/>
      <point x="39.85294117647059" y="65.8529411764706"/>
      <point x="121.8529411764706" y="-9.0"/>
    </contour>
    <contour>
      <point x="269.55882352941177" y="88.23529411764706" type="curve" smooth="yes"/>
      <point x="189.85294117647058" y="88.23529411764706"/>
      <point x="153.7941176470588" y="136.11764705882354"/>
      <point x="153.7941176470588" y="215.47058823529412" type="curve" smooth="yes"/>
      <point x="153.7941176470588" y="281.2352941176471"/>
      <point x="188.85294117647058" y="338.79411764705884"/>
      <point x="260.55882352941177" y="338.79411764705884" type="curve" smooth="yes"/>
      <point x="313.55882352941177" y="338.79411764705884"/>
      <point x="371.3529411764706" y="322.3529411764706"/>
      <point x="400.02941176470586" y="310.70588235294116" type="curve"/>
      <point x="399.5" y="145.3235294117647"/>
      <point x="356.9117647058824" y="88.23529411764706"/>
    </contour>
    <contour>
      <point x="163.76470588235293" y="490.55882352941177" type="line"/>
      <point x="441.2647058823529" y="676.0882352941177" type="line"/>
      <point x="396.2647058823529" y="739.1176470588235" type="line"/>
      <point x="118.76470588235294" y="553.5882352941177" type="line"/>
    </contour>
  </outline>
</glyph>
<glyph name="divide" format="2">
  <advance width="560.0"/>
  <unicode hex="00F7"/>
  <outline>
    <contour>
      <point x="52.11764705882353" y="202.38235294117646" type="line"/>
      <point x="507.88235294117646" y="202.38235294117646" type="line"/>
      <point x="507.88235294117646" y="299.61764705882354" type="line"/>
      <point x="52.11764705882353" y="299.61764705882354" type="line"/>
    </contour>
    <contour>
      <point x="225.7058823529412" y="22.823529411764707" type="line"/>
      <point x="332.8235294117647" y="22.823529411764707" type="line"/>
      <point x="332.8235294117647" y="141.05882352941177" type="line"/>
      <point x="225.7058823529412" y="141.05882352941177" type="line"/>
    </contour>
    <contour>
      <point x="225.7058823529412" y="360.20588235294116" type="line"/>
      <point x="332.8235294117647" y="360.20588235294116" type="line"/>
      <point x="332.8235294117647" y="478.44117647058823" type="line"/>
      <point x="225.7058823529412" y="478.44117647058823" type="line"/>
    </contour>
  </outline>
</glyph>
